<svg width="60" height="49" viewBox="0 0 60 49" fill="none" xmlns="http://www.w3.org/2000/svg">
<mask id="path-1-outside-1" maskUnits="userSpaceOnUse" x="0" y="0" width="60" height="49" fill="black">
<rect fill="white" width="60" height="49"/>
<path d="M10.069 20.5273H6.31151C5.9404 20.5273 5.66979 20.443 5.4997 20.2743C5.32961 20.1057 5.24457 19.8373 5.24457 19.4693V8.40612H2.06694C1.69583 8.40612 1.42523 8.32179 1.25514 8.15312C1.08505 7.98445 1 7.71611 1 7.3481V4.56506C1 4.36572 1.02319 4.19705 1.06958 4.05905C1.13143 3.92105 1.21648 3.80605 1.32472 3.71404L4.31679 1.207C4.39411 1.14567 4.49461 1.09967 4.61832 1.069C4.75748 1.023 4.90438 1 5.05901 1H17.3056C17.6767 1 17.9473 1.08433 18.1174 1.253C18.2875 1.42167 18.3726 1.69001 18.3726 2.05802V4.84106C18.3726 5.0404 18.3416 5.20907 18.2798 5.34707C18.2334 5.48508 18.1561 5.60008 18.0478 5.69208L15.0326 8.17612C14.9707 8.23745 14.8702 8.29112 14.7311 8.33712C14.6073 8.38312 14.4682 8.40612 14.3136 8.40612H14.128V16.9623C14.128 17.1616 14.0971 17.3303 14.0352 17.4683C13.9888 17.6063 13.9115 17.7213 13.8033 17.8133L10.788 20.2973C10.7262 20.3587 10.6257 20.4123 10.4865 20.4583C10.3628 20.5043 10.2236 20.5273 10.069 20.5273ZM13.0611 17.7903C13.3549 17.7903 13.5636 17.7289 13.6873 17.6063C13.8265 17.4683 13.8961 17.2536 13.8961 16.9623V5.66908H17.3056C17.5994 5.66908 17.8082 5.60774 17.9319 5.48507C18.071 5.34707 18.1406 5.1324 18.1406 4.84106V2.05802C18.1406 1.76668 18.071 1.55968 17.9319 1.43701C17.8082 1.299 17.5994 1.23 17.3056 1.23H5.05901C4.76522 1.23 4.54873 1.299 4.40957 1.43701C4.28587 1.55968 4.22401 1.76668 4.22401 2.05802V4.84106C4.22401 5.1324 4.28587 5.34707 4.40957 5.48507C4.54873 5.60774 4.76522 5.66908 5.05901 5.66908H8.46858V16.9623C8.46858 17.2536 8.53043 17.4683 8.65413 17.6063C8.7933 17.7289 9.00978 17.7903 9.30358 17.7903H13.0611ZM11.0663 15.7202V3.53004H6.31151V3.30004H16.0531V3.53004H11.2983V15.7202H11.0663Z"/>
<path d="M24.1206 10.8212V11.5342H33.1664V10.8212C33.1664 10.4072 33.1277 10.0238 33.0504 9.67114C32.9886 9.31847 32.9035 8.9888 32.7953 8.68213L31.1949 4.93307C31.0248 4.53439 30.847 4.20472 30.6614 3.94405C30.4758 3.66804 30.1666 3.53004 29.7336 3.53004H27.4606C26.9967 3.53004 26.672 3.66804 26.4864 3.94405C26.3009 4.20472 26.1308 4.52673 25.9761 4.91007L24.4917 8.68213C24.3835 8.9888 24.2907 9.31847 24.2134 9.67114C24.1515 10.0238 24.1206 10.4072 24.1206 10.8212ZM27.8317 6.06008C27.8935 5.92208 27.9554 5.82241 28.0172 5.76108C28.0946 5.69975 28.1796 5.66908 28.2724 5.66908H28.8522C28.945 5.66908 29.0223 5.69975 29.0842 5.76108C29.1615 5.82241 29.2311 5.92208 29.2929 6.06008L30.3831 9.55614H26.7416L27.8317 6.06008ZM33.1664 15.7202V11.7642H24.1206V15.7202H23.8887V10.8212C23.8887 10.3918 23.9196 10.0008 23.9814 9.64814C24.0587 9.28014 24.1593 8.92747 24.283 8.59013L25.7674 4.81806C25.9375 4.38872 26.1308 4.02838 26.3472 3.73705C26.5637 3.44571 26.9348 3.30004 27.4606 3.30004H29.7336C30.2439 3.30004 30.5995 3.44571 30.8006 3.73705C31.017 4.02838 31.2181 4.39639 31.4036 4.84106L33.004 8.59013C33.1277 8.92747 33.2205 9.28014 33.2824 9.64814C33.3597 10.0008 33.3983 10.3918 33.3983 10.8212V15.7202H33.1664ZM26.5096 16.9623V13.7422H30.615V16.9623C30.615 17.2536 30.6846 17.4683 30.8238 17.6063C30.9784 17.7289 31.2103 17.7903 31.5196 17.7903H35.0219C35.3157 17.7903 35.5245 17.7289 35.6482 17.6063C35.7873 17.4683 35.8569 17.2536 35.8569 16.9623V10.8902C35.8569 10.4302 35.7796 9.90115 35.625 9.30314C35.4858 8.70513 35.2616 8.00745 34.9524 7.2101L32.9344 1.98902C32.8417 1.72834 32.6948 1.53668 32.4938 1.41401C32.3082 1.29134 32.0685 1.23 31.7747 1.23H25.5354C25.2262 1.23 24.9711 1.29134 24.77 1.41401C24.5845 1.53668 24.4453 1.72834 24.3525 1.98902L22.3346 7.2101C22.0254 8.00745 21.7934 8.70513 21.6388 9.30314C21.4996 9.90115 21.4301 10.4302 21.4301 10.8902V16.9623C21.4301 17.2536 21.4919 17.4683 21.6156 17.6063C21.7548 17.7289 21.9713 17.7903 22.265 17.7903H25.6746C25.9684 17.7903 26.1772 17.7289 26.3009 17.6063C26.44 17.4683 26.5096 17.2536 26.5096 16.9623ZM23.4016 20.2973C23.3397 20.3587 23.2392 20.4123 23.1 20.4583C22.9763 20.5043 22.8372 20.5273 22.6825 20.5273H19.273C18.9019 20.5273 18.6313 20.443 18.4612 20.2743C18.2911 20.1057 18.206 19.8373 18.206 19.4693V13.3972C18.206 12.9219 18.2756 12.3852 18.4148 11.7872C18.5694 11.1738 18.8091 10.4532 19.1338 9.62514L21.1285 4.42706C21.1749 4.28905 21.229 4.17405 21.2909 4.08205C21.3682 3.97472 21.4455 3.88271 21.5228 3.80605L21.546 3.78305L24.5149 1.32201C24.6386 1.21467 24.7855 1.138 24.9556 1.092C25.1257 1.03067 25.319 1 25.5354 1H31.7747C32.1304 1 32.4164 1.07667 32.6329 1.23C32.8649 1.36801 33.035 1.59034 33.1432 1.89701L35.1611 7.1181C35.4858 7.94612 35.7178 8.66679 35.8569 9.28014C36.0116 9.87815 36.0889 10.4148 36.0889 10.8902V16.9623C36.0889 17.1616 36.058 17.3303 35.9961 17.4683C35.9497 17.6063 35.8724 17.7213 35.7642 17.8133L32.7489 20.2973C32.687 20.3587 32.5865 20.4123 32.4474 20.4583C32.3237 20.5043 32.1845 20.5273 32.0299 20.5273H28.5275C28.1409 20.5273 27.8549 20.4353 27.6693 20.2513C27.4838 20.0827 27.391 19.822 27.391 19.4693V16.4793H26.7416V16.9623C26.7416 17.1616 26.7106 17.3303 26.6488 17.4683C26.6024 17.6063 26.5251 17.7213 26.4168 17.8133L23.4016 20.2973Z"/>
<path d="M44.0927 3.48404L52.6283 13.0062V3.30004H52.8602V15.7202H52.6283V13.3512L43.8608 3.59904C43.8453 3.58371 43.8221 3.56838 43.7912 3.55304C43.7757 3.53771 43.7603 3.53004 43.7448 3.53004C43.7294 3.53004 43.7139 3.53771 43.6984 3.55304C43.6984 3.56838 43.6984 3.58371 43.6984 3.59904V15.7202H43.4665V3.55304C43.4665 3.46104 43.4974 3.39204 43.5593 3.34604C43.6211 3.30004 43.683 3.27704 43.7448 3.27704C43.8067 3.27704 43.8608 3.29237 43.9072 3.32304C43.9536 3.35371 44.0154 3.40737 44.0927 3.48404ZM45.3452 17.7903C45.639 17.7903 45.8478 17.7289 45.9715 17.6063C46.1106 17.4683 46.1802 17.2536 46.1802 16.9623V9.37214L50.1465 14.1332V16.9623C50.1465 17.2536 50.2083 17.4683 50.332 17.6063C50.4712 17.7289 50.6877 17.7903 50.9815 17.7903H54.4606C54.7544 17.7903 54.9632 17.7289 55.0869 17.6063C55.226 17.4683 55.2956 17.2536 55.2956 16.9623V2.05802C55.2956 1.76668 55.226 1.55968 55.0869 1.43701C54.9632 1.299 54.7544 1.23 54.4606 1.23H50.9815C50.6877 1.23 50.4712 1.299 50.332 1.43701C50.2083 1.55968 50.1465 1.76668 50.1465 2.05802V6.9571L45.6468 1.85101C45.4457 1.62101 45.237 1.46001 45.0205 1.36801C44.8195 1.276 44.5721 1.23 44.2783 1.23H41.8661C41.5723 1.23 41.3558 1.299 41.2166 1.43701C41.0929 1.55968 41.0311 1.76668 41.0311 2.05802V16.9623C41.0311 17.2536 41.0929 17.4683 41.2166 17.6063C41.3558 17.7289 41.5723 17.7903 41.8661 17.7903H45.3452ZM46.0875 17.8133L43.0722 20.2973C43.0103 20.3587 42.9098 20.4123 42.7707 20.4583C42.647 20.5043 42.5078 20.5273 42.3532 20.5273H38.874C38.5029 20.5273 38.2323 20.443 38.0622 20.2743C37.8921 20.1057 37.8071 19.8373 37.8071 19.4693V4.56506C37.8071 4.36572 37.8303 4.19705 37.8767 4.05905C37.9385 3.92105 38.0235 3.80605 38.1318 3.71404L41.1239 1.207C41.2012 1.14567 41.3017 1.09967 41.4254 1.069C41.5646 1.023 41.7115 1 41.8661 1H44.2783C44.6185 1 44.9045 1.05367 45.1365 1.161C45.3684 1.26834 45.6004 1.44467 45.8323 1.69001L47.4327 3.53004L50.2392 1.207C50.3166 1.14567 50.4171 1.09967 50.5408 1.069C50.6799 1.023 50.8268 1 50.9815 1H54.4606C54.8317 1 55.1023 1.08433 55.2724 1.253C55.4425 1.42167 55.5276 1.69001 55.5276 2.05802V16.9623C55.5276 17.1616 55.4966 17.3303 55.4348 17.4683C55.3884 17.6063 55.3111 17.7213 55.2028 17.8133L52.1876 20.2973C52.1257 20.3587 52.0252 20.4123 51.886 20.4583C51.7623 20.5043 51.6232 20.5273 51.4685 20.5273H47.9894C47.6183 20.5273 47.3477 20.443 47.1776 20.2743C47.0075 20.1057 46.9224 19.8373 46.9224 19.4693V16.7323L46.4122 16.1113V16.9623C46.4122 17.1616 46.3812 17.3303 46.3194 17.4683C46.273 17.6063 46.1957 17.7213 46.0875 17.8133Z"/>
<path d="M15.2877 46.781C14.8084 47.1797 14.1976 47.4787 13.4554 47.678C12.7131 47.8927 11.8395 48 10.8344 48H3.01791C2.6468 48 2.3762 47.9157 2.20611 47.747C2.03601 47.5783 1.95097 47.31 1.95097 46.942V32.0377C1.95097 31.8384 1.97416 31.6697 2.02055 31.5317C2.0824 31.3937 2.16745 31.2787 2.27569 31.1867L5.26776 28.6797C5.34507 28.6183 5.44558 28.5723 5.56929 28.5417C5.70845 28.4957 5.85535 28.4727 6.00998 28.4727H13.8265C15.8521 28.4727 17.3443 28.879 18.303 29.6917C19.2771 30.5044 19.7642 31.7387 19.7642 33.3948V40.5709C19.7642 41.3989 19.6405 42.1272 19.3931 42.7559C19.1457 43.3693 18.7823 43.8829 18.303 44.2969L15.2877 46.781ZM13.8265 45.263C15.7593 45.263 17.1897 44.8796 18.1174 44.1129C19.0607 43.3463 19.5323 42.1656 19.5323 40.5709V33.3948C19.5323 31.8001 19.0607 30.6194 18.1174 29.8527C17.1897 29.086 15.7593 28.7027 13.8265 28.7027H6.00998C5.71618 28.7027 5.4997 28.7717 5.36054 28.9097C5.23683 29.0324 5.17498 29.2394 5.17498 29.5307V44.4349C5.17498 44.7263 5.23683 44.941 5.36054 45.079C5.4997 45.2016 5.71618 45.263 6.00998 45.263H13.8265ZM7.70317 43.1929V30.7727H13.3162C14.1048 30.7727 14.7388 30.8571 15.2181 31.0257C15.7129 31.1944 16.0918 31.4244 16.3547 31.7157C16.6175 31.9917 16.7954 32.3291 16.8881 32.7278C16.9809 33.1111 17.0273 33.5251 17.0273 33.9698V40.0649C17.0273 40.5095 16.9809 40.9236 16.8881 41.3069C16.8108 41.6902 16.6407 42.0199 16.3779 42.2959C16.115 42.5719 15.7361 42.7943 15.2413 42.9629C14.7465 43.1163 14.1048 43.1929 13.3162 43.1929H7.70317ZM13.3162 31.0027H7.93511V42.9629H13.3162C14.0584 42.9629 14.6537 42.8939 15.1022 42.7559C15.566 42.6026 15.9217 42.4032 16.1691 42.1579C16.4165 41.8972 16.5789 41.5906 16.6562 41.2379C16.749 40.8699 16.7954 40.4789 16.7954 40.0649V33.9698C16.7954 33.5558 16.749 33.1648 16.6562 32.7967C16.5634 32.4287 16.3933 32.1144 16.1459 31.8537C15.8985 31.5931 15.5429 31.3861 15.079 31.2327C14.6305 31.0794 14.043 31.0027 13.3162 31.0027ZM10.4401 33.0958H13.2002C13.5713 33.0958 13.8419 33.1878 14.012 33.3718C14.1976 33.5404 14.2904 33.8164 14.2904 34.1998V39.7889C14.2904 40.1722 14.1976 40.4559 14.012 40.6399C13.8419 40.8239 13.5713 40.9159 13.2002 40.9159H10.4401V33.0958ZM11.0663 36.7068C11.0663 36.5075 11.0354 36.3388 10.9736 36.2008C10.9117 36.0628 10.8112 35.9631 10.672 35.9018V40.6859H11.0663V36.7068Z"/>
<path d="M33.3956 48H22.6334C22.2623 48 21.9917 47.9157 21.8216 47.747C21.6515 47.5783 21.5665 47.31 21.5665 46.942V32.0377C21.5665 31.8384 21.5897 31.6697 21.6361 31.5317C21.6979 31.3937 21.783 31.2787 21.8912 31.1867L24.8833 28.6797C24.9606 28.6183 25.0611 28.5723 25.1848 28.5417C25.324 28.4957 25.4709 28.4727 25.6255 28.4727H36.3877C36.7588 28.4727 37.0294 28.557 37.1995 28.7257C37.3696 28.8944 37.4546 29.1627 37.4546 29.5307V32.2217C37.4546 32.4211 37.4237 32.5897 37.3618 32.7278C37.3155 32.8658 37.2381 32.9808 37.1299 33.0728L35.1352 34.7058C35.2898 34.7824 35.3981 34.8975 35.4599 35.0508C35.5372 35.2041 35.5759 35.4035 35.5759 35.6488V38.1098C35.5759 38.3092 35.545 38.4778 35.4831 38.6158C35.4367 38.7538 35.3594 38.8689 35.2512 38.9609L33.1869 40.6859H36.3877C36.7588 40.6859 37.0294 40.7702 37.1995 40.9389C37.3696 41.1076 37.4546 41.3759 37.4546 41.7439V44.4349C37.4546 44.6343 37.4237 44.803 37.3618 44.941C37.3155 45.079 37.2381 45.194 37.1299 45.286L34.1146 47.77C34.0528 47.8313 33.9523 47.885 33.8131 47.931C33.6894 47.977 33.5502 48 33.3956 48ZM36.3877 45.263C36.6815 45.263 36.8902 45.2016 37.0139 45.079C37.1531 44.941 37.2227 44.7263 37.2227 44.4349V41.7439C37.2227 41.4526 37.1531 41.2456 37.0139 41.1229C36.8902 40.9849 36.6815 40.9159 36.3877 40.9159H29.986V38.9379H34.5089C34.8027 38.9379 35.0115 38.8765 35.1352 38.7538C35.2744 38.6158 35.3439 38.4012 35.3439 38.1098V35.6488C35.3439 35.3575 35.2744 35.1505 35.1352 35.0278C35.0115 34.8898 34.8027 34.8208 34.5089 34.8208H29.986V33.0498H36.3877C36.6815 33.0498 36.8902 32.9884 37.0139 32.8658C37.1531 32.7277 37.2227 32.5131 37.2227 32.2217V29.5307C37.2227 29.2394 37.1531 29.0324 37.0139 28.9097C36.8902 28.7717 36.6815 28.7027 36.3877 28.7027H25.6255C25.3317 28.7027 25.1152 28.7717 24.9761 28.9097C24.8524 29.0324 24.7905 29.2394 24.7905 29.5307V44.4349C24.7905 44.7263 24.8524 44.941 24.9761 45.079C25.1152 45.2016 25.3317 45.263 25.6255 45.263H36.3877ZM35.1352 42.9629V43.1929H27.3187V30.7727H35.1352V31.0027H27.5506V36.7758H33.2564V37.0058H27.5506V42.9629H35.1352Z"/>
<path d="M50.4413 36.4078C50.7196 36.4078 50.9206 36.3465 51.0443 36.2238C51.168 36.1011 51.3613 35.8405 51.6242 35.4418L54.4539 31.1637C54.5467 31.0104 54.6472 30.9107 54.7554 30.8647C54.8791 30.8034 55.0028 30.7727 55.1265 30.7727H55.5208C55.7373 30.7727 55.892 30.8341 55.9847 30.9567C56.093 31.0641 56.1471 31.2404 56.1471 31.4857V43.1929H55.9151V31.4857C55.9151 31.3631 55.8842 31.2557 55.8224 31.1637C55.776 31.0564 55.6755 31.0027 55.5208 31.0027H55.1729C55.0647 31.0027 54.9719 31.0181 54.8946 31.0487C54.8173 31.0794 54.7322 31.1714 54.6395 31.3247L51.8097 35.5568C51.5314 35.9708 51.3149 36.2545 51.1603 36.4078C51.0211 36.5611 50.7815 36.6378 50.4413 36.6378C50.1011 36.6378 49.8537 36.5611 49.6991 36.4078C49.5599 36.2545 49.3512 35.9708 49.0728 35.5568L46.2431 31.3247C46.1503 31.1714 46.0576 31.0794 45.9648 31.0487C45.8875 31.0181 45.7947 31.0027 45.6864 31.0027H45.3385C45.1839 31.0027 45.0834 31.0564 45.037 31.1637C44.9906 31.2557 44.9674 31.3631 44.9674 31.4857V43.1929H44.7355V31.4857C44.7355 31.2404 44.7819 31.0641 44.8746 30.9567C44.9829 30.8341 45.1375 30.7727 45.3385 30.7727H45.7328C45.8565 30.7727 45.9802 30.8034 46.1039 30.8647C46.2276 30.9107 46.3359 31.0104 46.4287 31.1637L49.2584 35.4418C49.5212 35.8405 49.7145 36.1011 49.8382 36.2238C49.9619 36.3465 50.163 36.4078 50.4413 36.4078ZM46.5678 45.263C46.8616 45.263 47.0704 45.2016 47.1941 45.079C47.3332 44.941 47.4028 44.7263 47.4028 44.4349V36.3388L48.7713 38.8459C48.9105 39.1065 49.0728 39.2982 49.2584 39.4209C49.4594 39.5282 49.7068 39.5819 50.0006 39.5819H50.9284C51.2222 39.5819 51.4618 39.5282 51.6474 39.4209C51.8484 39.2982 52.0185 39.1065 52.1577 38.8459L53.5261 36.3388V44.4349C53.5261 44.7263 53.588 44.941 53.7117 45.079C53.8509 45.2016 54.0673 45.263 54.3611 45.263H57.9331C58.2269 45.263 58.4356 45.2016 58.5593 45.079C58.6985 44.941 58.7681 44.7263 58.7681 44.4349V29.5307C58.7681 29.2394 58.6985 29.0324 58.5593 28.9097C58.4356 28.7717 58.2269 28.7027 57.9331 28.7027H54.1756C53.9282 28.7027 53.7194 28.7564 53.5493 28.8637C53.3947 28.971 53.2478 29.1474 53.1086 29.3927L51.0443 33.1418C50.967 33.2798 50.8974 33.3794 50.8356 33.4408C50.7892 33.5021 50.7196 33.5328 50.6268 33.5328H50.4181C50.3253 33.5328 50.248 33.5021 50.1861 33.4408C50.1398 33.3794 50.0779 33.2798 50.0006 33.1418L47.9131 29.3927C47.7739 29.1474 47.6193 28.971 47.4492 28.8637C47.2946 28.7564 47.0936 28.7027 46.8462 28.7027H43.1119C42.8181 28.7027 42.6016 28.7717 42.4624 28.9097C42.3387 29.0324 42.2769 29.2394 42.2769 29.5307V44.4349C42.2769 44.7263 42.3387 44.941 42.4624 45.079C42.6016 45.2016 42.8181 45.263 43.1119 45.263H46.5678ZM47.3101 45.286L44.2948 47.77C44.2329 47.8313 44.1324 47.885 43.9933 47.931C43.8696 47.977 43.7304 48 43.5758 48H40.1198C39.7487 48 39.4781 47.9157 39.308 47.747C39.1379 47.5783 39.0529 47.31 39.0529 46.942V32.0377C39.0529 31.8384 39.0761 31.6697 39.1224 31.5317C39.1843 31.3937 39.2693 31.2787 39.3776 31.1867L42.3697 28.6797C42.447 28.6183 42.5475 28.5723 42.6712 28.5417C42.8103 28.4957 42.9572 28.4727 43.1119 28.4727H46.8462C47.14 28.4727 47.3796 28.534 47.5652 28.6567C47.7662 28.7794 47.9518 28.9864 48.1218 29.2777L49.6991 32.1527L49.9078 31.7847C49.9697 31.6774 50.0315 31.5777 50.0934 31.4857C50.1707 31.3784 50.248 31.2941 50.3253 31.2327L53.3174 28.7487C53.4411 28.6567 53.5648 28.5877 53.6885 28.5417C53.8277 28.4957 53.99 28.4727 54.1756 28.4727H57.9331C58.3042 28.4727 58.5748 28.557 58.7449 28.7257C58.915 28.8944 59 29.1627 59 29.5307V44.4349C59 44.6343 58.9691 44.803 58.9072 44.941C58.8608 45.079 58.7835 45.194 58.6753 45.286L55.66 47.77C55.5982 47.8313 55.4977 47.885 55.3585 47.931C55.2348 47.977 55.0956 48 54.941 48H51.3691C50.9825 48 50.7042 47.9157 50.5341 47.747C50.3794 47.5783 50.3021 47.31 50.3021 46.942V40.8699L48.9337 41.9969C48.8099 42.1042 48.6631 42.1886 48.493 42.2499C48.3383 42.2959 48.1528 42.3189 47.9363 42.3189H47.6348V44.4349C47.6348 44.6343 47.6038 44.803 47.542 44.941C47.4956 45.079 47.4183 45.194 47.3101 45.286Z"/>
</mask>
<path d="M10.069 20.5273H6.31151C5.9404 20.5273 5.66979 20.443 5.4997 20.2743C5.32961 20.1057 5.24457 19.8373 5.24457 19.4693V8.40612H2.06694C1.69583 8.40612 1.42523 8.32179 1.25514 8.15312C1.08505 7.98445 1 7.71611 1 7.3481V4.56506C1 4.36572 1.02319 4.19705 1.06958 4.05905C1.13143 3.92105 1.21648 3.80605 1.32472 3.71404L4.31679 1.207C4.39411 1.14567 4.49461 1.09967 4.61832 1.069C4.75748 1.023 4.90438 1 5.05901 1H17.3056C17.6767 1 17.9473 1.08433 18.1174 1.253C18.2875 1.42167 18.3726 1.69001 18.3726 2.05802V4.84106C18.3726 5.0404 18.3416 5.20907 18.2798 5.34707C18.2334 5.48508 18.1561 5.60008 18.0478 5.69208L15.0326 8.17612C14.9707 8.23745 14.8702 8.29112 14.7311 8.33712C14.6073 8.38312 14.4682 8.40612 14.3136 8.40612H14.128V16.9623C14.128 17.1616 14.0971 17.3303 14.0352 17.4683C13.9888 17.6063 13.9115 17.7213 13.8033 17.8133L10.788 20.2973C10.7262 20.3587 10.6257 20.4123 10.4865 20.4583C10.3628 20.5043 10.2236 20.5273 10.069 20.5273ZM13.0611 17.7903C13.3549 17.7903 13.5636 17.7289 13.6873 17.6063C13.8265 17.4683 13.8961 17.2536 13.8961 16.9623V5.66908H17.3056C17.5994 5.66908 17.8082 5.60774 17.9319 5.48507C18.071 5.34707 18.1406 5.1324 18.1406 4.84106V2.05802C18.1406 1.76668 18.071 1.55968 17.9319 1.43701C17.8082 1.299 17.5994 1.23 17.3056 1.23H5.05901C4.76522 1.23 4.54873 1.299 4.40957 1.43701C4.28587 1.55968 4.22401 1.76668 4.22401 2.05802V4.84106C4.22401 5.1324 4.28587 5.34707 4.40957 5.48507C4.54873 5.60774 4.76522 5.66908 5.05901 5.66908H8.46858V16.9623C8.46858 17.2536 8.53043 17.4683 8.65413 17.6063C8.7933 17.7289 9.00978 17.7903 9.30358 17.7903H13.0611ZM11.0663 15.7202V3.53004H6.31151V3.30004H16.0531V3.53004H11.2983V15.7202H11.0663Z" fill="#32D95C"/>
<path d="M24.1206 10.8212V11.5342H33.1664V10.8212C33.1664 10.4072 33.1277 10.0238 33.0504 9.67114C32.9886 9.31847 32.9035 8.9888 32.7953 8.68213L31.1949 4.93307C31.0248 4.53439 30.847 4.20472 30.6614 3.94405C30.4758 3.66804 30.1666 3.53004 29.7336 3.53004H27.4606C26.9967 3.53004 26.672 3.66804 26.4864 3.94405C26.3009 4.20472 26.1308 4.52673 25.9761 4.91007L24.4917 8.68213C24.3835 8.9888 24.2907 9.31847 24.2134 9.67114C24.1515 10.0238 24.1206 10.4072 24.1206 10.8212ZM27.8317 6.06008C27.8935 5.92208 27.9554 5.82241 28.0172 5.76108C28.0946 5.69975 28.1796 5.66908 28.2724 5.66908H28.8522C28.945 5.66908 29.0223 5.69975 29.0842 5.76108C29.1615 5.82241 29.2311 5.92208 29.2929 6.06008L30.3831 9.55614H26.7416L27.8317 6.06008ZM33.1664 15.7202V11.7642H24.1206V15.7202H23.8887V10.8212C23.8887 10.3918 23.9196 10.0008 23.9814 9.64814C24.0587 9.28014 24.1593 8.92747 24.283 8.59013L25.7674 4.81806C25.9375 4.38872 26.1308 4.02838 26.3472 3.73705C26.5637 3.44571 26.9348 3.30004 27.4606 3.30004H29.7336C30.2439 3.30004 30.5995 3.44571 30.8006 3.73705C31.017 4.02838 31.2181 4.39639 31.4036 4.84106L33.004 8.59013C33.1277 8.92747 33.2205 9.28014 33.2824 9.64814C33.3597 10.0008 33.3983 10.3918 33.3983 10.8212V15.7202H33.1664ZM26.5096 16.9623V13.7422H30.615V16.9623C30.615 17.2536 30.6846 17.4683 30.8238 17.6063C30.9784 17.7289 31.2103 17.7903 31.5196 17.7903H35.0219C35.3157 17.7903 35.5245 17.7289 35.6482 17.6063C35.7873 17.4683 35.8569 17.2536 35.8569 16.9623V10.8902C35.8569 10.4302 35.7796 9.90115 35.625 9.30314C35.4858 8.70513 35.2616 8.00745 34.9524 7.2101L32.9344 1.98902C32.8417 1.72834 32.6948 1.53668 32.4938 1.41401C32.3082 1.29134 32.0685 1.23 31.7747 1.23H25.5354C25.2262 1.23 24.9711 1.29134 24.77 1.41401C24.5845 1.53668 24.4453 1.72834 24.3525 1.98902L22.3346 7.2101C22.0254 8.00745 21.7934 8.70513 21.6388 9.30314C21.4996 9.90115 21.4301 10.4302 21.4301 10.8902V16.9623C21.4301 17.2536 21.4919 17.4683 21.6156 17.6063C21.7548 17.7289 21.9713 17.7903 22.265 17.7903H25.6746C25.9684 17.7903 26.1772 17.7289 26.3009 17.6063C26.44 17.4683 26.5096 17.2536 26.5096 16.9623ZM23.4016 20.2973C23.3397 20.3587 23.2392 20.4123 23.1 20.4583C22.9763 20.5043 22.8372 20.5273 22.6825 20.5273H19.273C18.9019 20.5273 18.6313 20.443 18.4612 20.2743C18.2911 20.1057 18.206 19.8373 18.206 19.4693V13.3972C18.206 12.9219 18.2756 12.3852 18.4148 11.7872C18.5694 11.1738 18.8091 10.4532 19.1338 9.62514L21.1285 4.42706C21.1749 4.28905 21.229 4.17405 21.2909 4.08205C21.3682 3.97472 21.4455 3.88271 21.5228 3.80605L21.546 3.78305L24.5149 1.32201C24.6386 1.21467 24.7855 1.138 24.9556 1.092C25.1257 1.03067 25.319 1 25.5354 1H31.7747C32.1304 1 32.4164 1.07667 32.6329 1.23C32.8649 1.36801 33.035 1.59034 33.1432 1.89701L35.1611 7.1181C35.4858 7.94612 35.7178 8.66679 35.8569 9.28014C36.0116 9.87815 36.0889 10.4148 36.0889 10.8902V16.9623C36.0889 17.1616 36.058 17.3303 35.9961 17.4683C35.9497 17.6063 35.8724 17.7213 35.7642 17.8133L32.7489 20.2973C32.687 20.3587 32.5865 20.4123 32.4474 20.4583C32.3237 20.5043 32.1845 20.5273 32.0299 20.5273H28.5275C28.1409 20.5273 27.8549 20.4353 27.6693 20.2513C27.4838 20.0827 27.391 19.822 27.391 19.4693V16.4793H26.7416V16.9623C26.7416 17.1616 26.7106 17.3303 26.6488 17.4683C26.6024 17.6063 26.5251 17.7213 26.4168 17.8133L23.4016 20.2973Z" fill="#32D95C"/>
<path d="M44.0927 3.48404L52.6283 13.0062V3.30004H52.8602V15.7202H52.6283V13.3512L43.8608 3.59904C43.8453 3.58371 43.8221 3.56838 43.7912 3.55304C43.7757 3.53771 43.7603 3.53004 43.7448 3.53004C43.7294 3.53004 43.7139 3.53771 43.6984 3.55304C43.6984 3.56838 43.6984 3.58371 43.6984 3.59904V15.7202H43.4665V3.55304C43.4665 3.46104 43.4974 3.39204 43.5593 3.34604C43.6211 3.30004 43.683 3.27704 43.7448 3.27704C43.8067 3.27704 43.8608 3.29237 43.9072 3.32304C43.9536 3.35371 44.0154 3.40737 44.0927 3.48404ZM45.3452 17.7903C45.639 17.7903 45.8478 17.7289 45.9715 17.6063C46.1106 17.4683 46.1802 17.2536 46.1802 16.9623V9.37214L50.1465 14.1332V16.9623C50.1465 17.2536 50.2083 17.4683 50.332 17.6063C50.4712 17.7289 50.6877 17.7903 50.9815 17.7903H54.4606C54.7544 17.7903 54.9632 17.7289 55.0869 17.6063C55.226 17.4683 55.2956 17.2536 55.2956 16.9623V2.05802C55.2956 1.76668 55.226 1.55968 55.0869 1.43701C54.9632 1.299 54.7544 1.23 54.4606 1.23H50.9815C50.6877 1.23 50.4712 1.299 50.332 1.43701C50.2083 1.55968 50.1465 1.76668 50.1465 2.05802V6.9571L45.6468 1.85101C45.4457 1.62101 45.237 1.46001 45.0205 1.36801C44.8195 1.276 44.5721 1.23 44.2783 1.23H41.8661C41.5723 1.23 41.3558 1.299 41.2166 1.43701C41.0929 1.55968 41.0311 1.76668 41.0311 2.05802V16.9623C41.0311 17.2536 41.0929 17.4683 41.2166 17.6063C41.3558 17.7289 41.5723 17.7903 41.8661 17.7903H45.3452ZM46.0875 17.8133L43.0722 20.2973C43.0103 20.3587 42.9098 20.4123 42.7707 20.4583C42.647 20.5043 42.5078 20.5273 42.3532 20.5273H38.874C38.5029 20.5273 38.2323 20.443 38.0622 20.2743C37.8921 20.1057 37.8071 19.8373 37.8071 19.4693V4.56506C37.8071 4.36572 37.8303 4.19705 37.8767 4.05905C37.9385 3.92105 38.0235 3.80605 38.1318 3.71404L41.1239 1.207C41.2012 1.14567 41.3017 1.09967 41.4254 1.069C41.5646 1.023 41.7115 1 41.8661 1H44.2783C44.6185 1 44.9045 1.05367 45.1365 1.161C45.3684 1.26834 45.6004 1.44467 45.8323 1.69001L47.4327 3.53004L50.2392 1.207C50.3166 1.14567 50.4171 1.09967 50.5408 1.069C50.6799 1.023 50.8268 1 50.9815 1H54.4606C54.8317 1 55.1023 1.08433 55.2724 1.253C55.4425 1.42167 55.5276 1.69001 55.5276 2.05802V16.9623C55.5276 17.1616 55.4966 17.3303 55.4348 17.4683C55.3884 17.6063 55.3111 17.7213 55.2028 17.8133L52.1876 20.2973C52.1257 20.3587 52.0252 20.4123 51.886 20.4583C51.7623 20.5043 51.6232 20.5273 51.4685 20.5273H47.9894C47.6183 20.5273 47.3477 20.443 47.1776 20.2743C47.0075 20.1057 46.9224 19.8373 46.9224 19.4693V16.7323L46.4122 16.1113V16.9623C46.4122 17.1616 46.3812 17.3303 46.3194 17.4683C46.273 17.6063 46.1957 17.7213 46.0875 17.8133Z" fill="#32D95C"/>
<path d="M15.2877 46.781C14.8084 47.1797 14.1976 47.4787 13.4554 47.678C12.7131 47.8927 11.8395 48 10.8344 48H3.01791C2.6468 48 2.3762 47.9157 2.20611 47.747C2.03601 47.5783 1.95097 47.31 1.95097 46.942V32.0377C1.95097 31.8384 1.97416 31.6697 2.02055 31.5317C2.0824 31.3937 2.16745 31.2787 2.27569 31.1867L5.26776 28.6797C5.34507 28.6183 5.44558 28.5723 5.56929 28.5417C5.70845 28.4957 5.85535 28.4727 6.00998 28.4727H13.8265C15.8521 28.4727 17.3443 28.879 18.303 29.6917C19.2771 30.5044 19.7642 31.7387 19.7642 33.3948V40.5709C19.7642 41.3989 19.6405 42.1272 19.3931 42.7559C19.1457 43.3693 18.7823 43.8829 18.303 44.2969L15.2877 46.781ZM13.8265 45.263C15.7593 45.263 17.1897 44.8796 18.1174 44.1129C19.0607 43.3463 19.5323 42.1656 19.5323 40.5709V33.3948C19.5323 31.8001 19.0607 30.6194 18.1174 29.8527C17.1897 29.086 15.7593 28.7027 13.8265 28.7027H6.00998C5.71618 28.7027 5.4997 28.7717 5.36054 28.9097C5.23683 29.0324 5.17498 29.2394 5.17498 29.5307V44.4349C5.17498 44.7263 5.23683 44.941 5.36054 45.079C5.4997 45.2016 5.71618 45.263 6.00998 45.263H13.8265ZM7.70317 43.1929V30.7727H13.3162C14.1048 30.7727 14.7388 30.8571 15.2181 31.0257C15.7129 31.1944 16.0918 31.4244 16.3547 31.7157C16.6175 31.9917 16.7954 32.3291 16.8881 32.7278C16.9809 33.1111 17.0273 33.5251 17.0273 33.9698V40.0649C17.0273 40.5095 16.9809 40.9236 16.8881 41.3069C16.8108 41.6902 16.6407 42.0199 16.3779 42.2959C16.115 42.5719 15.7361 42.7943 15.2413 42.9629C14.7465 43.1163 14.1048 43.1929 13.3162 43.1929H7.70317ZM13.3162 31.0027H7.93511V42.9629H13.3162C14.0584 42.9629 14.6537 42.8939 15.1022 42.7559C15.566 42.6026 15.9217 42.4032 16.1691 42.1579C16.4165 41.8972 16.5789 41.5906 16.6562 41.2379C16.749 40.8699 16.7954 40.4789 16.7954 40.0649V33.9698C16.7954 33.5558 16.749 33.1648 16.6562 32.7967C16.5634 32.4287 16.3933 32.1144 16.1459 31.8537C15.8985 31.5931 15.5429 31.3861 15.079 31.2327C14.6305 31.0794 14.043 31.0027 13.3162 31.0027ZM10.4401 33.0958H13.2002C13.5713 33.0958 13.8419 33.1878 14.012 33.3718C14.1976 33.5404 14.2904 33.8164 14.2904 34.1998V39.7889C14.2904 40.1722 14.1976 40.4559 14.012 40.6399C13.8419 40.8239 13.5713 40.9159 13.2002 40.9159H10.4401V33.0958ZM11.0663 36.7068C11.0663 36.5075 11.0354 36.3388 10.9736 36.2008C10.9117 36.0628 10.8112 35.9631 10.672 35.9018V40.6859H11.0663V36.7068Z" fill="#32D95C"/>
<path d="M33.3956 48H22.6334C22.2623 48 21.9917 47.9157 21.8216 47.747C21.6515 47.5783 21.5665 47.31 21.5665 46.942V32.0377C21.5665 31.8384 21.5897 31.6697 21.6361 31.5317C21.6979 31.3937 21.783 31.2787 21.8912 31.1867L24.8833 28.6797C24.9606 28.6183 25.0611 28.5723 25.1848 28.5417C25.324 28.4957 25.4709 28.4727 25.6255 28.4727H36.3877C36.7588 28.4727 37.0294 28.557 37.1995 28.7257C37.3696 28.8944 37.4546 29.1627 37.4546 29.5307V32.2217C37.4546 32.4211 37.4237 32.5897 37.3618 32.7278C37.3155 32.8658 37.2381 32.9808 37.1299 33.0728L35.1352 34.7058C35.2898 34.7824 35.3981 34.8975 35.4599 35.0508C35.5372 35.2041 35.5759 35.4035 35.5759 35.6488V38.1098C35.5759 38.3092 35.545 38.4778 35.4831 38.6158C35.4367 38.7538 35.3594 38.8689 35.2512 38.9609L33.1869 40.6859H36.3877C36.7588 40.6859 37.0294 40.7702 37.1995 40.9389C37.3696 41.1076 37.4546 41.3759 37.4546 41.7439V44.4349C37.4546 44.6343 37.4237 44.803 37.3618 44.941C37.3155 45.079 37.2381 45.194 37.1299 45.286L34.1146 47.77C34.0528 47.8313 33.9523 47.885 33.8131 47.931C33.6894 47.977 33.5502 48 33.3956 48ZM36.3877 45.263C36.6815 45.263 36.8902 45.2016 37.0139 45.079C37.1531 44.941 37.2227 44.7263 37.2227 44.4349V41.7439C37.2227 41.4526 37.1531 41.2456 37.0139 41.1229C36.8902 40.9849 36.6815 40.9159 36.3877 40.9159H29.986V38.9379H34.5089C34.8027 38.9379 35.0115 38.8765 35.1352 38.7538C35.2744 38.6158 35.3439 38.4012 35.3439 38.1098V35.6488C35.3439 35.3575 35.2744 35.1505 35.1352 35.0278C35.0115 34.8898 34.8027 34.8208 34.5089 34.8208H29.986V33.0498H36.3877C36.6815 33.0498 36.8902 32.9884 37.0139 32.8658C37.1531 32.7277 37.2227 32.5131 37.2227 32.2217V29.5307C37.2227 29.2394 37.1531 29.0324 37.0139 28.9097C36.8902 28.7717 36.6815 28.7027 36.3877 28.7027H25.6255C25.3317 28.7027 25.1152 28.7717 24.9761 28.9097C24.8524 29.0324 24.7905 29.2394 24.7905 29.5307V44.4349C24.7905 44.7263 24.8524 44.941 24.9761 45.079C25.1152 45.2016 25.3317 45.263 25.6255 45.263H36.3877ZM35.1352 42.9629V43.1929H27.3187V30.7727H35.1352V31.0027H27.5506V36.7758H33.2564V37.0058H27.5506V42.9629H35.1352Z" fill="#32D95C"/>
<path d="M50.4413 36.4078C50.7196 36.4078 50.9206 36.3465 51.0443 36.2238C51.168 36.1011 51.3613 35.8405 51.6242 35.4418L54.4539 31.1637C54.5467 31.0104 54.6472 30.9107 54.7554 30.8647C54.8791 30.8034 55.0028 30.7727 55.1265 30.7727H55.5208C55.7373 30.7727 55.892 30.8341 55.9847 30.9567C56.093 31.0641 56.1471 31.2404 56.1471 31.4857V43.1929H55.9151V31.4857C55.9151 31.3631 55.8842 31.2557 55.8224 31.1637C55.776 31.0564 55.6755 31.0027 55.5208 31.0027H55.1729C55.0647 31.0027 54.9719 31.0181 54.8946 31.0487C54.8173 31.0794 54.7322 31.1714 54.6395 31.3247L51.8097 35.5568C51.5314 35.9708 51.3149 36.2545 51.1603 36.4078C51.0211 36.5611 50.7815 36.6378 50.4413 36.6378C50.1011 36.6378 49.8537 36.5611 49.6991 36.4078C49.5599 36.2545 49.3512 35.9708 49.0728 35.5568L46.2431 31.3247C46.1503 31.1714 46.0576 31.0794 45.9648 31.0487C45.8875 31.0181 45.7947 31.0027 45.6864 31.0027H45.3385C45.1839 31.0027 45.0834 31.0564 45.037 31.1637C44.9906 31.2557 44.9674 31.3631 44.9674 31.4857V43.1929H44.7355V31.4857C44.7355 31.2404 44.7819 31.0641 44.8746 30.9567C44.9829 30.8341 45.1375 30.7727 45.3385 30.7727H45.7328C45.8565 30.7727 45.9802 30.8034 46.1039 30.8647C46.2276 30.9107 46.3359 31.0104 46.4287 31.1637L49.2584 35.4418C49.5212 35.8405 49.7145 36.1011 49.8382 36.2238C49.9619 36.3465 50.163 36.4078 50.4413 36.4078ZM46.5678 45.263C46.8616 45.263 47.0704 45.2016 47.1941 45.079C47.3332 44.941 47.4028 44.7263 47.4028 44.4349V36.3388L48.7713 38.8459C48.9105 39.1065 49.0728 39.2982 49.2584 39.4209C49.4594 39.5282 49.7068 39.5819 50.0006 39.5819H50.9284C51.2222 39.5819 51.4618 39.5282 51.6474 39.4209C51.8484 39.2982 52.0185 39.1065 52.1577 38.8459L53.5261 36.3388V44.4349C53.5261 44.7263 53.588 44.941 53.7117 45.079C53.8509 45.2016 54.0673 45.263 54.3611 45.263H57.9331C58.2269 45.263 58.4356 45.2016 58.5593 45.079C58.6985 44.941 58.7681 44.7263 58.7681 44.4349V29.5307C58.7681 29.2394 58.6985 29.0324 58.5593 28.9097C58.4356 28.7717 58.2269 28.7027 57.9331 28.7027H54.1756C53.9282 28.7027 53.7194 28.7564 53.5493 28.8637C53.3947 28.971 53.2478 29.1474 53.1086 29.3927L51.0443 33.1418C50.967 33.2798 50.8974 33.3794 50.8356 33.4408C50.7892 33.5021 50.7196 33.5328 50.6268 33.5328H50.4181C50.3253 33.5328 50.248 33.5021 50.1861 33.4408C50.1398 33.3794 50.0779 33.2798 50.0006 33.1418L47.9131 29.3927C47.7739 29.1474 47.6193 28.971 47.4492 28.8637C47.2946 28.7564 47.0936 28.7027 46.8462 28.7027H43.1119C42.8181 28.7027 42.6016 28.7717 42.4624 28.9097C42.3387 29.0324 42.2769 29.2394 42.2769 29.5307V44.4349C42.2769 44.7263 42.3387 44.941 42.4624 45.079C42.6016 45.2016 42.8181 45.263 43.1119 45.263H46.5678ZM47.3101 45.286L44.2948 47.77C44.2329 47.8313 44.1324 47.885 43.9933 47.931C43.8696 47.977 43.7304 48 43.5758 48H40.1198C39.7487 48 39.4781 47.9157 39.308 47.747C39.1379 47.5783 39.0529 47.31 39.0529 46.942V32.0377C39.0529 31.8384 39.0761 31.6697 39.1224 31.5317C39.1843 31.3937 39.2693 31.2787 39.3776 31.1867L42.3697 28.6797C42.447 28.6183 42.5475 28.5723 42.6712 28.5417C42.8103 28.4957 42.9572 28.4727 43.1119 28.4727H46.8462C47.14 28.4727 47.3796 28.534 47.5652 28.6567C47.7662 28.7794 47.9518 28.9864 48.1218 29.2777L49.6991 32.1527L49.9078 31.7847C49.9697 31.6774 50.0315 31.5777 50.0934 31.4857C50.1707 31.3784 50.248 31.2941 50.3253 31.2327L53.3174 28.7487C53.4411 28.6567 53.5648 28.5877 53.6885 28.5417C53.8277 28.4957 53.99 28.4727 54.1756 28.4727H57.9331C58.3042 28.4727 58.5748 28.557 58.7449 28.7257C58.915 28.8944 59 29.1627 59 29.5307V44.4349C59 44.6343 58.9691 44.803 58.9072 44.941C58.8608 45.079 58.7835 45.194 58.6753 45.286L55.66 47.77C55.5982 47.8313 55.4977 47.885 55.3585 47.931C55.2348 47.977 55.0956 48 54.941 48H51.3691C50.9825 48 50.7042 47.9157 50.5341 47.747C50.3794 47.5783 50.3021 47.31 50.3021 46.942V40.8699L48.9337 41.9969C48.8099 42.1042 48.6631 42.1886 48.493 42.2499C48.3383 42.2959 48.1528 42.3189 47.9363 42.3189H47.6348V44.4349C47.6348 44.6343 47.6038 44.803 47.542 44.941C47.4956 45.079 47.4183 45.194 47.3101 45.286Z" fill="#32D95C"/>
<path d="M10.069 20.5273H6.31151C5.9404 20.5273 5.66979 20.443 5.4997 20.2743C5.32961 20.1057 5.24457 19.8373 5.24457 19.4693V8.40612H2.06694C1.69583 8.40612 1.42523 8.32179 1.25514 8.15312C1.08505 7.98445 1 7.71611 1 7.3481V4.56506C1 4.36572 1.02319 4.19705 1.06958 4.05905C1.13143 3.92105 1.21648 3.80605 1.32472 3.71404L4.31679 1.207C4.39411 1.14567 4.49461 1.09967 4.61832 1.069C4.75748 1.023 4.90438 1 5.05901 1H17.3056C17.6767 1 17.9473 1.08433 18.1174 1.253C18.2875 1.42167 18.3726 1.69001 18.3726 2.05802V4.84106C18.3726 5.0404 18.3416 5.20907 18.2798 5.34707C18.2334 5.48508 18.1561 5.60008 18.0478 5.69208L15.0326 8.17612C14.9707 8.23745 14.8702 8.29112 14.7311 8.33712C14.6073 8.38312 14.4682 8.40612 14.3136 8.40612H14.128V16.9623C14.128 17.1616 14.0971 17.3303 14.0352 17.4683C13.9888 17.6063 13.9115 17.7213 13.8033 17.8133L10.788 20.2973C10.7262 20.3587 10.6257 20.4123 10.4865 20.4583C10.3628 20.5043 10.2236 20.5273 10.069 20.5273ZM13.0611 17.7903C13.3549 17.7903 13.5636 17.7289 13.6873 17.6063C13.8265 17.4683 13.8961 17.2536 13.8961 16.9623V5.66908H17.3056C17.5994 5.66908 17.8082 5.60774 17.9319 5.48507C18.071 5.34707 18.1406 5.1324 18.1406 4.84106V2.05802C18.1406 1.76668 18.071 1.55968 17.9319 1.43701C17.8082 1.299 17.5994 1.23 17.3056 1.23H5.05901C4.76522 1.23 4.54873 1.299 4.40957 1.43701C4.28587 1.55968 4.22401 1.76668 4.22401 2.05802V4.84106C4.22401 5.1324 4.28587 5.34707 4.40957 5.48507C4.54873 5.60774 4.76522 5.66908 5.05901 5.66908H8.46858V16.9623C8.46858 17.2536 8.53043 17.4683 8.65413 17.6063C8.7933 17.7289 9.00978 17.7903 9.30358 17.7903H13.0611ZM11.0663 15.7202V3.53004H6.31151V3.30004H16.0531V3.53004H11.2983V15.7202H11.0663Z" stroke="black" mask="url(#path-1-outside-1)"/>
<path d="M24.1206 10.8212V11.5342H33.1664V10.8212C33.1664 10.4072 33.1277 10.0238 33.0504 9.67114C32.9886 9.31847 32.9035 8.9888 32.7953 8.68213L31.1949 4.93307C31.0248 4.53439 30.847 4.20472 30.6614 3.94405C30.4758 3.66804 30.1666 3.53004 29.7336 3.53004H27.4606C26.9967 3.53004 26.672 3.66804 26.4864 3.94405C26.3009 4.20472 26.1308 4.52673 25.9761 4.91007L24.4917 8.68213C24.3835 8.9888 24.2907 9.31847 24.2134 9.67114C24.1515 10.0238 24.1206 10.4072 24.1206 10.8212ZM27.8317 6.06008C27.8935 5.92208 27.9554 5.82241 28.0172 5.76108C28.0946 5.69975 28.1796 5.66908 28.2724 5.66908H28.8522C28.945 5.66908 29.0223 5.69975 29.0842 5.76108C29.1615 5.82241 29.2311 5.92208 29.2929 6.06008L30.3831 9.55614H26.7416L27.8317 6.06008ZM33.1664 15.7202V11.7642H24.1206V15.7202H23.8887V10.8212C23.8887 10.3918 23.9196 10.0008 23.9814 9.64814C24.0587 9.28014 24.1593 8.92747 24.283 8.59013L25.7674 4.81806C25.9375 4.38872 26.1308 4.02838 26.3472 3.73705C26.5637 3.44571 26.9348 3.30004 27.4606 3.30004H29.7336C30.2439 3.30004 30.5995 3.44571 30.8006 3.73705C31.017 4.02838 31.2181 4.39639 31.4036 4.84106L33.004 8.59013C33.1277 8.92747 33.2205 9.28014 33.2824 9.64814C33.3597 10.0008 33.3983 10.3918 33.3983 10.8212V15.7202H33.1664ZM26.5096 16.9623V13.7422H30.615V16.9623C30.615 17.2536 30.6846 17.4683 30.8238 17.6063C30.9784 17.7289 31.2103 17.7903 31.5196 17.7903H35.0219C35.3157 17.7903 35.5245 17.7289 35.6482 17.6063C35.7873 17.4683 35.8569 17.2536 35.8569 16.9623V10.8902C35.8569 10.4302 35.7796 9.90115 35.625 9.30314C35.4858 8.70513 35.2616 8.00745 34.9524 7.2101L32.9344 1.98902C32.8417 1.72834 32.6948 1.53668 32.4938 1.41401C32.3082 1.29134 32.0685 1.23 31.7747 1.23H25.5354C25.2262 1.23 24.9711 1.29134 24.77 1.41401C24.5845 1.53668 24.4453 1.72834 24.3525 1.98902L22.3346 7.2101C22.0254 8.00745 21.7934 8.70513 21.6388 9.30314C21.4996 9.90115 21.4301 10.4302 21.4301 10.8902V16.9623C21.4301 17.2536 21.4919 17.4683 21.6156 17.6063C21.7548 17.7289 21.9713 17.7903 22.265 17.7903H25.6746C25.9684 17.7903 26.1772 17.7289 26.3009 17.6063C26.44 17.4683 26.5096 17.2536 26.5096 16.9623ZM23.4016 20.2973C23.3397 20.3587 23.2392 20.4123 23.1 20.4583C22.9763 20.5043 22.8372 20.5273 22.6825 20.5273H19.273C18.9019 20.5273 18.6313 20.443 18.4612 20.2743C18.2911 20.1057 18.206 19.8373 18.206 19.4693V13.3972C18.206 12.9219 18.2756 12.3852 18.4148 11.7872C18.5694 11.1738 18.8091 10.4532 19.1338 9.62514L21.1285 4.42706C21.1749 4.28905 21.229 4.17405 21.2909 4.08205C21.3682 3.97472 21.4455 3.88271 21.5228 3.80605L21.546 3.78305L24.5149 1.32201C24.6386 1.21467 24.7855 1.138 24.9556 1.092C25.1257 1.03067 25.319 1 25.5354 1H31.7747C32.1304 1 32.4164 1.07667 32.6329 1.23C32.8649 1.36801 33.035 1.59034 33.1432 1.89701L35.1611 7.1181C35.4858 7.94612 35.7178 8.66679 35.8569 9.28014C36.0116 9.87815 36.0889 10.4148 36.0889 10.8902V16.9623C36.0889 17.1616 36.058 17.3303 35.9961 17.4683C35.9497 17.6063 35.8724 17.7213 35.7642 17.8133L32.7489 20.2973C32.687 20.3587 32.5865 20.4123 32.4474 20.4583C32.3237 20.5043 32.1845 20.5273 32.0299 20.5273H28.5275C28.1409 20.5273 27.8549 20.4353 27.6693 20.2513C27.4838 20.0827 27.391 19.822 27.391 19.4693V16.4793H26.7416V16.9623C26.7416 17.1616 26.7106 17.3303 26.6488 17.4683C26.6024 17.6063 26.5251 17.7213 26.4168 17.8133L23.4016 20.2973Z" stroke="black" mask="url(#path-1-outside-1)"/>
<path d="M44.0927 3.48404L52.6283 13.0062V3.30004H52.8602V15.7202H52.6283V13.3512L43.8608 3.59904C43.8453 3.58371 43.8221 3.56838 43.7912 3.55304C43.7757 3.53771 43.7603 3.53004 43.7448 3.53004C43.7294 3.53004 43.7139 3.53771 43.6984 3.55304C43.6984 3.56838 43.6984 3.58371 43.6984 3.59904V15.7202H43.4665V3.55304C43.4665 3.46104 43.4974 3.39204 43.5593 3.34604C43.6211 3.30004 43.683 3.27704 43.7448 3.27704C43.8067 3.27704 43.8608 3.29237 43.9072 3.32304C43.9536 3.35371 44.0154 3.40737 44.0927 3.48404ZM45.3452 17.7903C45.639 17.7903 45.8478 17.7289 45.9715 17.6063C46.1106 17.4683 46.1802 17.2536 46.1802 16.9623V9.37214L50.1465 14.1332V16.9623C50.1465 17.2536 50.2083 17.4683 50.332 17.6063C50.4712 17.7289 50.6877 17.7903 50.9815 17.7903H54.4606C54.7544 17.7903 54.9632 17.7289 55.0869 17.6063C55.226 17.4683 55.2956 17.2536 55.2956 16.9623V2.05802C55.2956 1.76668 55.226 1.55968 55.0869 1.43701C54.9632 1.299 54.7544 1.23 54.4606 1.23H50.9815C50.6877 1.23 50.4712 1.299 50.332 1.43701C50.2083 1.55968 50.1465 1.76668 50.1465 2.05802V6.9571L45.6468 1.85101C45.4457 1.62101 45.237 1.46001 45.0205 1.36801C44.8195 1.276 44.5721 1.23 44.2783 1.23H41.8661C41.5723 1.23 41.3558 1.299 41.2166 1.43701C41.0929 1.55968 41.0311 1.76668 41.0311 2.05802V16.9623C41.0311 17.2536 41.0929 17.4683 41.2166 17.6063C41.3558 17.7289 41.5723 17.7903 41.8661 17.7903H45.3452ZM46.0875 17.8133L43.0722 20.2973C43.0103 20.3587 42.9098 20.4123 42.7707 20.4583C42.647 20.5043 42.5078 20.5273 42.3532 20.5273H38.874C38.5029 20.5273 38.2323 20.443 38.0622 20.2743C37.8921 20.1057 37.8071 19.8373 37.8071 19.4693V4.56506C37.8071 4.36572 37.8303 4.19705 37.8767 4.05905C37.9385 3.92105 38.0235 3.80605 38.1318 3.71404L41.1239 1.207C41.2012 1.14567 41.3017 1.09967 41.4254 1.069C41.5646 1.023 41.7115 1 41.8661 1H44.2783C44.6185 1 44.9045 1.05367 45.1365 1.161C45.3684 1.26834 45.6004 1.44467 45.8323 1.69001L47.4327 3.53004L50.2392 1.207C50.3166 1.14567 50.4171 1.09967 50.5408 1.069C50.6799 1.023 50.8268 1 50.9815 1H54.4606C54.8317 1 55.1023 1.08433 55.2724 1.253C55.4425 1.42167 55.5276 1.69001 55.5276 2.05802V16.9623C55.5276 17.1616 55.4966 17.3303 55.4348 17.4683C55.3884 17.6063 55.3111 17.7213 55.2028 17.8133L52.1876 20.2973C52.1257 20.3587 52.0252 20.4123 51.886 20.4583C51.7623 20.5043 51.6232 20.5273 51.4685 20.5273H47.9894C47.6183 20.5273 47.3477 20.443 47.1776 20.2743C47.0075 20.1057 46.9224 19.8373 46.9224 19.4693V16.7323L46.4122 16.1113V16.9623C46.4122 17.1616 46.3812 17.3303 46.3194 17.4683C46.273 17.6063 46.1957 17.7213 46.0875 17.8133Z" stroke="black" mask="url(#path-1-outside-1)"/>
<path d="M15.2877 46.781C14.8084 47.1797 14.1976 47.4787 13.4554 47.678C12.7131 47.8927 11.8395 48 10.8344 48H3.01791C2.6468 48 2.3762 47.9157 2.20611 47.747C2.03601 47.5783 1.95097 47.31 1.95097 46.942V32.0377C1.95097 31.8384 1.97416 31.6697 2.02055 31.5317C2.0824 31.3937 2.16745 31.2787 2.27569 31.1867L5.26776 28.6797C5.34507 28.6183 5.44558 28.5723 5.56929 28.5417C5.70845 28.4957 5.85535 28.4727 6.00998 28.4727H13.8265C15.8521 28.4727 17.3443 28.879 18.303 29.6917C19.2771 30.5044 19.7642 31.7387 19.7642 33.3948V40.5709C19.7642 41.3989 19.6405 42.1272 19.3931 42.7559C19.1457 43.3693 18.7823 43.8829 18.303 44.2969L15.2877 46.781ZM13.8265 45.263C15.7593 45.263 17.1897 44.8796 18.1174 44.1129C19.0607 43.3463 19.5323 42.1656 19.5323 40.5709V33.3948C19.5323 31.8001 19.0607 30.6194 18.1174 29.8527C17.1897 29.086 15.7593 28.7027 13.8265 28.7027H6.00998C5.71618 28.7027 5.4997 28.7717 5.36054 28.9097C5.23683 29.0324 5.17498 29.2394 5.17498 29.5307V44.4349C5.17498 44.7263 5.23683 44.941 5.36054 45.079C5.4997 45.2016 5.71618 45.263 6.00998 45.263H13.8265ZM7.70317 43.1929V30.7727H13.3162C14.1048 30.7727 14.7388 30.8571 15.2181 31.0257C15.7129 31.1944 16.0918 31.4244 16.3547 31.7157C16.6175 31.9917 16.7954 32.3291 16.8881 32.7278C16.9809 33.1111 17.0273 33.5251 17.0273 33.9698V40.0649C17.0273 40.5095 16.9809 40.9236 16.8881 41.3069C16.8108 41.6902 16.6407 42.0199 16.3779 42.2959C16.115 42.5719 15.7361 42.7943 15.2413 42.9629C14.7465 43.1163 14.1048 43.1929 13.3162 43.1929H7.70317ZM13.3162 31.0027H7.93511V42.9629H13.3162C14.0584 42.9629 14.6537 42.8939 15.1022 42.7559C15.566 42.6026 15.9217 42.4032 16.1691 42.1579C16.4165 41.8972 16.5789 41.5906 16.6562 41.2379C16.749 40.8699 16.7954 40.4789 16.7954 40.0649V33.9698C16.7954 33.5558 16.749 33.1648 16.6562 32.7967C16.5634 32.4287 16.3933 32.1144 16.1459 31.8537C15.8985 31.5931 15.5429 31.3861 15.079 31.2327C14.6305 31.0794 14.043 31.0027 13.3162 31.0027ZM10.4401 33.0958H13.2002C13.5713 33.0958 13.8419 33.1878 14.012 33.3718C14.1976 33.5404 14.2904 33.8164 14.2904 34.1998V39.7889C14.2904 40.1722 14.1976 40.4559 14.012 40.6399C13.8419 40.8239 13.5713 40.9159 13.2002 40.9159H10.4401V33.0958ZM11.0663 36.7068C11.0663 36.5075 11.0354 36.3388 10.9736 36.2008C10.9117 36.0628 10.8112 35.9631 10.672 35.9018V40.6859H11.0663V36.7068Z" stroke="black" mask="url(#path-1-outside-1)"/>
<path d="M33.3956 48H22.6334C22.2623 48 21.9917 47.9157 21.8216 47.747C21.6515 47.5783 21.5665 47.31 21.5665 46.942V32.0377C21.5665 31.8384 21.5897 31.6697 21.6361 31.5317C21.6979 31.3937 21.783 31.2787 21.8912 31.1867L24.8833 28.6797C24.9606 28.6183 25.0611 28.5723 25.1848 28.5417C25.324 28.4957 25.4709 28.4727 25.6255 28.4727H36.3877C36.7588 28.4727 37.0294 28.557 37.1995 28.7257C37.3696 28.8944 37.4546 29.1627 37.4546 29.5307V32.2217C37.4546 32.4211 37.4237 32.5897 37.3618 32.7278C37.3155 32.8658 37.2381 32.9808 37.1299 33.0728L35.1352 34.7058C35.2898 34.7824 35.3981 34.8975 35.4599 35.0508C35.5372 35.2041 35.5759 35.4035 35.5759 35.6488V38.1098C35.5759 38.3092 35.545 38.4778 35.4831 38.6158C35.4367 38.7538 35.3594 38.8689 35.2512 38.9609L33.1869 40.6859H36.3877C36.7588 40.6859 37.0294 40.7702 37.1995 40.9389C37.3696 41.1076 37.4546 41.3759 37.4546 41.7439V44.4349C37.4546 44.6343 37.4237 44.803 37.3618 44.941C37.3155 45.079 37.2381 45.194 37.1299 45.286L34.1146 47.77C34.0528 47.8313 33.9523 47.885 33.8131 47.931C33.6894 47.977 33.5502 48 33.3956 48ZM36.3877 45.263C36.6815 45.263 36.8902 45.2016 37.0139 45.079C37.1531 44.941 37.2227 44.7263 37.2227 44.4349V41.7439C37.2227 41.4526 37.1531 41.2456 37.0139 41.1229C36.8902 40.9849 36.6815 40.9159 36.3877 40.9159H29.986V38.9379H34.5089C34.8027 38.9379 35.0115 38.8765 35.1352 38.7538C35.2744 38.6158 35.3439 38.4012 35.3439 38.1098V35.6488C35.3439 35.3575 35.2744 35.1505 35.1352 35.0278C35.0115 34.8898 34.8027 34.8208 34.5089 34.8208H29.986V33.0498H36.3877C36.6815 33.0498 36.8902 32.9884 37.0139 32.8658C37.1531 32.7277 37.2227 32.5131 37.2227 32.2217V29.5307C37.2227 29.2394 37.1531 29.0324 37.0139 28.9097C36.8902 28.7717 36.6815 28.7027 36.3877 28.7027H25.6255C25.3317 28.7027 25.1152 28.7717 24.9761 28.9097C24.8524 29.0324 24.7905 29.2394 24.7905 29.5307V44.4349C24.7905 44.7263 24.8524 44.941 24.9761 45.079C25.1152 45.2016 25.3317 45.263 25.6255 45.263H36.3877ZM35.1352 42.9629V43.1929H27.3187V30.7727H35.1352V31.0027H27.5506V36.7758H33.2564V37.0058H27.5506V42.9629H35.1352Z" stroke="black" mask="url(#path-1-outside-1)"/>
<path d="M50.4413 36.4078C50.7196 36.4078 50.9206 36.3465 51.0443 36.2238C51.168 36.1011 51.3613 35.8405 51.6242 35.4418L54.4539 31.1637C54.5467 31.0104 54.6472 30.9107 54.7554 30.8647C54.8791 30.8034 55.0028 30.7727 55.1265 30.7727H55.5208C55.7373 30.7727 55.892 30.8341 55.9847 30.9567C56.093 31.0641 56.1471 31.2404 56.1471 31.4857V43.1929H55.9151V31.4857C55.9151 31.3631 55.8842 31.2557 55.8224 31.1637C55.776 31.0564 55.6755 31.0027 55.5208 31.0027H55.1729C55.0647 31.0027 54.9719 31.0181 54.8946 31.0487C54.8173 31.0794 54.7322 31.1714 54.6395 31.3247L51.8097 35.5568C51.5314 35.9708 51.3149 36.2545 51.1603 36.4078C51.0211 36.5611 50.7815 36.6378 50.4413 36.6378C50.1011 36.6378 49.8537 36.5611 49.6991 36.4078C49.5599 36.2545 49.3512 35.9708 49.0728 35.5568L46.2431 31.3247C46.1503 31.1714 46.0576 31.0794 45.9648 31.0487C45.8875 31.0181 45.7947 31.0027 45.6864 31.0027H45.3385C45.1839 31.0027 45.0834 31.0564 45.037 31.1637C44.9906 31.2557 44.9674 31.3631 44.9674 31.4857V43.1929H44.7355V31.4857C44.7355 31.2404 44.7819 31.0641 44.8746 30.9567C44.9829 30.8341 45.1375 30.7727 45.3385 30.7727H45.7328C45.8565 30.7727 45.9802 30.8034 46.1039 30.8647C46.2276 30.9107 46.3359 31.0104 46.4287 31.1637L49.2584 35.4418C49.5212 35.8405 49.7145 36.1011 49.8382 36.2238C49.9619 36.3465 50.163 36.4078 50.4413 36.4078ZM46.5678 45.263C46.8616 45.263 47.0704 45.2016 47.1941 45.079C47.3332 44.941 47.4028 44.7263 47.4028 44.4349V36.3388L48.7713 38.8459C48.9105 39.1065 49.0728 39.2982 49.2584 39.4209C49.4594 39.5282 49.7068 39.5819 50.0006 39.5819H50.9284C51.2222 39.5819 51.4618 39.5282 51.6474 39.4209C51.8484 39.2982 52.0185 39.1065 52.1577 38.8459L53.5261 36.3388V44.4349C53.5261 44.7263 53.588 44.941 53.7117 45.079C53.8509 45.2016 54.0673 45.263 54.3611 45.263H57.9331C58.2269 45.263 58.4356 45.2016 58.5593 45.079C58.6985 44.941 58.7681 44.7263 58.7681 44.4349V29.5307C58.7681 29.2394 58.6985 29.0324 58.5593 28.9097C58.4356 28.7717 58.2269 28.7027 57.9331 28.7027H54.1756C53.9282 28.7027 53.7194 28.7564 53.5493 28.8637C53.3947 28.971 53.2478 29.1474 53.1086 29.3927L51.0443 33.1418C50.967 33.2798 50.8974 33.3794 50.8356 33.4408C50.7892 33.5021 50.7196 33.5328 50.6268 33.5328H50.4181C50.3253 33.5328 50.248 33.5021 50.1861 33.4408C50.1398 33.3794 50.0779 33.2798 50.0006 33.1418L47.9131 29.3927C47.7739 29.1474 47.6193 28.971 47.4492 28.8637C47.2946 28.7564 47.0936 28.7027 46.8462 28.7027H43.1119C42.8181 28.7027 42.6016 28.7717 42.4624 28.9097C42.3387 29.0324 42.2769 29.2394 42.2769 29.5307V44.4349C42.2769 44.7263 42.3387 44.941 42.4624 45.079C42.6016 45.2016 42.8181 45.263 43.1119 45.263H46.5678ZM47.3101 45.286L44.2948 47.77C44.2329 47.8313 44.1324 47.885 43.9933 47.931C43.8696 47.977 43.7304 48 43.5758 48H40.1198C39.7487 48 39.4781 47.9157 39.308 47.747C39.1379 47.5783 39.0529 47.31 39.0529 46.942V32.0377C39.0529 31.8384 39.0761 31.6697 39.1224 31.5317C39.1843 31.3937 39.2693 31.2787 39.3776 31.1867L42.3697 28.6797C42.447 28.6183 42.5475 28.5723 42.6712 28.5417C42.8103 28.4957 42.9572 28.4727 43.1119 28.4727H46.8462C47.14 28.4727 47.3796 28.534 47.5652 28.6567C47.7662 28.7794 47.9518 28.9864 48.1218 29.2777L49.6991 32.1527L49.9078 31.7847C49.9697 31.6774 50.0315 31.5777 50.0934 31.4857C50.1707 31.3784 50.248 31.2941 50.3253 31.2327L53.3174 28.7487C53.4411 28.6567 53.5648 28.5877 53.6885 28.5417C53.8277 28.4957 53.99 28.4727 54.1756 28.4727H57.9331C58.3042 28.4727 58.5748 28.557 58.7449 28.7257C58.915 28.8944 59 29.1627 59 29.5307V44.4349C59 44.6343 58.9691 44.803 58.9072 44.941C58.8608 45.079 58.7835 45.194 58.6753 45.286L55.66 47.77C55.5982 47.8313 55.4977 47.885 55.3585 47.931C55.2348 47.977 55.0956 48 54.941 48H51.3691C50.9825 48 50.7042 47.9157 50.5341 47.747C50.3794 47.5783 50.3021 47.31 50.3021 46.942V40.8699L48.9337 41.9969C48.8099 42.1042 48.6631 42.1886 48.493 42.2499C48.3383 42.2959 48.1528 42.3189 47.9363 42.3189H47.6348V44.4349C47.6348 44.6343 47.6038 44.803 47.542 44.941C47.4956 45.079 47.4183 45.194 47.3101 45.286Z" stroke="black" mask="url(#path-1-outside-1)"/>
</svg>
