<svg width="69" height="43" viewBox="0 0 69 43" fill="none" xmlns="http://www.w3.org/2000/svg">
<path fill-rule="evenodd" clip-rule="evenodd" d="M25.4687 39.9349L25.1321 36.4296L26.0214 36.2573L26.358 39.7627L25.4687 39.9349Z" fill="#32D95C" fill-opacity="0.7"/>
<path fill-rule="evenodd" clip-rule="evenodd" d="M38.5096 39.9349L38.0047 36.4296L39.3386 36.2573L39.8435 39.7627L38.5096 39.9349Z" fill="#32D95C" fill-opacity="0.7"/>
<path fill-rule="evenodd" clip-rule="evenodd" d="M28.1968 40.5478H24.5192V38.709H28.1968V40.5478Z" fill="#32D95C" fill-opacity="0.7"/>
<path fill-rule="evenodd" clip-rule="evenodd" d="M40.4564 40.5478H38.0047V38.709H40.4564V40.5478Z" fill="#32D95C" fill-opacity="0.7"/>
<path fill-rule="evenodd" clip-rule="evenodd" d="M58.1438 4.97352C58.4577 4.90473 58.8026 4.77218 59.1166 4.54468C59.6649 4.14736 60.072 3.49101 60.072 2.54346H58.7514C58.7514 3.05785 58.5532 3.3152 58.3449 3.46612C58.103 3.64143 57.7929 3.70636 57.5959 3.70636H47.1963C46.9426 3.70636 46.6868 3.75952 46.465 3.90457C46.2353 4.05483 46.0986 4.267 46.0309 4.47985C45.9182 4.83438 45.9931 5.18651 46.0698 5.40012L46.2284 6.03878L53.66 31.9665L54.9289 31.5981L47.5039 5.69332L47.3404 5.0354H56.435C56.7633 5.26095 57.5472 6.07036 57.7655 7.93725C57.8791 8.90952 57.6116 9.35142 57.3784 9.56149C57.113 9.80056 56.7444 9.87332 56.4874 9.85485L56.4639 9.85316H53.7992V11.1822H56.4189C56.9315 11.2131 57.6705 11.0819 58.2591 10.5519C58.8897 9.98388 59.2275 9.06905 59.077 7.78196C58.934 6.5585 58.5687 5.63357 58.1438 4.97352ZM47.2942 4.86054C47.2942 4.86054 47.2942 4.86077 47.2941 4.86121ZM47.144 5.03916C47.1435 5.03931 47.1432 5.03937 47.1432 5.03936Z" fill="#32D95C" fill-opacity="0.7"/>
<path fill-rule="evenodd" clip-rule="evenodd" d="M46.1362 19.4264L28.3149 30.7401L27.5841 29.6792L48.1207 16.6416L49.0384 17.5233L40.5919 29.7659L39.4873 29.0635L46.1362 19.4264Z" fill="#32D95C" fill-opacity="0.7"/>
<path fill-rule="evenodd" clip-rule="evenodd" d="M19.8022 16.6416H49.6513V17.9266H20.5303C17.874 21.9794 12.6413 29.915 11.5916 31.3146C11.4027 31.5665 11.2864 31.7589 11.2176 31.9004H21.6571V33.1854H11.0912C10.9185 33.2012 10.702 33.1928 10.4876 33.1149C10.2337 33.0226 9.97469 32.825 9.86212 32.4878C9.75944 32.1802 9.81427 31.859 9.92481 31.5689C10.0379 31.2721 10.2353 30.9382 10.5198 30.5588C11.564 29.1668 17.0026 20.9157 19.6069 16.9396L19.8022 16.6416Z" fill="#32D95C" fill-opacity="0.7"/>
<path fill-rule="evenodd" clip-rule="evenodd" d="M38.4237 1.67041C38.9791 2.04239 39.3045 2.69098 39.2154 3.58349C39.0524 5.21739 37.9335 5.98195 37.2526 6.17806C36.5035 6.49442 35.3178 6.9484 34.1252 7.31086C33.5174 7.49557 32.8982 7.65949 32.3284 7.76867C32.1072 7.81106 31.8865 7.84662 31.6717 7.87145L32.8039 12.2692C33.2211 13.6589 36.4989 23.8849 38.1773 29.1004L36.897 29.5144C35.2172 24.2945 31.9178 14.0016 31.5116 12.6443C31.2087 11.6322 30.5064 11.209 30.208 11.102H27.0854C27.0178 11.443 26.8659 11.8037 26.5885 12.1297C26.0647 12.745 25.1906 13.1248 23.9159 13.1248V11.7763C24.9282 11.7763 25.3714 11.4818 25.5651 11.2543C25.7722 11.011 25.8045 10.7169 25.7748 10.5386L25.7657 10.4835V10.4277C25.7657 10.1765 25.6984 9.79975 25.5252 9.51037C25.3731 9.2562 25.1542 9.07917 24.7567 9.07917V7.73062C25.7045 7.73062 26.3264 8.22787 26.6788 8.81655C26.8607 9.12053 26.9732 9.449 27.0376 9.75345H30.3889L30.4692 9.77358C30.5687 9.79852 30.681 9.83639 30.8016 9.88837L30.2953 7.92181C29.7332 7.91811 29.0622 7.83406 28.4566 7.58881C28.0322 7.41693 27.6084 7.1529 27.2888 6.75024C26.9615 6.33788 26.7747 5.81856 26.7747 5.20209C26.7747 4.80653 26.7652 4.46374 26.7566 4.14934C26.7525 4.00039 26.7485 3.8578 26.7459 3.71901C26.7381 3.31427 26.7397 2.9155 26.8098 2.57818C26.8854 2.21474 27.0567 1.84456 27.4404 1.59933C27.7858 1.37851 28.2066 1.32501 28.6245 1.32501H37.0024C37.3812 1.29375 37.9439 1.34908 38.4237 1.67041ZM19.5147 3.1289C19.36 3.02529 19.1199 2.98914 18.9379 3.00739L18.9045 3.01074H10.4628C10.1293 3.01074 10.0226 3.06093 10.0029 3.07299C9.99773 3.0817 9.98102 3.11418 9.96518 3.1904C9.93018 3.35878 9.92127 3.61322 9.92927 4.03025C9.93157 4.14992 9.93519 4.28201 9.9391 4.42488C9.94795 4.74765 9.9583 5.12543 9.9583 5.53927C9.9583 5.86678 10.0517 6.08635 10.1799 6.24783C10.3157 6.419 10.5226 6.56375 10.7988 6.67563C11.3653 6.90501 12.0875 6.94073 12.582 6.89116L12.6464 6.88471L12.7108 6.89067C12.9864 6.9162 13.3958 6.88062 13.9142 6.78128C14.422 6.68397 14.9926 6.53396 15.5732 6.3575C16.7345 6.00453 17.8974 5.5576 18.6085 5.25556L18.6569 5.23503L18.7078 5.22227C18.9312 5.16628 19.6137 4.80337 19.7151 3.78649C19.7396 3.54114 19.7042 3.3944 19.6675 3.31049C19.6321 3.22953 19.581 3.17331 19.5147 3.1289ZM20.262 2.00758C20.8175 2.37957 21.1428 3.02816 21.0538 3.92067C20.8908 5.55457 19.7718 6.31913 19.0909 6.51524C18.3418 6.8316 17.1561 7.28558 15.9635 7.64803C15.3558 7.83275 14.7366 7.99666 14.1668 8.10585C13.8584 8.16494 13.551 8.21074 13.2594 8.23275C13.2536 8.5397 13.2847 8.86611 13.3756 9.14079C13.4479 9.35914 13.5452 9.50659 13.6535 9.59775C13.7517 9.68029 13.9013 9.75345 14.1624 9.75345H17.104L17.1843 9.77358C17.836 9.93689 19.0359 10.655 19.5153 12.2568C19.9162 13.5966 23.2089 23.8691 24.8924 29.1004L23.612 29.5144C21.9322 24.2945 18.6329 14.0016 18.2267 12.6443C17.9238 11.6322 17.2215 11.209 16.923 11.102H14.1624C13.6162 11.102 13.1521 10.9364 12.7888 10.6308C12.4358 10.3339 12.2241 9.9441 12.0988 9.56543C11.9564 9.1353 11.9094 8.67209 11.9137 8.25349C11.4015 8.23124 10.8233 8.13997 10.2949 7.92599C9.87048 7.75411 9.4467 7.49008 9.12712 7.08742C8.79983 6.67506 8.61299 6.15574 8.61299 5.53927C8.61299 5.1437 8.60355 4.80091 8.5949 4.48651C8.5908 4.33756 8.58687 4.19498 8.58421 4.05618C8.57645 3.65145 8.57804 3.25268 8.64815 2.91536C8.72368 2.55192 8.89506 2.18174 9.2787 1.93651C9.62416 1.71569 10.045 1.66219 10.4628 1.66219H18.8407C19.2195 1.63093 19.7822 1.68626 20.262 2.00758Z" fill="#32D95C" fill-opacity="0.7"/>
<path fill-rule="evenodd" clip-rule="evenodd" d="M25.1318 29.6087C23.4913 29.6087 22.1615 30.9386 22.1615 32.5791C22.1615 34.2196 23.4913 35.5495 25.1318 35.5495C26.7723 35.5495 28.1022 34.2196 28.1022 32.5791C28.1022 30.9386 26.7723 29.6087 25.1318 29.6087ZM20.8413 32.5791C20.8413 30.2095 22.7622 28.2886 25.1318 28.2886C27.5014 28.2886 29.4224 30.2095 29.4224 32.5791C29.4224 34.9487 27.5014 36.8696 25.1318 36.8696C22.7622 36.8696 20.8413 34.9487 20.8413 32.5791Z" fill="#32D95C" fill-opacity="0.7"/>
<path fill-rule="evenodd" clip-rule="evenodd" d="M38.3108 29.6087C36.5531 29.6087 35.1283 30.9386 35.1283 32.5791C35.1283 34.2196 36.5531 35.5495 38.3108 35.5495C40.0685 35.5495 41.4933 34.2196 41.4933 32.5791C41.4933 30.9386 40.0685 29.6087 38.3108 29.6087ZM33.7138 32.5791C33.7138 30.2095 35.772 28.2886 38.3108 28.2886C40.8496 28.2886 42.9078 30.2095 42.9078 32.5791C42.9078 34.9487 40.8496 36.8696 38.3108 36.8696C35.772 36.8696 33.7138 34.9487 33.7138 32.5791Z" fill="#32D95C" fill-opacity="0.7"/>
<path fill-rule="evenodd" clip-rule="evenodd" d="M53.9422 23.5033C48.9296 23.5033 44.8661 27.5668 44.8661 32.5793C44.8661 37.5919 48.9296 41.6554 53.9422 41.6554C58.9548 41.6554 63.0182 37.5919 63.0182 32.5793C63.0182 27.5668 58.9548 23.5033 53.9422 23.5033ZM43.5215 32.5793C43.5215 26.8242 48.187 22.1587 53.9422 22.1587C59.6974 22.1587 64.3628 26.8242 64.3628 32.5793C64.3628 38.3345 59.6974 43 53.9422 43C48.187 43 43.5215 38.3345 43.5215 32.5793Z" fill="#32D95C" fill-opacity="0.7"/>
<path fill-rule="evenodd" clip-rule="evenodd" d="M10.4206 23.5033C5.40808 23.5033 1.3446 27.5668 1.3446 32.5793C1.3446 37.5919 5.40808 41.6554 10.4206 41.6554C15.4332 41.6554 19.4967 37.5919 19.4967 32.5793C19.4967 27.5668 15.4332 23.5033 10.4206 23.5033ZM0 32.5793C0 26.8242 4.66548 22.1587 10.4206 22.1587C16.1758 22.1587 20.8413 26.8242 20.8413 32.5793C20.8413 38.3345 16.1758 43 10.4206 43C4.66548 43 0 38.3345 0 32.5793Z" fill="#32D95C" fill-opacity="0.7"/>
<path fill-rule="evenodd" clip-rule="evenodd" d="M60.0718 1.31738V2.54325H58.233V1.31738H60.0718Z" fill="#32D95C" fill-opacity="0.7"/>
<path fill-rule="evenodd" clip-rule="evenodd" d="M34.9394 33.1922H29.423V31.9663H34.9394V33.1922Z" fill="#32D95C" fill-opacity="0.7"/>
<path fill-rule="evenodd" clip-rule="evenodd" d="M30.0799 38.6175L29.7433 35.1122L30.6326 34.9399L30.9692 38.4453L30.0799 38.6175Z" fill="black"/>
<path fill-rule="evenodd" clip-rule="evenodd" d="M43.1208 38.6175L42.6159 35.1122L43.9498 34.9399L44.4547 38.4453L43.1208 38.6175Z" fill="black"/>
<path fill-rule="evenodd" clip-rule="evenodd" d="M32.8079 39.2304H29.1303V37.3916H32.8079V39.2304Z" fill="black"/>
<path fill-rule="evenodd" clip-rule="evenodd" d="M45.0676 39.2304H42.6159V37.3916H45.0676V39.2304Z" fill="black"/>
<path fill-rule="evenodd" clip-rule="evenodd" d="M62.7549 3.65614C63.0688 3.58735 63.4137 3.4548 63.7277 3.2273C64.276 2.82998 64.6831 2.17362 64.6831 1.22607H63.3625C63.3625 1.74046 63.1643 1.99782 62.956 2.14874C62.7141 2.32405 62.4039 2.38898 62.207 2.38898H51.8074C51.5537 2.38898 51.2979 2.44214 51.0761 2.58719C50.8464 2.73745 50.7097 2.94961 50.642 3.16246C50.5293 3.517 50.6042 3.86913 50.6809 4.08274L50.8395 4.7214L58.2711 30.6491L59.5399 30.2807L52.1149 4.37594L51.9515 3.71802H61.0461C61.3743 3.94357 62.1583 4.75298 62.3766 6.61987C62.4902 7.59214 62.2227 8.03404 61.9895 8.2441C61.724 8.48318 61.3555 8.55594 61.0985 8.53747L61.075 8.53578H58.4103V9.86482H61.03C61.5426 9.89575 62.2816 9.76457 62.8701 9.23447C63.5008 8.6665 63.8386 7.75167 63.6881 6.46458C63.5451 5.24112 63.1798 4.31618 62.7549 3.65614ZM51.9053 3.54316C51.9053 3.54316 51.9053 3.54339 51.9052 3.54383ZM51.7551 3.72177C51.7545 3.72192 51.7543 3.72199 51.7543 3.72198Z" fill="black"/>
<path fill-rule="evenodd" clip-rule="evenodd" d="M50.7473 18.109L32.9261 29.4227L32.1953 28.3618L52.7318 15.3242L53.6495 16.2059L45.203 28.4485L44.0984 27.7461L50.7473 18.109Z" fill="black"/>
<path fill-rule="evenodd" clip-rule="evenodd" d="M24.4133 15.3242H54.2625V16.6092H25.1414C22.4852 20.662 17.2525 28.5976 16.2027 29.9972C16.0138 30.2491 15.8975 30.4416 15.8287 30.5831H26.2682V31.868H15.7024C15.5296 31.8838 15.3131 31.8754 15.0988 31.7975C14.8449 31.7052 14.5858 31.5076 14.4733 31.1704C14.3706 30.8629 14.4254 30.5417 14.536 30.2515C14.649 29.9547 14.8464 29.6208 15.131 29.2415C16.1751 27.8494 21.6137 19.5983 24.2181 15.6222L24.4133 15.3242Z" fill="black"/>
<path fill-rule="evenodd" clip-rule="evenodd" d="M43.0348 0.353023C43.5903 0.725008 43.9156 1.3736 43.8266 2.26611C43.6636 3.90001 42.5446 4.66456 41.8637 4.86067C41.1146 5.17703 39.9289 5.63102 38.7363 5.99347C38.1286 6.17819 37.5094 6.3421 36.9396 6.45129C36.7184 6.49368 36.4976 6.52924 36.2829 6.55407L37.415 10.9519C37.8323 12.3415 41.1101 22.5675 42.7884 27.783L41.5081 28.197C39.8283 22.9771 36.5289 12.6842 36.1227 11.3269C35.8199 10.3149 35.1176 9.89159 34.8191 9.78462H31.6965C31.6289 10.1257 31.4771 10.4864 31.1996 10.8123C30.6758 11.4276 29.8017 11.8074 28.527 11.8074V10.4589C29.5394 10.4589 29.9825 10.1645 30.1762 9.93692C30.3833 9.69364 30.4156 9.3995 30.386 9.22119L30.3768 9.16615V9.11034C30.3768 8.85916 30.3096 8.48237 30.1364 8.19299C29.9842 7.93882 29.7653 7.76179 29.3678 7.76179V6.41324C30.3157 6.41324 30.9376 6.91049 31.2899 7.49916C31.4719 7.80315 31.5844 8.13161 31.6488 8.43607H35L35.0804 8.4562C35.1799 8.48114 35.2922 8.51901 35.4127 8.57099L34.9065 6.60443C34.3444 6.60073 33.6733 6.51668 33.0677 6.27143C32.6433 6.09955 32.2195 5.83552 31.8999 5.43286C31.5726 5.0205 31.3858 4.50118 31.3858 3.88471C31.3858 3.48914 31.3764 3.14635 31.3677 2.83196C31.3636 2.683 31.3597 2.54042 31.357 2.40162C31.3493 1.99689 31.3509 1.59812 31.421 1.2608C31.4965 0.897361 31.6679 0.527179 32.0515 0.281948C32.397 0.0611256 32.8178 0.0076242 33.2356 0.0076242H41.6135C41.9923 -0.023629 42.5551 0.0317015 43.0348 0.353023ZM24.1258 1.81152C23.9711 1.7079 23.7311 1.67176 23.549 1.69001L23.5157 1.69335H15.0739C14.7405 1.69335 14.6338 1.74355 14.6141 1.7556C14.6089 1.76431 14.5922 1.7968 14.5763 1.87302C14.5413 2.0414 14.5324 2.29583 14.5404 2.71287C14.5427 2.83254 14.5463 2.96463 14.5502 3.1075C14.5591 3.43027 14.5694 3.80805 14.5694 4.22188C14.5694 4.54939 14.6629 4.76897 14.791 4.93044C14.9269 5.10162 15.1337 5.24637 15.41 5.35824C15.9764 5.58763 16.6986 5.62335 17.1931 5.57378L17.2575 5.56732L17.3219 5.57329C17.5976 5.59882 18.0069 5.56324 18.5253 5.4639C19.0332 5.36659 19.6037 5.21658 20.1843 5.04012C21.3457 4.68714 22.5085 4.24022 23.2197 3.93818L23.268 3.91765L23.319 3.90488C23.5424 3.84889 24.2248 3.48599 24.3263 2.4691C24.3507 2.22375 24.3154 2.07702 24.2787 1.9931C24.2432 1.91215 24.1921 1.85593 24.1258 1.81152ZM24.8732 0.690202C25.4286 1.06219 25.7539 1.71078 25.6649 2.60329C25.5019 4.23719 24.3829 5.00174 23.7021 5.19785C22.953 5.51421 21.7672 5.9682 20.5747 6.33065C19.9669 6.51537 19.3477 6.67928 18.7779 6.78847C18.4696 6.84755 18.1621 6.89336 17.8706 6.91537C17.8647 7.22232 17.8959 7.54873 17.9868 7.82341C18.059 8.04175 18.1563 8.18921 18.2647 8.28037C18.3628 8.36291 18.5125 8.43607 18.7735 8.43607H21.7151L21.7955 8.4562C22.4471 8.6195 23.647 9.33763 24.1264 10.9394C24.5274 12.2792 27.82 22.5517 29.5035 27.783L28.2232 28.197C26.5434 22.9771 23.244 12.6842 22.8378 11.3269C22.5349 10.3149 21.8326 9.89159 21.5342 9.78462H18.7735C18.2274 9.78462 17.7633 9.61898 17.4 9.31346C17.047 9.01657 16.8352 8.62671 16.7099 8.24805C16.5675 7.81791 16.5206 7.35471 16.5248 6.93611C16.0127 6.91385 15.4344 6.82259 14.906 6.60861C14.4816 6.43673 14.0578 6.1727 13.7383 5.77004C13.411 5.35768 13.2241 4.83836 13.2241 4.22188C13.2241 3.82632 13.2147 3.48353 13.206 3.16913C13.2019 3.02018 13.198 2.8776 13.1954 2.7388C13.1876 2.33407 13.1892 1.9353 13.2593 1.59797C13.3348 1.23454 13.5062 0.864358 13.8898 0.619127C14.2353 0.398305 14.6561 0.344803 15.0739 0.344803H23.4518C23.8307 0.31355 24.3934 0.36888 24.8732 0.690202Z" fill="black"/>
<path fill-rule="evenodd" clip-rule="evenodd" d="M29.743 28.2914C28.1025 28.2914 26.7726 29.6212 26.7726 31.2617C26.7726 32.9022 28.1025 34.2321 29.743 34.2321C31.3835 34.2321 32.7133 32.9022 32.7133 31.2617C32.7133 29.6212 31.3835 28.2914 29.743 28.2914ZM25.4525 31.2617C25.4525 28.8921 27.3734 26.9712 29.743 26.9712C32.1126 26.9712 34.0335 28.8921 34.0335 31.2617C34.0335 33.6313 32.1126 35.5522 29.743 35.5522C27.3734 35.5522 25.4525 33.6313 25.4525 31.2617Z" fill="black"/>
<path fill-rule="evenodd" clip-rule="evenodd" d="M42.9219 28.2914C41.1643 28.2914 39.7394 29.6212 39.7394 31.2617C39.7394 32.9022 41.1643 34.2321 42.9219 34.2321C44.6796 34.2321 46.1045 32.9022 46.1045 31.2617C46.1045 29.6212 44.6796 28.2914 42.9219 28.2914ZM38.325 31.2617C38.325 28.8921 40.3831 26.9712 42.9219 26.9712C45.4608 26.9712 47.5189 28.8921 47.5189 31.2617C47.5189 33.6313 45.4608 35.5522 42.9219 35.5522C40.3831 35.5522 38.325 33.6313 38.325 31.2617Z" fill="black"/>
<path fill-rule="evenodd" clip-rule="evenodd" d="M58.5533 22.1859C53.5407 22.1859 49.4772 26.2494 49.4772 31.262C49.4772 36.2745 53.5407 40.338 58.5533 40.338C63.5658 40.338 67.6293 36.2745 67.6293 31.262C67.6293 26.2494 63.5658 22.1859 58.5533 22.1859ZM48.1326 31.262C48.1326 25.5068 52.7981 20.8413 58.5533 20.8413C64.3084 20.8413 68.9739 25.5068 68.9739 31.262C68.9739 37.0171 64.3084 41.6826 58.5533 41.6826C52.7981 41.6826 48.1326 37.0171 48.1326 31.262Z" fill="black"/>
<path fill-rule="evenodd" clip-rule="evenodd" d="M15.0318 22.1859C10.0192 22.1859 5.95574 26.2494 5.95574 31.262C5.95574 36.2745 10.0192 40.338 15.0318 40.338C20.0444 40.338 24.1078 36.2745 24.1078 31.262C24.1078 26.2494 20.0444 22.1859 15.0318 22.1859ZM4.61115 31.262C4.61115 25.5068 9.27663 20.8413 15.0318 20.8413C20.787 20.8413 25.4524 25.5068 25.4524 31.262C25.4524 37.0171 20.787 41.6826 15.0318 41.6826C9.27663 41.6826 4.61115 37.0171 4.61115 31.262Z" fill="black"/>
<path fill-rule="evenodd" clip-rule="evenodd" d="M64.6829 0V1.22587H62.8441V0H64.6829Z" fill="black"/>
<path fill-rule="evenodd" clip-rule="evenodd" d="M39.5505 31.8748H34.0341V30.6489H39.5505V31.8748Z" fill="black"/>
</svg>
