<svg width="265" height="165" viewBox="0 0 265 165" fill="none" xmlns="http://www.w3.org/2000/svg">
<path fill-rule="evenodd" clip-rule="evenodd" d="M97.73 153.239L96.4385 139.788L99.851 139.127L101.142 152.578L97.73 153.239Z" fill="#32D95C" fill-opacity="0.7"/>
<path fill-rule="evenodd" clip-rule="evenodd" d="M147.771 153.239L145.834 139.788L150.953 139.127L152.89 152.578L147.771 153.239Z" fill="#32D95C" fill-opacity="0.7"/>
<path fill-rule="evenodd" clip-rule="evenodd" d="M108.198 155.591H94.0861V148.535H108.198V155.591Z" fill="#32D95C" fill-opacity="0.7"/>
<path fill-rule="evenodd" clip-rule="evenodd" d="M155.242 155.591H145.834V148.535H155.242V155.591Z" fill="#32D95C" fill-opacity="0.7"/>
<path fill-rule="evenodd" clip-rule="evenodd" d="M223.112 19.0845C224.317 18.8206 225.64 18.3119 226.845 17.439C228.949 15.9144 230.511 13.3958 230.511 9.75977H225.444C225.444 11.7336 224.683 12.7212 223.884 13.3003C222.956 13.973 221.766 14.2221 221.01 14.2221H181.104C180.131 14.2221 179.149 14.4261 178.298 14.9827C177.417 15.5593 176.892 16.3734 176.632 17.1902C176.2 18.5506 176.487 19.9018 176.781 20.7215L177.39 23.1722L205.907 122.663L210.776 121.25L182.284 21.8466L181.657 19.322H216.556C217.815 20.1875 220.823 23.2934 221.661 30.4571C222.097 34.188 221.07 35.8837 220.175 36.6897C219.157 37.6071 217.742 37.8863 216.756 37.8154L216.666 37.809H206.441V42.9088H216.493C218.461 43.0275 221.296 42.5241 223.555 40.49C225.975 38.3106 227.271 34.8001 226.693 29.8612C226.145 25.1665 224.743 21.6173 223.112 19.0845ZM181.48 18.651C181.48 18.651 181.48 18.6519 181.48 18.6536ZM180.903 19.3364C180.901 19.337 180.9 19.3372 180.9 19.3372Z" fill="#32D95C" fill-opacity="0.7"/>
<path fill-rule="evenodd" clip-rule="evenodd" d="M177.036 74.5428L108.652 117.957L105.847 113.885L184.651 63.8569L188.173 67.2401L155.762 114.218L151.523 111.523L177.036 74.5428Z" fill="#32D95C" fill-opacity="0.7"/>
<path fill-rule="evenodd" clip-rule="evenodd" d="M75.9857 63.8569H190.525V68.7876H78.7797C68.5869 84.3393 48.5078 114.79 44.4795 120.161C43.7547 121.128 43.3084 121.866 43.0445 122.409H83.1035V127.34H42.5597C41.8969 127.4 41.0659 127.368 40.2434 127.069C39.2693 126.715 38.2752 125.957 37.8433 124.663C37.4492 123.483 37.6596 122.25 38.0838 121.137C38.5177 119.998 39.2752 118.717 40.3671 117.261C44.3736 111.919 65.2431 80.2575 75.2366 65.0005L75.9857 63.8569Z" fill="#32D95C" fill-opacity="0.7"/>
<path fill-rule="evenodd" clip-rule="evenodd" d="M147.442 6.40835C149.573 7.83575 150.822 10.3246 150.48 13.7494C149.854 20.019 145.561 22.9528 142.948 23.7054C140.073 24.9193 135.524 26.6614 130.947 28.0522C128.615 28.761 126.239 29.39 124.053 29.809C123.204 29.9716 122.357 30.108 121.533 30.2033L125.877 47.0787C127.478 52.4112 140.056 91.6511 146.496 111.664L141.583 113.253C135.138 93.2228 122.477 53.7261 120.918 48.518C119.756 44.6344 117.061 43.0103 115.916 42.5998H103.934C103.674 43.9084 103.092 45.2926 102.027 46.5432C100.017 48.9043 96.6629 50.3619 91.7716 50.3619V45.1871C95.6562 45.1871 97.3568 44.0573 98.1001 43.1842C98.8948 42.2507 99.0186 41.122 98.9049 40.4378L98.8697 40.2266V40.0124C98.8697 39.0486 98.6117 37.6027 97.947 36.4923C97.3632 35.517 96.5232 34.8377 94.998 34.8377V29.6629C98.6352 29.6629 101.022 31.571 102.374 33.8299C103.072 34.9964 103.503 36.2568 103.751 37.4251H116.61L116.918 37.5023C117.3 37.598 117.731 37.7433 118.194 37.9428L116.251 30.3966C114.094 30.3824 111.519 30.0599 109.195 29.1188C107.567 28.4592 105.941 27.4461 104.714 25.901C103.458 24.3186 102.741 22.3259 102.741 19.9603C102.741 18.4424 102.705 17.1271 102.672 15.9207C102.656 15.3491 102.641 14.802 102.631 14.2693C102.601 12.7163 102.607 11.1861 102.876 9.8917C103.166 8.49711 103.824 7.07663 105.296 6.13562C106.622 5.28827 108.236 5.08297 109.84 5.08297H141.988C143.441 4.96304 145.601 5.17536 147.442 6.40835ZM74.8831 12.005C74.2894 11.6074 73.3684 11.4687 72.6698 11.5387L72.5417 11.5515H40.1487C38.8691 11.5515 38.4596 11.7441 38.3841 11.7904C38.3641 11.8238 38.3 11.9485 38.2392 12.241C38.1049 12.8871 38.0707 13.8634 38.1014 15.4637C38.1102 15.9229 38.1241 16.4297 38.1391 16.978C38.1731 18.2165 38.2128 19.6662 38.2128 21.2542C38.2128 22.5109 38.5713 23.3535 39.0631 23.9731C39.5844 24.6299 40.3781 25.1853 41.4382 25.6147C43.6116 26.4949 46.383 26.6319 48.2806 26.4417L48.5276 26.417L48.7749 26.4398C49.8325 26.5378 51.4033 26.4013 53.3925 26.0201C55.3412 25.6467 57.5306 25.0711 59.7585 24.3939C64.215 23.0395 68.6772 21.3245 71.406 20.1655L71.5915 20.0867L71.787 20.0377C72.6443 19.8229 75.263 18.4303 75.6522 14.5283C75.7462 13.5868 75.6104 13.0238 75.4695 12.7018C75.3336 12.3911 75.1375 12.1754 74.8831 12.005ZM77.7509 7.70219C79.8822 9.12959 81.1306 11.6184 80.7889 15.0432C80.1634 21.3129 75.8696 24.2467 73.257 24.9992C70.3825 26.2132 65.8326 27.9552 61.2564 29.346C58.9243 30.0548 56.5483 30.6838 54.3618 31.1028C53.1786 31.3295 51.9989 31.5053 50.88 31.5897C50.8576 32.7676 50.9772 34.0201 51.326 35.0741C51.6033 35.912 51.9765 36.4778 52.3924 36.8276C52.769 37.1443 53.3433 37.4251 54.345 37.4251H65.6326L65.9408 37.5023C68.4414 38.1289 73.0458 40.8846 74.8853 47.031C76.424 52.1723 89.0587 91.5902 95.5187 111.664L90.6057 113.253C84.1599 93.2228 71.4994 53.7261 69.9407 48.518C68.7784 44.6344 66.0836 43.0103 64.9383 42.5998H54.345C52.2493 42.5998 50.4683 41.9642 49.0743 40.7918C47.7198 39.6526 46.9072 38.1566 46.4263 36.7036C45.88 35.053 45.6998 33.2756 45.7161 31.6693C43.7508 31.5839 41.532 31.2337 39.5045 30.4126C37.8758 29.7531 36.2497 28.7399 35.0234 27.1948C33.7675 25.6125 33.0505 23.6197 33.0505 21.2542C33.0505 19.7363 33.0143 18.4209 32.9811 17.2145C32.9654 16.6429 32.9503 16.0958 32.9401 15.5632C32.9103 14.0101 32.9164 12.4799 33.1854 11.1855C33.4753 9.79095 34.1329 8.37047 35.605 7.42946C36.9306 6.58211 38.5454 6.37681 40.1487 6.37681H72.2968C73.7505 6.25688 75.9098 6.4692 77.7509 7.70219Z" fill="#32D95C" fill-opacity="0.7"/>
<path fill-rule="evenodd" clip-rule="evenodd" d="M96.4372 113.615C90.1423 113.615 85.0392 118.718 85.0392 125.013C85.0392 131.308 90.1423 136.411 96.4372 136.411C102.732 136.411 107.835 131.308 107.835 125.013C107.835 118.718 102.732 113.615 96.4372 113.615ZM79.9734 125.013C79.9734 115.92 87.3445 108.549 96.4372 108.549C105.53 108.549 112.901 115.92 112.901 125.013C112.901 134.106 105.53 141.477 96.4372 141.477C87.3445 141.477 79.9734 134.106 79.9734 125.013Z" fill="#32D95C" fill-opacity="0.7"/>
<path fill-rule="evenodd" clip-rule="evenodd" d="M147.008 113.615C140.264 113.615 134.796 118.718 134.796 125.013C134.796 131.308 140.264 136.411 147.008 136.411C153.753 136.411 159.221 131.308 159.221 125.013C159.221 118.718 153.753 113.615 147.008 113.615ZM129.369 125.013C129.369 115.92 137.266 108.549 147.008 108.549C156.751 108.549 164.648 115.92 164.648 125.013C164.648 134.106 156.751 141.477 147.008 141.477C137.266 141.477 129.369 134.106 129.369 125.013Z" fill="#32D95C" fill-opacity="0.7"/>
<path fill-rule="evenodd" clip-rule="evenodd" d="M206.989 90.1854C187.755 90.1854 172.162 105.778 172.162 125.013C172.162 144.247 187.755 159.84 206.989 159.84C226.224 159.84 241.817 144.247 241.817 125.013C241.817 105.778 226.224 90.1854 206.989 90.1854ZM167.003 125.013C167.003 102.929 184.905 85.0259 206.989 85.0259C229.074 85.0259 246.976 102.929 246.976 125.013C246.976 147.097 229.074 164.999 206.989 164.999C184.905 164.999 167.003 147.097 167.003 125.013Z" fill="#32D95C" fill-opacity="0.7"/>
<path fill-rule="evenodd" clip-rule="evenodd" d="M39.9867 90.1854C20.7522 90.1854 5.15957 105.778 5.15957 125.013C5.15957 144.247 20.7522 159.84 39.9867 159.84C59.2211 159.84 74.8138 144.247 74.8138 125.013C74.8138 105.778 59.2211 90.1854 39.9867 90.1854ZM0 125.013C0 102.929 17.9026 85.0259 39.9867 85.0259C62.0707 85.0259 79.9733 102.929 79.9733 125.013C79.9733 147.097 62.0707 164.999 39.9867 164.999C17.9026 164.999 0 147.097 0 125.013Z" fill="#32D95C" fill-opacity="0.7"/>
<path fill-rule="evenodd" clip-rule="evenodd" d="M230.51 5.05371V9.75767H223.454V5.05371H230.51Z" fill="#32D95C" fill-opacity="0.7"/>
<path fill-rule="evenodd" clip-rule="evenodd" d="M134.071 127.366H112.904V122.662H134.071V127.366Z" fill="#32D95C" fill-opacity="0.7"/>
<path fill-rule="evenodd" clip-rule="evenodd" d="M115.424 148.186L114.132 134.735L117.545 134.074L118.836 147.525L115.424 148.186Z" fill="black"/>
<path fill-rule="evenodd" clip-rule="evenodd" d="M165.465 148.186L163.528 134.735L168.647 134.074L170.584 147.525L165.465 148.186Z" fill="black"/>
<path fill-rule="evenodd" clip-rule="evenodd" d="M125.892 150.536H111.78V143.48H125.892V150.536Z" fill="black"/>
<path fill-rule="evenodd" clip-rule="evenodd" d="M172.936 150.536H163.528V143.48H172.936V150.536Z" fill="black"/>
<path fill-rule="evenodd" clip-rule="evenodd" d="M240.806 14.0308C242.011 13.7669 243.334 13.2582 244.539 12.3852C246.643 10.8607 248.205 8.34205 248.205 4.70605H243.138C243.138 6.6799 242.377 7.66745 241.578 8.24654C240.65 8.91925 239.459 9.16843 238.704 9.16843H198.798C197.824 9.16843 196.843 9.3724 195.992 9.92901C195.11 10.5056 194.586 11.3197 194.326 12.1365C193.893 13.4969 194.181 14.8481 194.475 15.6678L195.084 18.1185L223.601 117.61L228.47 116.196L199.978 16.7929L199.351 14.2683H234.249C235.509 15.1338 238.517 18.2397 239.354 25.4034C239.791 29.1343 238.764 30.8299 237.869 31.636C236.851 32.5534 235.436 32.8326 234.45 32.7617L234.36 32.7553H224.135V37.8551H234.187C236.154 37.9738 238.99 37.4704 241.248 35.4363C243.668 33.2569 244.964 29.7464 244.387 24.8075C243.838 20.1128 242.437 16.5636 240.806 14.0308ZM199.173 13.5973C199.173 13.5973 199.173 13.5982 199.173 13.5999ZM198.597 14.2827C198.595 14.2833 198.594 14.2835 198.594 14.2835Z" fill="black"/>
<path fill-rule="evenodd" clip-rule="evenodd" d="M194.73 69.489L126.346 112.903L123.541 108.832L202.345 58.8032L205.867 62.1864L173.456 109.164L169.217 106.469L194.73 69.489Z" fill="black"/>
<path fill-rule="evenodd" clip-rule="evenodd" d="M93.6792 58.8032H208.218V63.7339H96.4733C86.2805 79.2856 66.2014 109.737 62.1731 115.107C61.4482 116.074 61.002 116.812 60.738 117.355H100.797V122.286H60.2533C59.5904 122.347 58.7595 122.314 57.937 122.015C56.9628 121.661 55.9687 120.903 55.5368 119.609C55.1428 118.429 55.3532 117.196 55.7773 116.083C56.2113 114.944 56.9688 113.663 58.0606 112.207C62.0672 106.865 82.9366 75.2038 92.9302 59.9468L93.6792 58.8032Z" fill="black"/>
<path fill-rule="evenodd" clip-rule="evenodd" d="M165.136 1.35464C167.267 2.78204 168.515 5.27086 168.174 8.69564C167.548 14.9653 163.254 17.8991 160.642 18.6516C157.767 19.8656 153.217 21.6077 148.641 22.9985C146.309 23.7073 143.933 24.3363 141.747 24.7552C140.898 24.9179 140.051 25.0543 139.227 25.1496L143.571 42.025C145.172 47.3575 157.75 86.5974 164.19 106.611L159.277 108.199C152.831 88.1691 140.171 48.6724 138.612 43.4643C137.45 39.5807 134.755 37.9566 133.61 37.5461H121.628C121.368 38.8547 120.785 40.2389 119.721 41.4895C117.711 43.8506 114.357 45.3082 109.465 45.3082V40.1334C113.35 40.1334 115.051 39.0036 115.794 38.1305C116.589 37.197 116.712 36.0683 116.599 35.3841L116.564 35.1728V34.9587C116.564 33.9949 116.305 32.549 115.641 31.4386C115.057 30.4633 114.217 29.784 112.692 29.784V24.6092C116.329 24.6092 118.715 26.5173 120.067 28.7762C120.766 29.9427 121.197 31.2031 121.444 32.3713H134.304L134.612 32.4486C134.994 32.5443 135.425 32.6896 135.888 32.8891L133.945 25.3429C131.788 25.3287 129.213 25.0062 126.889 24.0651C125.261 23.4055 123.634 22.3924 122.408 20.8473C121.152 19.2649 120.435 17.2722 120.435 14.9066C120.435 13.3887 120.399 12.0734 120.366 10.8669C120.35 10.2954 120.335 9.74824 120.325 9.21564C120.295 7.66257 120.301 6.13239 120.57 4.83799C120.86 3.4434 121.518 2.02292 122.99 1.0819C124.315 0.234555 125.93 0.029256 127.533 0.029256H159.682C161.135 -0.0906705 163.295 0.121647 165.136 1.35464ZM92.5769 6.95126C91.9832 6.55366 91.0622 6.41496 90.3636 6.48499L90.2355 6.49783H57.8425C56.5629 6.49783 56.1534 6.69043 56.0779 6.7367C56.0579 6.77012 55.9938 6.89477 55.933 7.18724C55.7987 7.83337 55.7645 8.8097 55.7952 10.41C55.804 10.8692 55.8179 11.376 55.8329 11.9242C55.8669 13.1628 55.9066 14.6125 55.9066 16.2004C55.9066 17.4572 56.2651 18.2998 56.7569 18.9194C57.2782 19.5762 58.0719 20.1316 59.132 20.5609C61.3054 21.4411 64.0768 21.5782 65.9744 21.388L66.2214 21.3632L66.4686 21.3861C67.5262 21.4841 69.0971 21.3476 71.0863 20.9664C73.035 20.593 75.2244 20.0173 77.4523 19.3402C81.9088 17.9858 86.371 16.2708 89.0998 15.1118L89.2853 15.033L89.4807 14.984C90.3381 14.7692 92.9568 13.3766 93.346 9.47458C93.4399 8.53311 93.3042 7.97005 93.1633 7.64804C93.0274 7.33741 92.8313 7.12168 92.5769 6.95126ZM95.4447 2.64848C97.576 4.07588 98.8244 6.5647 98.4827 9.98949C97.8572 16.2592 93.5634 19.193 90.9508 19.9455C88.0763 21.1594 83.5263 22.9015 78.9502 24.2923C76.6181 25.0011 74.2421 25.6301 72.0556 26.0491C70.8724 26.2758 69.6927 26.4516 68.5738 26.536C68.5513 27.7139 68.6709 28.9664 69.0198 30.0204C69.2971 30.8583 69.6703 31.4241 70.0862 31.7739C70.4628 32.0906 71.0371 32.3713 72.0388 32.3713H83.3264L83.6346 32.4486C86.1352 33.0752 90.7396 35.8309 92.5791 41.9773C94.1177 47.1186 106.753 86.5365 113.212 106.611L108.299 108.199C101.854 88.1691 89.1932 48.6724 87.6345 43.4643C86.4722 39.5807 83.7774 37.9566 82.6321 37.5461H72.0388C69.943 37.5461 68.1621 36.9105 66.7681 35.7381C65.4135 34.5989 64.601 33.1029 64.1201 31.6499C63.5738 29.9993 63.3936 28.2219 63.4099 26.6156C61.4446 26.5302 59.2258 26.18 57.1982 25.3589C55.5696 24.6994 53.9435 23.6862 52.7171 22.1411C51.4613 20.5588 50.7443 18.566 50.7443 16.2004C50.7443 14.6826 50.7081 13.3672 50.6749 12.1608C50.6592 11.5892 50.6441 11.0421 50.6339 10.5095C50.6041 8.95641 50.6102 7.42623 50.8792 6.13183C51.1691 4.73724 51.8267 3.31676 53.2988 2.37575C54.6244 1.5284 56.2392 1.3231 57.8425 1.3231H89.9906C91.4443 1.20317 93.6036 1.41549 95.4447 2.64848Z" fill="black"/>
<path fill-rule="evenodd" clip-rule="evenodd" d="M114.131 108.561C107.836 108.561 102.733 113.664 102.733 119.959C102.733 126.254 107.836 131.358 114.131 131.358C120.426 131.358 125.529 126.254 125.529 119.959C125.529 113.664 120.426 108.561 114.131 108.561ZM97.6675 119.959C97.6675 110.867 105.039 103.496 114.131 103.496C123.224 103.496 130.595 110.867 130.595 119.959C130.595 129.052 123.224 136.423 114.131 136.423C105.039 136.423 97.6675 129.052 97.6675 119.959Z" fill="black"/>
<path fill-rule="evenodd" clip-rule="evenodd" d="M164.702 108.561C157.958 108.561 152.49 113.664 152.49 119.959C152.49 126.254 157.958 131.358 164.702 131.358C171.447 131.358 176.914 126.254 176.914 119.959C176.914 113.664 171.447 108.561 164.702 108.561ZM147.062 119.959C147.062 110.867 154.96 103.496 164.702 103.496C174.445 103.496 182.342 110.867 182.342 119.959C182.342 129.052 174.445 136.423 164.702 136.423C154.96 136.423 147.062 129.052 147.062 119.959Z" fill="black"/>
<path fill-rule="evenodd" clip-rule="evenodd" d="M224.684 85.1317C205.449 85.1317 189.857 100.724 189.857 119.959C189.857 139.193 205.449 154.786 224.684 154.786C243.918 154.786 259.511 139.193 259.511 119.959C259.511 100.724 243.918 85.1317 224.684 85.1317ZM184.697 119.959C184.697 97.8748 202.6 79.9722 224.684 79.9722C246.768 79.9722 264.67 97.8748 264.67 119.959C264.67 142.043 246.768 159.946 224.684 159.946C202.6 159.946 184.697 142.043 184.697 119.959Z" fill="black"/>
<path fill-rule="evenodd" clip-rule="evenodd" d="M57.6805 85.1317C38.446 85.1317 22.8534 100.724 22.8534 119.959C22.8534 139.193 38.446 154.786 57.6805 154.786C76.9149 154.786 92.5076 139.193 92.5076 119.959C92.5076 100.724 76.9149 85.1317 57.6805 85.1317ZM17.6938 119.959C17.6938 97.8748 35.5964 79.9722 57.6805 79.9722C79.7645 79.9722 97.6671 97.8748 97.6671 119.959C97.6671 142.043 79.7645 159.946 57.6805 159.946C35.5964 159.946 17.6938 142.043 17.6938 119.959Z" fill="black"/>
<path fill-rule="evenodd" clip-rule="evenodd" d="M248.205 0V4.70396H241.149V0H248.205Z" fill="black"/>
<path fill-rule="evenodd" clip-rule="evenodd" d="M151.765 122.312H130.597V117.608H151.765V122.312Z" fill="black"/>
</svg>
