<svg width="87" height="54" viewBox="0 0 87 54" fill="none" xmlns="http://www.w3.org/2000/svg">
<path fill-rule="evenodd" clip-rule="evenodd" d="M31.984 50.1509L31.5613 45.7488L32.6781 45.5325L33.1007 49.9346L31.984 50.1509Z" fill="#32D95C" fill-opacity="0.7"/>
<path fill-rule="evenodd" clip-rule="evenodd" d="M48.3609 50.1509L47.7269 45.7488L49.4021 45.5325L50.0361 49.9346L48.3609 50.1509Z" fill="#32D95C" fill-opacity="0.7"/>
<path fill-rule="evenodd" clip-rule="evenodd" d="M35.4099 50.9208H30.7915V48.6116H35.4099V50.9208Z" fill="#32D95C" fill-opacity="0.7"/>
<path fill-rule="evenodd" clip-rule="evenodd" d="M50.8058 50.9208H47.7269V48.6116H50.8058V50.9208Z" fill="#32D95C" fill-opacity="0.7"/>
<path fill-rule="evenodd" clip-rule="evenodd" d="M73.0178 6.24586C73.412 6.15948 73.8452 5.99301 74.2394 5.70732C74.928 5.20836 75.4393 4.3841 75.4393 3.19415H73.7808C73.7808 3.84013 73.532 4.16332 73.2704 4.35284C72.9666 4.573 72.5771 4.65455 72.3297 4.65455H59.2698C58.9512 4.65455 58.6299 4.7213 58.3515 4.90346C58.063 5.09216 57.8913 5.3586 57.8063 5.6259C57.6647 6.07113 57.7588 6.51334 57.8551 6.78159L58.0544 7.58363L67.387 40.144L68.9804 39.6814L59.656 7.1498L59.4508 6.32357H70.8719C71.2841 6.60682 72.2687 7.62329 72.5427 9.96776C72.6855 11.1888 72.3495 11.7437 72.0566 12.0075C71.7233 12.3077 71.2604 12.3991 70.9377 12.3759L70.9082 12.3738H67.5618V14.0428H70.8516C71.4954 14.0817 72.4234 13.9169 73.1626 13.2512C73.9545 12.5379 74.3787 11.3891 74.1898 9.77275C74.0102 8.2363 73.5514 7.07476 73.0178 6.24586ZM59.3927 6.10398C59.3927 6.10398 59.3927 6.10427 59.3927 6.10483L59.3927 6.10398ZM59.2041 6.32829C59.2034 6.32848 59.2031 6.32856 59.2031 6.32855L59.2041 6.32829Z" fill="#32D95C" fill-opacity="0.7"/>
<path fill-rule="evenodd" clip-rule="evenodd" d="M57.9385 24.3964L35.5583 38.6044L34.6405 37.2721L60.4306 20.8993L61.5831 22.0065L50.9759 37.3809L49.5887 36.4989L57.9385 24.3964Z" fill="#32D95C" fill-opacity="0.7"/>
<path fill-rule="evenodd" clip-rule="evenodd" d="M24.8678 20.8993H62.3528V22.513H25.7822C22.4464 27.6025 15.8751 37.5682 14.5568 39.3259C14.3196 39.6422 14.1735 39.8839 14.0871 40.0616H27.1972V41.6752H13.9285C13.7116 41.6951 13.4396 41.6846 13.1704 41.5867C12.8516 41.4708 12.5263 41.2227 12.3849 40.7992C12.256 40.4129 12.3248 40.0096 12.4637 39.6452C12.6057 39.2724 12.8536 38.8532 13.2109 38.3768C14.5221 36.6286 21.352 26.2667 24.6226 21.2736L24.8678 20.8993Z" fill="#32D95C" fill-opacity="0.7"/>
<path fill-rule="evenodd" clip-rule="evenodd" d="M48.2531 2.09787C48.9506 2.56502 49.3591 3.37953 49.2473 4.50036C49.0426 6.55223 47.6374 7.51237 46.7824 7.75865C45.8416 8.15594 44.3526 8.72606 42.8549 9.18123C42.0917 9.4132 41.3141 9.61905 40.5985 9.75617C40.3207 9.8094 40.0435 9.85405 39.7738 9.88524L41.1956 15.408C41.7196 17.1532 45.8359 29.9952 47.9436 36.5449L46.3357 37.0648C44.2262 30.5096 40.0829 17.5835 39.5727 15.8791C39.1924 14.6081 38.3104 14.0766 37.9356 13.9422H34.0142C33.9293 14.3705 33.7386 14.8235 33.3902 15.2328C32.7324 16.0055 31.6347 16.4825 30.0339 16.4825V14.789C31.3052 14.789 31.8618 14.4192 32.105 14.1335C32.3651 13.828 32.4056 13.4586 32.3684 13.2347L32.3569 13.1655V13.0954C32.3569 12.78 32.2725 12.3068 32.0549 11.9434C31.8639 11.6242 31.589 11.4019 31.0898 11.4019V9.70838C32.2801 9.70838 33.0611 10.3328 33.5036 11.0721C33.7321 11.4538 33.8734 11.8663 33.9542 12.2487H38.1628L38.2637 12.274C38.3887 12.3053 38.5297 12.3528 38.6811 12.4181L38.0453 9.94848C37.3394 9.94383 36.4967 9.83829 35.7362 9.5303C35.2032 9.31445 34.671 8.98287 34.2697 8.47721C33.8587 7.95935 33.624 7.30719 33.624 6.53301C33.624 6.03626 33.6122 5.60578 33.6013 5.21096C33.5961 5.0239 33.5912 4.84484 33.5879 4.67053C33.5781 4.16226 33.5801 3.66148 33.6682 3.23787C33.763 2.78146 33.9782 2.31658 34.46 2.00862C34.8939 1.7313 35.4223 1.66412 35.947 1.66412H46.4681C46.9438 1.62487 47.6505 1.69435 48.2531 2.09787ZM24.5068 3.92947C24.3125 3.79935 24.0111 3.75396 23.7825 3.77688L23.7406 3.78108H13.1393C12.7206 3.78108 12.5866 3.84411 12.5618 3.85926C12.5553 3.87019 12.5343 3.91099 12.5144 4.0067C12.4705 4.21816 12.4593 4.53768 12.4693 5.06141C12.4722 5.21168 12.4768 5.37756 12.4817 5.55698C12.4928 5.96232 12.5058 6.43675 12.5058 6.95645C12.5058 7.36774 12.6231 7.64348 12.7841 7.84626C12.9547 8.06123 13.2144 8.243 13.5613 8.3835C14.2727 8.67156 15.1796 8.71642 15.8006 8.65417L15.8815 8.64607L15.9624 8.65356C16.3085 8.68562 16.8226 8.64093 17.4736 8.51619C18.1114 8.39398 18.8279 8.2056 19.557 7.98399C21.0155 7.54073 22.4758 6.97947 23.3689 6.60017L23.4296 6.57438L23.4936 6.55835C23.7741 6.48804 24.6312 6.03229 24.7585 4.75528C24.7893 4.44716 24.7449 4.26289 24.6988 4.15751C24.6543 4.05585 24.5901 3.98525 24.5068 3.92947ZM25.4454 2.52131C26.1429 2.98845 26.5514 3.80296 26.4396 4.92379C26.2349 6.97566 24.8297 7.93581 23.9747 8.18208C23.0339 8.57937 21.5449 9.14949 20.0472 9.60467C19.284 9.83663 18.5064 10.0425 17.7908 10.1796C17.4036 10.2538 17.0176 10.3113 16.6514 10.339C16.644 10.7244 16.6832 11.1343 16.7973 11.4793C16.8881 11.7535 17.0102 11.9387 17.1463 12.0532C17.2696 12.1568 17.4575 12.2487 17.7853 12.2487H21.4794L21.5803 12.274C22.3987 12.479 23.9055 13.3809 24.5075 15.3924C25.0111 17.075 29.1461 29.9753 31.2602 36.5449L29.6523 37.0648C27.5428 30.5096 23.3995 17.5835 22.8893 15.8791C22.509 14.6081 21.627 14.0766 21.2522 13.9422H17.7853C17.0995 13.9422 16.5166 13.7342 16.0604 13.3505C15.6171 12.9777 15.3512 12.4881 15.1938 12.0126C15.015 11.4724 14.9561 10.8907 14.9614 10.365C14.3182 10.3371 13.592 10.2224 12.9285 9.95373C12.3955 9.73788 11.8633 9.40631 11.462 8.90064C11.051 8.38279 10.8163 7.73062 10.8163 6.95645C10.8163 6.45969 10.8045 6.02921 10.7936 5.63438C10.7885 5.44733 10.7835 5.26827 10.7802 5.09397C10.7704 4.5857 10.7724 4.08492 10.8605 3.6613C10.9553 3.20489 11.1705 2.74001 11.6523 2.43205C12.0862 2.15474 12.6146 2.08755 13.1393 2.08755H23.6604C24.1362 2.0483 24.8428 2.11779 25.4454 2.52131Z" fill="#32D95C" fill-opacity="0.7"/>
<path fill-rule="evenodd" clip-rule="evenodd" d="M31.5609 37.1831C29.5008 37.1831 27.8307 38.8532 27.8307 40.9134C27.8307 42.9735 29.5008 44.6436 31.5609 44.6436C33.6211 44.6436 35.2911 42.9735 35.2911 40.9134C35.2911 38.8532 33.6211 37.1831 31.5609 37.1831ZM26.1728 40.9134C26.1728 37.9376 28.5851 35.5253 31.5609 35.5253C34.5367 35.5253 36.949 37.9376 36.949 40.9134C36.949 43.8891 34.5367 46.3015 31.5609 46.3015C28.5851 46.3015 26.1728 43.8891 26.1728 40.9134Z" fill="#32D95C" fill-opacity="0.7"/>
<path fill-rule="evenodd" clip-rule="evenodd" d="M48.1113 37.1831C45.904 37.1831 44.1146 38.8532 44.1146 40.9134C44.1146 42.9735 45.904 44.6436 48.1113 44.6436C50.3186 44.6436 52.108 42.9735 52.108 40.9134C52.108 38.8532 50.3186 37.1831 48.1113 37.1831ZM42.3383 40.9134C42.3383 37.9376 44.923 35.5253 48.1113 35.5253C51.2996 35.5253 53.8843 37.9376 53.8843 40.9134C53.8843 43.8891 51.2996 46.3015 48.1113 46.3015C44.923 46.3015 42.3383 43.8891 42.3383 40.9134Z" fill="#32D95C" fill-opacity="0.7"/>
<path fill-rule="evenodd" clip-rule="evenodd" d="M67.7413 29.5159C61.4465 29.5159 56.3435 34.6189 56.3435 40.9137C56.3435 47.2086 61.4465 52.3116 67.7413 52.3116C74.0362 52.3116 79.1392 47.2086 79.1392 40.9137C79.1392 34.6189 74.0362 29.5159 67.7413 29.5159ZM54.6549 40.9137C54.6549 33.6863 60.5139 27.8273 67.7413 27.8273C74.9688 27.8273 80.8277 33.6863 80.8277 40.9137C80.8277 48.1412 74.9688 54.0001 67.7413 54.0001C60.5139 54.0001 54.6549 48.1412 54.6549 40.9137Z" fill="#32D95C" fill-opacity="0.7"/>
<path fill-rule="evenodd" clip-rule="evenodd" d="M13.0864 29.5159C6.79155 29.5159 1.68857 34.6189 1.68857 40.9137C1.68857 47.2086 6.79155 52.3116 13.0864 52.3116C19.3813 52.3116 24.4842 47.2086 24.4842 40.9137C24.4842 34.6189 19.3813 29.5159 13.0864 29.5159ZM0 40.9137C0 33.6863 5.85898 27.8273 13.0864 27.8273C20.3138 27.8273 26.1728 33.6863 26.1728 40.9137C26.1728 48.1412 20.3138 54.0001 13.0864 54.0001C5.85898 54.0001 0 48.1412 0 40.9137Z" fill="#32D95C" fill-opacity="0.7"/>
<path fill-rule="evenodd" clip-rule="evenodd" d="M75.439 1.65454V3.194H73.1298V1.65454H75.439Z" fill="#32D95C" fill-opacity="0.7"/>
<path fill-rule="evenodd" clip-rule="evenodd" d="M43.8774 41.6833H36.9499V40.1439H43.8774V41.6833Z" fill="#32D95C" fill-opacity="0.7"/>
<path fill-rule="evenodd" clip-rule="evenodd" d="M37.7748 48.4962L37.3521 44.0942L38.4689 43.8779L38.8916 48.28L37.7748 48.4962Z" fill="black"/>
<path fill-rule="evenodd" clip-rule="evenodd" d="M54.1517 48.4962L53.5177 44.0942L55.1929 43.8779L55.8269 48.28L54.1517 48.4962Z" fill="black"/>
<path fill-rule="evenodd" clip-rule="evenodd" d="M41.2007 49.2662H36.5823V46.957H41.2007V49.2662Z" fill="black"/>
<path fill-rule="evenodd" clip-rule="evenodd" d="M56.5966 49.2662H53.5177V46.957H56.5966V49.2662Z" fill="black"/>
<path fill-rule="evenodd" clip-rule="evenodd" d="M78.8086 4.59126C79.2028 4.50488 79.6359 4.33841 80.0302 4.05271C80.7188 3.55376 81.23 2.7295 81.23 1.53955H79.5716C79.5716 2.18553 79.3227 2.50872 79.0612 2.69824C78.7574 2.9184 78.3679 2.99995 78.1205 2.99995H65.0606C64.742 2.99995 64.4207 3.0667 64.1422 3.24886C63.8538 3.43756 63.6821 3.704 63.5971 3.9713C63.4555 4.41652 63.5496 4.85874 63.6459 5.12699L63.8451 5.92903L73.1778 38.4894L74.7712 38.0268L65.4468 5.49519L65.2416 4.66897H76.6627C77.0749 4.95222 78.0594 5.96869 78.3335 8.31316C78.4762 9.53415 78.1403 10.0891 77.8474 10.3529C77.514 10.6531 77.0512 10.7445 76.7285 10.7213L76.699 10.7192H73.3526V12.3882H76.6424C77.2862 12.4271 78.2142 12.2623 78.9533 11.5966C79.7453 10.8833 80.1695 9.73449 79.9805 8.11814C79.8009 6.5817 79.3422 5.42016 78.8086 4.59126ZM65.1835 4.44938C65.1835 4.44938 65.1835 4.44967 65.1834 4.45023L65.1835 4.44938ZM64.9949 4.67369C64.9942 4.67388 64.9939 4.67395 64.9938 4.67395L64.9949 4.67369Z" fill="black"/>
<path fill-rule="evenodd" clip-rule="evenodd" d="M63.7293 22.742L41.3491 36.95L40.4313 35.6176L66.2214 19.2449L67.3739 20.3521L56.7667 35.7265L55.3795 34.8445L63.7293 22.742Z" fill="black"/>
<path fill-rule="evenodd" clip-rule="evenodd" d="M30.6586 19.2449H68.1436V20.8585H31.573C28.2372 25.9481 21.6659 35.9138 20.3476 37.6715C20.1104 37.9878 19.9643 38.2295 19.878 38.4072H32.988V40.0208H19.7193C19.5024 40.0407 19.2304 40.0301 18.9613 39.9323C18.6424 39.8163 18.3171 39.5682 18.1757 39.1448C18.0468 38.7585 18.1156 38.3552 18.2545 37.9908C18.3965 37.618 18.6444 37.1988 19.0017 36.7224C20.3129 34.9742 27.1429 24.6123 30.4134 19.6191L30.6586 19.2449Z" fill="black"/>
<path fill-rule="evenodd" clip-rule="evenodd" d="M54.0439 0.443331C54.7414 0.910475 55.1499 1.72499 55.0381 2.84582C54.8334 4.89768 53.4282 5.85783 52.5732 6.1041C51.6324 6.5014 50.1434 7.07152 48.6457 7.52669C47.8825 7.75866 47.1049 7.96451 46.3893 8.10162C46.1115 8.15486 45.8343 8.19951 45.5646 8.2307L46.9864 13.7535C47.5104 15.4987 51.6267 28.3407 53.7344 34.8903L52.1265 35.4103C50.017 28.855 45.8737 15.929 45.3635 14.2245C44.9832 12.9536 44.1012 12.422 43.7264 12.2877H39.805C39.7201 12.7159 39.5294 13.1689 39.181 13.5782C38.5232 14.3509 37.4255 14.828 35.8247 14.828V13.1344C37.096 13.1344 37.6526 12.7647 37.8958 12.4789C38.1559 12.1734 38.1964 11.804 38.1592 11.5801L38.1477 11.511V11.4409C38.1477 11.1255 38.0633 10.6523 37.8457 10.2889C37.6547 9.96968 37.3798 9.74737 36.8806 9.74737V8.05384C38.0709 8.05384 38.8519 8.6783 39.2944 9.41756C39.5229 9.79931 39.6642 10.2118 39.745 10.5941H43.9536L44.0545 10.6194C44.1795 10.6507 44.3205 10.6983 44.4719 10.7636L43.8361 8.29394C43.1302 8.28929 42.2875 8.18375 41.527 7.87576C40.994 7.65991 40.4618 7.32833 40.0605 6.82266C39.6495 6.30481 39.4148 5.65265 39.4148 4.87847C39.4148 4.38172 39.403 3.95124 39.3921 3.55641C39.3869 3.36935 39.382 3.1903 39.3787 3.01599C39.3689 2.50772 39.3709 2.00694 39.459 1.58333C39.5538 1.12692 39.769 0.66204 40.2508 0.354074C40.6847 0.0767625 41.2131 0.00957458 41.7378 0.00957458H52.2589C52.7346 -0.0296737 53.4413 0.0398112 54.0439 0.443331ZM30.2976 2.27493C30.1033 2.14481 29.8019 2.09942 29.5733 2.12234L29.5314 2.12654H18.9301C18.5114 2.12654 18.3774 2.18957 18.3526 2.20471C18.3461 2.21565 18.3251 2.25644 18.3052 2.35216C18.2613 2.56362 18.2501 2.88314 18.2601 3.40686C18.263 3.55714 18.2676 3.72302 18.2725 3.90244C18.2836 4.30778 18.2966 4.78221 18.2966 5.3019C18.2966 5.7132 18.4139 5.98894 18.5749 6.19172C18.7455 6.40669 19.0052 6.58846 19.3521 6.72896C20.0635 7.01702 20.9704 7.06188 21.5914 6.99963L21.6723 6.99153L21.7532 6.99902C22.0993 7.03108 22.6134 6.98639 23.2644 6.86165C23.9022 6.73944 24.6187 6.55106 25.3478 6.32945C26.8063 5.88618 28.2666 5.32493 29.1597 4.94562L29.2204 4.91984L29.2844 4.90381C29.5649 4.8335 30.422 4.37775 30.5493 3.10074C30.5801 2.79262 30.5357 2.60835 30.4896 2.50297C30.4451 2.40131 30.3809 2.3307 30.2976 2.27493ZM31.2362 0.866765C31.9337 1.33391 32.3422 2.14842 32.2304 3.26925C32.0257 5.32112 30.6205 6.28126 29.7655 6.52754C28.8247 6.92483 27.3357 7.49495 25.838 7.95013C25.0748 8.18209 24.2972 8.38794 23.5816 8.52506C23.1944 8.59926 22.8084 8.65679 22.4422 8.68442C22.4348 9.06989 22.474 9.4798 22.5881 9.82475C22.6789 10.099 22.801 10.2841 22.9371 10.3986C23.0604 10.5023 23.2483 10.5941 23.5761 10.5941H27.2702L27.3711 10.6194C28.1895 10.8245 29.6963 11.7263 30.2983 13.7379C30.8019 15.4205 34.9369 28.3207 37.051 34.8903L35.4431 35.4103C33.3336 28.855 29.1903 15.929 28.6801 14.2245C28.2998 12.9536 27.4178 12.422 27.043 12.2877H23.5761C22.8903 12.2877 22.3074 12.0797 21.8512 11.696C21.4079 11.3231 21.142 10.8336 20.9846 10.358C20.8058 9.81785 20.7469 9.23615 20.7522 8.71046C20.109 8.68252 19.3828 8.56791 18.7193 8.29919C18.1863 8.08334 17.6541 7.75177 17.2528 7.2461C16.8418 6.72825 16.6071 6.07608 16.6071 5.3019C16.6071 4.80515 16.5953 4.37467 16.5844 3.97984C16.5793 3.79278 16.5743 3.61373 16.571 3.43943C16.5612 2.93116 16.5632 2.43038 16.6513 2.00676C16.7461 1.55035 16.9613 1.08547 17.4431 0.777508C17.877 0.500197 18.4054 0.433009 18.9301 0.433009H29.4512C29.927 0.393761 30.6336 0.463245 31.2362 0.866765Z" fill="black"/>
<path fill-rule="evenodd" clip-rule="evenodd" d="M37.3517 35.5287C35.2916 35.5287 33.6215 37.1988 33.6215 39.259C33.6215 41.3191 35.2916 42.9892 37.3517 42.9892C39.4119 42.9892 41.0819 41.3191 41.0819 39.259C41.0819 37.1988 39.4119 35.5287 37.3517 35.5287ZM31.9636 39.259C31.9636 36.2832 34.3759 33.8708 37.3517 33.8708C40.3275 33.8708 42.7398 36.2832 42.7398 39.259C42.7398 42.2347 40.3275 44.6471 37.3517 44.6471C34.3759 44.6471 31.9636 42.2347 31.9636 39.259Z" fill="black"/>
<path fill-rule="evenodd" clip-rule="evenodd" d="M53.9021 35.5287C51.6948 35.5287 49.9054 37.1988 49.9054 39.259C49.9054 41.3191 51.6948 42.9892 53.9021 42.9892C56.1094 42.9892 57.8988 41.3191 57.8988 39.259C57.8988 37.1988 56.1094 35.5287 53.9021 35.5287ZM48.1291 39.259C48.1291 36.2832 50.7138 33.8708 53.9021 33.8708C57.0904 33.8708 59.6751 36.2832 59.6751 39.259C59.6751 42.2347 57.0904 44.6471 53.9021 44.6471C50.7138 44.6471 48.1291 42.2347 48.1291 39.259Z" fill="black"/>
<path fill-rule="evenodd" clip-rule="evenodd" d="M73.5321 27.8614C67.2373 27.8614 62.1343 32.9643 62.1343 39.2592C62.1343 45.554 67.2373 50.657 73.5321 50.657C79.827 50.657 84.93 45.554 84.93 39.2592C84.93 32.9643 79.827 27.8614 73.5321 27.8614ZM60.4457 39.2592C60.4457 32.0318 66.3047 26.1728 73.5321 26.1728C80.7595 26.1728 86.6185 32.0318 86.6185 39.2592C86.6185 46.4866 80.7595 52.3456 73.5321 52.3456C66.3047 52.3456 60.4457 46.4866 60.4457 39.2592Z" fill="black"/>
<path fill-rule="evenodd" clip-rule="evenodd" d="M18.8772 27.8614C12.5824 27.8614 7.47937 32.9643 7.47937 39.2592C7.47937 45.554 12.5824 50.657 18.8772 50.657C25.1721 50.657 30.275 45.554 30.275 39.2592C30.275 32.9643 25.1721 27.8614 18.8772 27.8614ZM5.7908 39.2592C5.7908 32.0318 11.6498 26.1728 18.8772 26.1728C26.1046 26.1728 31.9636 32.0318 31.9636 39.2592C31.9636 46.4866 26.1046 52.3456 18.8772 52.3456C11.6498 52.3456 5.7908 46.4866 5.7908 39.2592Z" fill="black"/>
<path fill-rule="evenodd" clip-rule="evenodd" d="M81.2298 0V1.53946H78.9206V0H81.2298Z" fill="black"/>
<path fill-rule="evenodd" clip-rule="evenodd" d="M49.6682 40.0288H42.7407V38.4894H49.6682V40.0288Z" fill="black"/>
</svg>
