<svg width="1440" height="1024" viewBox="0 0 1440 1024" fill="none" xmlns="http://www.w3.org/2000/svg">
<rect width="1440" height="1024" fill="url(#paint0_linear_338_69)"/>
<path d="M32.1908 624V367.806H154.87C181.186 367.806 202.084 375.03 217.564 389.478C233.302 403.926 241.171 423.405 241.171 447.915C241.171 464.427 237.946 477.585 231.496 487.389C225.304 497.193 217.435 504.675 207.889 509.835C198.343 514.737 188.797 518.349 179.251 520.671L246.589 624H212.146L150.226 525.702H61.2158V624H32.1908ZM61.2158 498.225H149.839C159.127 498.225 168.544 496.806 178.09 493.968C187.636 491.13 195.634 486.099 202.084 478.875C208.792 471.393 212.146 461.073 212.146 447.915C212.146 431.661 206.599 418.89 195.505 409.602C184.411 400.056 169.705 395.283 151.387 395.283H61.2158V498.225ZM366.259 627.096C346.651 627.096 329.494 622.71 314.788 613.938C300.082 604.908 288.601 592.782 280.345 577.56C272.347 562.338 268.348 545.568 268.348 527.25C268.348 508.674 272.218 491.904 279.958 476.94C287.698 461.718 298.792 449.721 313.24 440.949C327.688 431.919 344.716 427.404 364.324 427.404C384.19 427.404 401.218 431.919 415.408 440.949C429.856 449.721 440.95 461.718 448.69 476.94C456.43 491.904 460.3 508.674 460.3 527.25V538.86H298.147C299.695 550.212 303.307 560.661 308.983 570.207C314.917 579.495 322.786 586.977 332.59 592.653C342.394 598.071 353.746 600.78 366.646 600.78C380.32 600.78 391.801 597.813 401.089 591.879C410.377 585.687 417.601 577.818 422.761 568.272H454.495C447.787 585.558 437.08 599.748 422.374 610.842C407.926 621.678 389.221 627.096 366.259 627.096ZM298.534 511.77H430.114C427.534 495.258 420.568 481.455 409.216 470.361C397.864 459.267 382.9 453.72 364.324 453.72C345.748 453.72 330.784 459.267 319.432 470.361C308.338 481.455 301.372 495.258 298.534 511.77ZM584.388 703.722C560.136 703.722 540.399 698.433 525.177 687.855C509.955 677.535 499.635 663.99 494.217 647.22H526.338C530.208 656.766 536.916 664.119 546.462 669.279C556.008 674.697 568.134 677.406 582.84 677.406C605.028 677.406 621.153 672.117 631.215 661.539C641.535 651.219 646.695 636.126 646.695 616.26V589.557C639.471 599.877 630.054 608.262 618.444 614.712C607.092 620.904 593.418 624 577.422 624C558.588 624 542.076 619.743 527.886 611.229C513.954 602.457 503.118 590.589 495.378 575.625C487.638 560.661 483.768 544.02 483.768 525.702C483.768 507.126 487.638 490.485 495.378 475.779C503.118 460.815 513.954 449.076 527.886 440.562C542.076 431.79 558.588 427.404 577.422 427.404C593.418 427.404 607.092 430.5 618.444 436.692C630.054 442.626 639.471 450.882 646.695 461.46V430.5H675.72V618.195C675.72 645.801 667.722 666.957 651.726 681.663C635.988 696.369 613.542 703.722 584.388 703.722ZM581.292 597.684C595.482 597.684 607.479 594.459 617.283 588.009C627.345 581.559 634.956 572.916 640.116 562.08C645.534 550.986 648.243 538.86 648.243 525.702C648.243 512.286 645.534 500.16 640.116 489.324C634.956 478.488 627.345 469.845 617.283 463.395C607.479 456.945 595.482 453.72 581.292 453.72C567.102 453.72 554.847 456.945 544.527 463.395C534.207 469.845 526.338 478.488 520.92 489.324C515.502 500.16 512.793 512.286 512.793 525.702C512.793 538.86 515.502 550.986 520.92 562.08C526.338 572.916 534.207 581.559 544.527 588.009C554.847 594.459 567.102 597.684 581.292 597.684ZM724.764 397.992V360.066H756.111V397.992H724.764ZM725.925 624V430.5H754.95V624H725.925ZM875.724 627.096C857.922 627.096 842.829 624.129 830.445 618.195C818.319 612.261 809.031 604.521 802.581 594.975C796.131 585.171 792.519 574.593 791.745 563.241H821.931C822.705 569.691 824.898 576.012 828.51 582.204C832.38 588.138 838.185 593.04 845.925 596.91C853.665 600.522 863.727 602.328 876.111 602.328C879.981 602.328 884.754 601.941 890.43 601.167C896.106 600.393 901.524 598.974 906.684 596.91C912.102 594.846 916.617 591.75 920.229 587.622C923.841 583.494 925.647 578.205 925.647 571.755C925.647 563.757 922.551 557.565 916.359 553.179C910.167 548.793 902.169 545.439 892.365 543.117C882.561 540.537 872.112 538.086 861.018 535.764C850.182 533.442 839.862 530.475 830.058 526.863C820.254 522.993 812.256 517.704 806.064 510.996C799.872 504.03 796.776 494.613 796.776 482.745C796.776 465.201 803.097 451.656 815.739 442.11C828.639 432.306 847.602 427.404 872.628 427.404C889.656 427.404 903.459 430.113 914.037 435.531C924.873 440.691 933 447.399 938.418 455.655C944.094 463.911 947.448 472.812 948.48 482.358H919.068C918.036 474.102 913.908 467.007 906.684 461.073C899.718 455.139 888.108 452.172 871.854 452.172C841.152 452.172 825.801 461.46 825.801 480.036C825.801 487.776 828.897 493.71 835.089 497.838C841.281 501.966 849.279 505.32 859.083 507.9C868.887 510.222 879.207 512.544 890.043 514.866C901.137 516.93 911.586 519.897 921.39 523.767C931.194 527.637 939.192 533.184 945.384 540.408C951.576 547.374 954.672 556.92 954.672 569.046C954.672 587.88 947.448 602.328 933 612.39C918.81 622.194 899.718 627.096 875.724 627.096ZM1012.89 624V456.042H973.411V430.5H1012.89V361.227H1041.91V430.5H1086.42V456.042H1041.91V624H1012.89ZM1118.22 624V430.5H1147.24V478.101C1148.27 474.747 1150.21 470.361 1153.05 464.943C1156.14 459.267 1160.53 453.591 1166.2 447.915C1171.88 442.239 1178.97 437.466 1187.49 433.596C1196.26 429.468 1206.58 427.404 1218.45 427.404H1220.38V456.429H1216.9C1202.45 456.429 1189.94 460.428 1179.36 468.426C1169.04 476.166 1161.04 486.357 1155.37 498.999C1149.95 511.383 1147.24 524.67 1147.24 538.86V624H1118.22ZM1330.69 627.096C1311.08 627.096 1294.05 622.71 1279.61 613.938C1265.16 604.908 1254.06 592.782 1246.32 577.56C1238.58 562.338 1234.71 545.568 1234.71 527.25C1234.71 508.674 1238.58 491.904 1246.32 476.94C1254.06 461.718 1265.16 449.721 1279.61 440.949C1294.05 431.919 1311.08 427.404 1330.69 427.404C1350.56 427.404 1367.58 431.919 1381.77 440.949C1396.22 449.721 1407.32 461.718 1415.06 476.94C1422.8 491.904 1426.67 508.674 1426.67 527.25C1426.67 545.568 1422.8 562.338 1415.06 577.56C1407.32 592.782 1396.22 604.908 1381.77 613.938C1367.58 622.71 1350.56 627.096 1330.69 627.096ZM1330.69 600.78C1345.14 600.78 1357.26 597.426 1367.07 590.718C1377.13 584.01 1384.74 575.109 1389.9 564.015C1395.06 552.663 1397.64 540.408 1397.64 527.25C1397.64 513.834 1395.06 501.579 1389.9 490.485C1384.74 479.391 1377.13 470.49 1367.07 463.782C1357.26 457.074 1345.14 453.72 1330.69 453.72C1316.5 453.72 1304.37 457.074 1294.31 463.782C1284.25 470.49 1276.64 479.391 1271.48 490.485C1266.32 501.579 1263.74 513.834 1263.74 527.25C1263.74 540.408 1266.32 552.663 1271.48 564.015C1276.64 575.109 1284.25 584.01 1294.31 590.718C1304.37 597.426 1316.5 600.78 1330.69 600.78Z" fill="#1E181A"/>
<defs>
<linearGradient id="paint0_linear_338_69" x1="1440" y1="6.03497e-05" x2="6.03721e-05" y2="1012" gradientUnits="userSpaceOnUse">
<stop stop-color="#565656"/>
<stop offset="1" stop-color="#181818"/>
</linearGradient>
</defs>
</svg>
