<svg width="621" height="510" viewBox="0 0 621 510" fill="none" xmlns="http://www.w3.org/2000/svg">
<mask id="path-1-outside-1" maskUnits="userSpaceOnUse" x="0" y="0" width="621" height="510" fill="black">
<rect fill="white" width="621" height="510"/>
<path d="M101.224 212.907H61.7708C57.8742 212.907 55.0328 212.013 53.2469 210.226C51.4609 208.439 50.5679 205.595 50.5679 201.696V84.4734H17.2029C13.3062 84.4734 10.4649 83.5798 8.67895 81.7926C6.89298 80.0054 6 77.1622 6 73.2629V43.7745C6 41.6623 6.24354 39.8752 6.73062 38.4129C7.38006 36.9507 8.27305 35.7322 9.40957 34.7573L40.8263 8.19336C41.6381 7.54347 42.6935 7.05606 43.9923 6.73111C45.4536 6.2437 46.996 6 48.6196 6H177.209C181.106 6 183.947 6.89359 185.733 8.68076C187.519 10.4679 188.412 13.3112 188.412 17.2105V46.6989C188.412 48.8111 188.087 50.5982 187.438 52.0605C186.951 53.5227 186.139 54.7412 185.002 55.7161L153.342 82.0363C152.693 82.6862 151.637 83.2549 150.176 83.7423C148.877 84.2297 147.416 84.4734 145.792 84.4734H143.844V175.132C143.844 177.244 143.519 179.031 142.87 180.494C142.383 181.956 141.571 183.174 140.434 184.149L108.774 210.469C108.125 211.119 107.069 211.688 105.608 212.175C104.309 212.663 102.848 212.907 101.224 212.907ZM132.641 183.906C135.726 183.906 137.918 183.256 139.217 181.956C140.678 180.494 141.409 178.219 141.409 175.132V55.4724H177.209C180.294 55.4724 182.486 54.8225 183.785 53.5227C185.246 52.0605 185.977 49.7859 185.977 46.6989V17.2105C185.977 14.1235 185.246 11.9302 183.785 10.6304C182.486 9.16818 180.294 8.43706 177.209 8.43706H48.6196C45.5348 8.43706 43.2617 9.16818 41.8005 10.6304C40.5016 11.9302 39.8521 14.1235 39.8521 17.2105V46.6989C39.8521 49.7859 40.5016 52.0605 41.8005 53.5227C43.2617 54.8225 45.5348 55.4724 48.6196 55.4724H84.4201V175.132C84.4201 178.219 85.0695 180.494 86.3684 181.956C87.8297 183.256 90.1027 183.906 93.1875 183.906H132.641ZM111.697 161.972V32.8077H61.7708V30.3706H164.058V32.8077H114.132V161.972H111.697Z"/>
<path d="M248.766 110.063V117.617H343.747V110.063C343.747 105.676 343.341 101.614 342.529 97.8772C341.88 94.1404 340.987 90.6473 339.85 87.3979L323.046 47.6738C321.26 43.4495 319.393 39.9564 317.445 37.1944C315.496 34.2699 312.249 32.8077 307.703 32.8077H283.836C278.965 32.8077 275.556 34.2699 273.607 37.1944C271.659 39.9564 269.873 43.3683 268.249 47.4301L252.663 87.3979C251.526 90.6473 250.552 94.1404 249.74 97.8772C249.091 101.614 248.766 105.676 248.766 110.063ZM287.733 59.6154C288.382 58.1531 289.032 57.0971 289.681 56.4472C290.493 55.7973 291.386 55.4724 292.36 55.4724H298.449C299.423 55.4724 300.235 55.7973 300.884 56.4472C301.696 57.0971 302.426 58.1531 303.076 59.6154L314.522 96.6587H276.286L287.733 59.6154ZM343.747 161.972V120.054H248.766V161.972H246.331V110.063C246.331 105.513 246.656 101.37 247.305 97.6335C248.117 93.7342 249.172 89.9974 250.471 86.423L266.058 46.4552C267.844 41.906 269.873 38.088 272.146 35.001C274.419 31.9141 278.316 30.3706 283.836 30.3706H307.703C313.061 30.3706 316.795 31.9141 318.906 35.001C321.179 38.088 323.29 41.9873 325.238 46.6989L342.042 86.423C343.341 89.9974 344.315 93.7342 344.965 97.6335C345.777 101.37 346.183 105.513 346.183 110.063V161.972H343.747ZM273.851 175.132V141.013H316.958V175.132C316.958 178.219 317.688 180.494 319.149 181.956C320.773 183.256 323.208 183.906 326.456 183.906H363.23C366.315 183.906 368.507 183.256 369.806 181.956C371.267 180.494 371.998 178.219 371.998 175.132V110.794C371.998 105.92 371.186 100.314 369.562 93.9779C368.101 87.6416 365.747 80.2492 362.5 71.8007L341.312 16.4794C340.338 13.7174 338.795 11.6865 336.684 10.3867C334.736 9.08695 332.219 8.43706 329.135 8.43706H263.622C260.375 8.43706 257.696 9.08695 255.585 10.3867C253.637 11.6865 252.176 13.7174 251.202 16.4794L230.014 71.8007C226.766 80.2492 224.331 87.6416 222.707 93.9779C221.246 100.314 220.516 105.92 220.516 110.794V175.132C220.516 178.219 221.165 180.494 222.464 181.956C223.925 183.256 226.198 183.906 229.283 183.906H265.083C268.168 183.906 270.36 183.256 271.659 181.956C273.12 180.494 273.851 178.219 273.851 175.132ZM241.216 210.469C240.567 211.119 239.512 211.688 238.05 212.175C236.752 212.663 235.29 212.907 233.667 212.907H197.866C193.97 212.907 191.128 212.013 189.342 210.226C187.556 208.439 186.663 205.595 186.663 201.696V137.358C186.663 132.321 187.394 126.635 188.855 120.298C190.479 113.799 192.995 106.163 196.405 97.3898L217.35 42.3122C217.837 40.85 218.405 39.6315 219.054 38.6566C219.866 37.5193 220.678 36.5445 221.49 35.7321L221.733 35.4884L252.906 9.41188C254.205 8.27458 255.748 7.46223 257.534 6.97483C259.32 6.32494 261.349 6 263.622 6H329.135C332.869 6 335.873 6.81235 338.146 8.43706C340.581 9.8993 342.367 12.2551 343.504 15.5045L364.692 70.8258C368.101 79.5993 370.537 87.2354 371.998 93.7342C373.621 100.071 374.433 105.757 374.433 110.794V175.132C374.433 177.244 374.108 179.031 373.459 180.494C372.972 181.956 372.16 183.174 371.024 184.149L339.363 210.469C338.714 211.119 337.659 211.688 336.197 212.175C334.898 212.663 333.437 212.907 331.814 212.907H295.039C290.98 212.907 287.976 211.932 286.028 209.982C284.08 208.195 283.105 205.433 283.105 201.696V170.014H276.286V175.132C276.286 177.244 275.962 179.031 275.312 180.494C274.825 181.956 274.013 183.174 272.877 184.149L241.216 210.469Z"/>
<path d="M458.474 32.3203L548.097 133.215V30.3706H550.532V161.972H548.097V136.87L456.038 33.5388C455.876 33.3763 455.632 33.2139 455.308 33.0514C455.145 32.8889 454.983 32.8077 454.821 32.8077C454.658 32.8077 454.496 32.8889 454.334 33.0514C454.334 33.2139 454.334 33.3763 454.334 33.5388V161.972H451.898V33.0514C451.898 32.0766 452.223 31.3454 452.872 30.858C453.522 30.3706 454.171 30.1269 454.821 30.1269C455.47 30.1269 456.038 30.2894 456.525 30.6143C457.013 30.9393 457.662 31.5079 458.474 32.3203ZM471.625 183.906C474.71 183.906 476.902 183.256 478.201 181.956C479.662 180.494 480.392 178.219 480.392 175.132V94.7091L522.038 145.156V175.132C522.038 178.219 522.687 180.494 523.986 181.956C525.447 183.256 527.721 183.906 530.805 183.906H567.336C570.421 183.906 572.613 183.256 573.912 181.956C575.373 180.494 576.104 178.219 576.104 175.132V17.2105C576.104 14.1235 575.373 11.9302 573.912 10.6304C572.613 9.16818 570.421 8.43706 567.336 8.43706H530.805C527.721 8.43706 525.447 9.16818 523.986 10.6304C522.687 11.9302 522.038 14.1235 522.038 17.2105V69.1199L474.791 15.0171C472.68 12.5801 470.488 10.8741 468.215 9.89929C466.105 8.92447 463.507 8.43706 460.422 8.43706H435.094C432.009 8.43706 429.736 9.16818 428.275 10.6304C426.976 11.9302 426.326 14.1235 426.326 17.2105V175.132C426.326 178.219 426.976 180.494 428.275 181.956C429.736 183.256 432.009 183.906 435.094 183.906H471.625ZM479.418 184.149L447.758 210.469C447.109 211.119 446.053 211.688 444.592 212.175C443.293 212.663 441.832 212.907 440.208 212.907H403.677C399.78 212.907 396.939 212.013 395.153 210.226C393.367 208.439 392.474 205.595 392.474 201.696V43.7745C392.474 41.6623 392.718 39.8752 393.205 38.4129C393.854 36.9507 394.747 35.7322 395.884 34.7573L427.301 8.19336C428.112 7.54347 429.168 7.05606 430.467 6.73111C431.928 6.2437 433.47 6 435.094 6H460.422C463.994 6 466.998 6.56865 469.433 7.70594C471.869 8.84324 474.304 10.7117 476.739 13.3112L493.544 32.8077L523.012 8.19336C523.824 7.54347 524.879 7.05606 526.178 6.73111C527.639 6.2437 529.182 6 530.805 6H567.336C571.233 6 574.074 6.89359 575.86 8.68076C577.646 10.4679 578.539 13.3112 578.539 17.2105V175.132C578.539 177.244 578.215 179.031 577.565 180.494C577.078 181.956 576.266 183.174 575.13 184.149L543.469 210.469C542.82 211.119 541.765 211.688 540.303 212.175C539.005 212.663 537.543 212.907 535.92 212.907H499.389C495.492 212.907 492.651 212.013 490.865 210.226C489.079 208.439 488.186 205.595 488.186 201.696V172.695L482.828 166.115V175.132C482.828 177.244 482.503 179.031 481.854 180.494C481.367 181.956 480.555 183.174 479.418 184.149Z"/>
<path d="M156.021 491.084C150.988 495.308 144.575 498.476 136.781 500.588C128.988 502.863 119.815 504 109.261 504H27.188C23.2914 504 20.4501 503.106 18.6641 501.319C16.8781 499.532 15.9852 496.689 15.9852 492.79V334.868C15.9852 332.756 16.2287 330.969 16.7158 329.506C17.3652 328.044 18.2582 326.826 19.3947 325.851L50.8115 299.287C51.6233 298.637 52.6786 298.15 53.9775 297.825C55.4387 297.337 56.9812 297.093 58.6048 297.093H140.678C161.947 297.093 177.615 301.399 187.681 310.01C197.91 318.621 203.024 331.7 203.024 349.247V425.283C203.024 434.056 201.725 441.774 199.128 448.435C196.53 454.934 192.714 460.377 187.681 464.763L156.021 491.084ZM140.678 474.999C160.973 474.999 175.991 470.937 185.733 462.814C195.637 454.69 200.589 442.18 200.589 425.283V349.247C200.589 332.35 195.637 319.839 185.733 311.716C175.991 303.592 160.973 299.531 140.678 299.531H58.6048C55.5199 299.531 53.2469 300.262 51.7856 301.724C50.4868 303.024 49.8373 305.217 49.8373 308.304V466.226C49.8373 469.313 50.4868 471.587 51.7856 473.049C53.2469 474.349 55.5199 474.999 58.6048 474.999H140.678ZM76.3832 453.065V321.464H135.32C143.6 321.464 150.257 322.358 155.29 324.145C160.486 325.932 164.464 328.369 167.224 331.456C169.984 334.381 171.851 337.955 172.825 342.179C173.8 346.241 174.287 350.628 174.287 355.339V419.921C174.287 424.633 173.8 429.02 172.825 433.082C172.014 437.143 170.228 440.636 167.467 443.561C164.707 446.485 160.729 448.841 155.534 450.628C150.338 452.253 143.6 453.065 135.32 453.065H76.3832ZM135.32 323.901H78.8186V450.628H135.32C143.113 450.628 149.364 449.897 154.073 448.435C158.944 446.81 162.678 444.698 165.276 442.099C167.873 439.337 169.578 436.087 170.39 432.35C171.364 428.451 171.851 424.308 171.851 419.921V355.339C171.851 350.953 171.364 346.81 170.39 342.91C169.416 339.011 167.63 335.68 165.032 332.918C162.434 330.156 158.7 327.963 153.829 326.338C149.121 324.714 142.951 323.901 135.32 323.901ZM105.121 346.078H134.102C137.999 346.078 140.84 347.053 142.626 349.003C144.575 350.79 145.549 353.715 145.549 357.776V416.997C145.549 421.059 144.575 424.064 142.626 426.014C140.84 427.964 137.999 428.939 134.102 428.939H105.121V346.078ZM111.697 384.34C111.697 382.228 111.372 380.441 110.722 378.979C110.073 377.517 109.018 376.46 107.556 375.811V426.501H111.697V384.34Z"/>
<path d="M346.154 504H233.151C229.254 504 226.413 503.106 224.627 501.319C222.841 499.532 221.948 496.689 221.948 492.79V334.868C221.948 332.756 222.192 330.969 222.679 329.506C223.328 328.044 224.221 326.826 225.358 325.851L256.775 299.287C257.586 298.637 258.642 298.15 259.941 297.825C261.402 297.337 262.944 297.093 264.568 297.093H377.571C381.467 297.093 384.309 297.987 386.095 299.774C387.881 301.561 388.774 304.405 388.774 308.304V336.818C388.774 338.93 388.449 340.717 387.799 342.179C387.312 343.641 386.501 344.86 385.364 345.835L364.42 363.138C366.043 363.95 367.18 365.169 367.829 366.793C368.641 368.418 369.047 370.53 369.047 373.13V399.206C369.047 401.319 368.722 403.106 368.073 404.568C367.586 406.03 366.774 407.249 365.637 408.224L343.962 426.501H377.571C381.467 426.501 384.309 427.395 386.095 429.182C387.881 430.969 388.774 433.813 388.774 437.712V466.226C388.774 468.338 388.449 470.125 387.799 471.587C387.312 473.049 386.501 474.268 385.364 475.243L353.704 501.563C353.054 502.213 351.999 502.782 350.538 503.269C349.239 503.756 347.778 504 346.154 504ZM377.571 474.999C380.656 474.999 382.847 474.349 384.146 473.049C385.608 471.587 386.338 469.313 386.338 466.226V437.712C386.338 434.625 385.608 432.432 384.146 431.132C382.847 429.67 380.656 428.939 377.571 428.939H310.353V407.98H357.844C360.929 407.98 363.121 407.33 364.42 406.03C365.881 404.568 366.611 402.293 366.611 399.206V373.13C366.611 370.043 365.881 367.85 364.42 366.55C363.121 365.088 360.929 364.356 357.844 364.356H310.353V345.591H377.571C380.656 345.591 382.847 344.941 384.146 343.641C385.608 342.179 386.338 339.905 386.338 336.818V308.304C386.338 305.217 385.608 303.024 384.146 301.724C382.847 300.262 380.656 299.531 377.571 299.531H264.568C261.483 299.531 259.21 300.262 257.749 301.724C256.45 303.024 255.8 305.217 255.8 308.304V466.226C255.8 469.313 256.45 471.587 257.749 473.049C259.21 474.349 261.483 474.999 264.568 474.999H377.571ZM364.42 450.628V453.065H282.346V321.464H364.42V323.901H284.782V385.071H344.693V387.508H284.782V450.628H364.42Z"/>
<path d="M525.133 381.172C528.056 381.172 530.167 380.522 531.466 379.223C532.764 377.923 534.794 375.161 537.554 370.936L567.266 325.607C568.24 323.982 569.296 322.926 570.432 322.439C571.731 321.789 573.03 321.464 574.329 321.464H578.469C580.742 321.464 582.366 322.114 583.34 323.414C584.476 324.551 585.045 326.419 585.045 329.019V453.065H582.609V329.019C582.609 327.719 582.284 326.582 581.635 325.607C581.148 324.47 580.093 323.901 578.469 323.901H574.816C573.679 323.901 572.705 324.064 571.893 324.389C571.082 324.714 570.189 325.688 569.214 327.313L539.502 372.155C536.58 376.542 534.307 379.547 532.683 381.172C531.222 382.797 528.705 383.609 525.133 383.609C521.562 383.609 518.964 382.797 517.34 381.172C515.879 379.547 513.687 376.542 510.765 372.155L481.053 327.313C480.078 325.688 479.104 324.714 478.13 324.389C477.318 324.064 476.344 323.901 475.208 323.901H471.555C469.931 323.901 468.876 324.47 468.389 325.607C467.901 326.582 467.658 327.719 467.658 329.019V453.065H465.223V329.019C465.223 326.419 465.71 324.551 466.684 323.414C467.82 322.114 469.444 321.464 471.555 321.464H475.695C476.994 321.464 478.293 321.789 479.591 322.439C480.89 322.926 482.027 323.982 483.001 325.607L512.713 370.936C515.473 375.161 517.503 377.923 518.801 379.223C520.1 380.522 522.211 381.172 525.133 381.172ZM484.462 474.999C487.547 474.999 489.739 474.349 491.038 473.049C492.499 471.587 493.23 469.313 493.23 466.226V380.441L507.599 407.005C509.06 409.767 510.765 411.798 512.713 413.098C514.824 414.235 517.421 414.804 520.506 414.804H530.248C533.333 414.804 535.849 414.235 537.798 413.098C539.908 411.798 541.694 409.767 543.156 407.005L557.524 380.441V466.226C557.524 469.313 558.174 471.587 559.473 473.049C560.934 474.349 563.207 474.999 566.292 474.999H603.797C606.882 474.999 609.074 474.349 610.373 473.049C611.834 471.587 612.565 469.313 612.565 466.226V308.304C612.565 305.217 611.834 303.024 610.373 301.724C609.074 300.262 606.882 299.531 603.797 299.531H564.344C561.746 299.531 559.554 300.099 557.768 301.236C556.144 302.374 554.602 304.242 553.141 306.842L531.466 346.566C530.654 348.028 529.923 349.084 529.274 349.734C528.787 350.384 528.056 350.709 527.082 350.709H524.89C523.916 350.709 523.104 350.384 522.455 349.734C521.967 349.084 521.318 348.028 520.506 346.566L498.588 306.842C497.126 304.242 495.503 302.374 493.717 301.236C492.093 300.099 489.983 299.531 487.385 299.531H448.175C445.09 299.531 442.817 300.262 441.356 301.724C440.057 303.024 439.407 305.217 439.407 308.304V466.226C439.407 469.313 440.057 471.587 441.356 473.049C442.817 474.349 445.09 474.999 448.175 474.999H484.462ZM492.256 475.243L460.595 501.563C459.946 502.213 458.89 502.782 457.429 503.269C456.13 503.756 454.669 504 453.045 504H416.758C412.861 504 410.02 503.106 408.234 501.319C406.448 499.532 405.555 496.689 405.555 492.79V334.868C405.555 332.756 405.799 330.969 406.286 329.506C406.935 328.044 407.828 326.826 408.965 325.851L440.381 299.287C441.193 298.637 442.249 298.15 443.547 297.825C445.009 297.337 446.551 297.093 448.175 297.093H487.385C490.47 297.093 492.986 297.743 494.934 299.043C497.045 300.343 498.993 302.536 500.779 305.623L517.34 336.086L519.532 332.187C520.182 331.05 520.831 329.994 521.48 329.019C522.292 327.882 523.104 326.988 523.916 326.338L555.333 300.018C556.631 299.043 557.93 298.312 559.229 297.825C560.69 297.337 562.395 297.093 564.344 297.093H603.797C607.694 297.093 610.535 297.987 612.321 299.774C614.107 301.561 615 304.405 615 308.304V466.226C615 468.338 614.675 470.125 614.026 471.587C613.539 473.049 612.727 474.268 611.59 475.243L579.93 501.563C579.281 502.213 578.225 502.782 576.764 503.269C575.465 503.756 574.004 504 572.38 504H534.875C530.816 504 527.894 503.106 526.108 501.319C524.484 499.532 523.672 496.689 523.672 492.79V428.451L509.303 440.393C508.004 441.53 506.462 442.424 504.676 443.073C503.053 443.561 501.104 443.805 498.831 443.805H495.665V466.226C495.665 468.338 495.34 470.125 494.691 471.587C494.204 473.049 493.392 474.268 492.256 475.243Z"/>
</mask>
<path d="M101.224 212.907H61.7708C57.8742 212.907 55.0328 212.013 53.2469 210.226C51.4609 208.439 50.5679 205.595 50.5679 201.696V84.4734H17.2029C13.3062 84.4734 10.4649 83.5798 8.67895 81.7926C6.89298 80.0054 6 77.1622 6 73.2629V43.7745C6 41.6623 6.24354 39.8752 6.73062 38.4129C7.38006 36.9507 8.27305 35.7322 9.40957 34.7573L40.8263 8.19336C41.6381 7.54347 42.6935 7.05606 43.9923 6.73111C45.4536 6.2437 46.996 6 48.6196 6H177.209C181.106 6 183.947 6.89359 185.733 8.68076C187.519 10.4679 188.412 13.3112 188.412 17.2105V46.6989C188.412 48.8111 188.087 50.5982 187.438 52.0605C186.951 53.5227 186.139 54.7412 185.002 55.7161L153.342 82.0363C152.693 82.6862 151.637 83.2549 150.176 83.7423C148.877 84.2297 147.416 84.4734 145.792 84.4734H143.844V175.132C143.844 177.244 143.519 179.031 142.87 180.494C142.383 181.956 141.571 183.174 140.434 184.149L108.774 210.469C108.125 211.119 107.069 211.688 105.608 212.175C104.309 212.663 102.848 212.907 101.224 212.907ZM132.641 183.906C135.726 183.906 137.918 183.256 139.217 181.956C140.678 180.494 141.409 178.219 141.409 175.132V55.4724H177.209C180.294 55.4724 182.486 54.8225 183.785 53.5227C185.246 52.0605 185.977 49.7859 185.977 46.6989V17.2105C185.977 14.1235 185.246 11.9302 183.785 10.6304C182.486 9.16818 180.294 8.43706 177.209 8.43706H48.6196C45.5348 8.43706 43.2617 9.16818 41.8005 10.6304C40.5016 11.9302 39.8521 14.1235 39.8521 17.2105V46.6989C39.8521 49.7859 40.5016 52.0605 41.8005 53.5227C43.2617 54.8225 45.5348 55.4724 48.6196 55.4724H84.4201V175.132C84.4201 178.219 85.0695 180.494 86.3684 181.956C87.8297 183.256 90.1027 183.906 93.1875 183.906H132.641ZM111.697 161.972V32.8077H61.7708V30.3706H164.058V32.8077H114.132V161.972H111.697Z" fill="#32D95C"/>
<path d="M248.766 110.063V117.617H343.747V110.063C343.747 105.676 343.341 101.614 342.529 97.8772C341.88 94.1404 340.987 90.6473 339.85 87.3979L323.046 47.6738C321.26 43.4495 319.393 39.9564 317.445 37.1944C315.496 34.2699 312.249 32.8077 307.703 32.8077H283.836C278.965 32.8077 275.556 34.2699 273.607 37.1944C271.659 39.9564 269.873 43.3683 268.249 47.4301L252.663 87.3979C251.526 90.6473 250.552 94.1404 249.74 97.8772C249.091 101.614 248.766 105.676 248.766 110.063ZM287.733 59.6154C288.382 58.1531 289.032 57.0971 289.681 56.4472C290.493 55.7973 291.386 55.4724 292.36 55.4724H298.449C299.423 55.4724 300.235 55.7973 300.884 56.4472C301.696 57.0971 302.426 58.1531 303.076 59.6154L314.522 96.6587H276.286L287.733 59.6154ZM343.747 161.972V120.054H248.766V161.972H246.331V110.063C246.331 105.513 246.656 101.37 247.305 97.6335C248.117 93.7342 249.172 89.9974 250.471 86.423L266.058 46.4552C267.844 41.906 269.873 38.088 272.146 35.001C274.419 31.9141 278.316 30.3706 283.836 30.3706H307.703C313.061 30.3706 316.795 31.9141 318.906 35.001C321.179 38.088 323.29 41.9873 325.238 46.6989L342.042 86.423C343.341 89.9974 344.315 93.7342 344.965 97.6335C345.777 101.37 346.183 105.513 346.183 110.063V161.972H343.747ZM273.851 175.132V141.013H316.958V175.132C316.958 178.219 317.688 180.494 319.149 181.956C320.773 183.256 323.208 183.906 326.456 183.906H363.23C366.315 183.906 368.507 183.256 369.806 181.956C371.267 180.494 371.998 178.219 371.998 175.132V110.794C371.998 105.92 371.186 100.314 369.562 93.9779C368.101 87.6416 365.747 80.2492 362.5 71.8007L341.312 16.4794C340.338 13.7174 338.795 11.6865 336.684 10.3867C334.736 9.08695 332.219 8.43706 329.135 8.43706H263.622C260.375 8.43706 257.696 9.08695 255.585 10.3867C253.637 11.6865 252.176 13.7174 251.202 16.4794L230.014 71.8007C226.766 80.2492 224.331 87.6416 222.707 93.9779C221.246 100.314 220.516 105.92 220.516 110.794V175.132C220.516 178.219 221.165 180.494 222.464 181.956C223.925 183.256 226.198 183.906 229.283 183.906H265.083C268.168 183.906 270.36 183.256 271.659 181.956C273.12 180.494 273.851 178.219 273.851 175.132ZM241.216 210.469C240.567 211.119 239.512 211.688 238.05 212.175C236.752 212.663 235.29 212.907 233.667 212.907H197.866C193.97 212.907 191.128 212.013 189.342 210.226C187.556 208.439 186.663 205.595 186.663 201.696V137.358C186.663 132.321 187.394 126.635 188.855 120.298C190.479 113.799 192.995 106.163 196.405 97.3898L217.35 42.3122C217.837 40.85 218.405 39.6315 219.054 38.6566C219.866 37.5193 220.678 36.5445 221.49 35.7321L221.733 35.4884L252.906 9.41188C254.205 8.27458 255.748 7.46223 257.534 6.97483C259.32 6.32494 261.349 6 263.622 6H329.135C332.869 6 335.873 6.81235 338.146 8.43706C340.581 9.8993 342.367 12.2551 343.504 15.5045L364.692 70.8258C368.101 79.5993 370.537 87.2354 371.998 93.7342C373.621 100.071 374.433 105.757 374.433 110.794V175.132C374.433 177.244 374.108 179.031 373.459 180.494C372.972 181.956 372.16 183.174 371.024 184.149L339.363 210.469C338.714 211.119 337.659 211.688 336.197 212.175C334.898 212.663 333.437 212.907 331.814 212.907H295.039C290.98 212.907 287.976 211.932 286.028 209.982C284.08 208.195 283.105 205.433 283.105 201.696V170.014H276.286V175.132C276.286 177.244 275.962 179.031 275.312 180.494C274.825 181.956 274.013 183.174 272.877 184.149L241.216 210.469Z" fill="#32D95C"/>
<path d="M458.474 32.3203L548.097 133.215V30.3706H550.532V161.972H548.097V136.87L456.038 33.5388C455.876 33.3763 455.632 33.2139 455.308 33.0514C455.145 32.8889 454.983 32.8077 454.821 32.8077C454.658 32.8077 454.496 32.8889 454.334 33.0514C454.334 33.2139 454.334 33.3763 454.334 33.5388V161.972H451.898V33.0514C451.898 32.0766 452.223 31.3454 452.872 30.858C453.522 30.3706 454.171 30.1269 454.821 30.1269C455.47 30.1269 456.038 30.2894 456.525 30.6143C457.013 30.9393 457.662 31.5079 458.474 32.3203ZM471.625 183.906C474.71 183.906 476.902 183.256 478.201 181.956C479.662 180.494 480.392 178.219 480.392 175.132V94.7091L522.038 145.156V175.132C522.038 178.219 522.687 180.494 523.986 181.956C525.447 183.256 527.721 183.906 530.805 183.906H567.336C570.421 183.906 572.613 183.256 573.912 181.956C575.373 180.494 576.104 178.219 576.104 175.132V17.2105C576.104 14.1235 575.373 11.9302 573.912 10.6304C572.613 9.16818 570.421 8.43706 567.336 8.43706H530.805C527.721 8.43706 525.447 9.16818 523.986 10.6304C522.687 11.9302 522.038 14.1235 522.038 17.2105V69.1199L474.791 15.0171C472.68 12.5801 470.488 10.8741 468.215 9.89929C466.105 8.92447 463.507 8.43706 460.422 8.43706H435.094C432.009 8.43706 429.736 9.16818 428.275 10.6304C426.976 11.9302 426.326 14.1235 426.326 17.2105V175.132C426.326 178.219 426.976 180.494 428.275 181.956C429.736 183.256 432.009 183.906 435.094 183.906H471.625ZM479.418 184.149L447.758 210.469C447.109 211.119 446.053 211.688 444.592 212.175C443.293 212.663 441.832 212.907 440.208 212.907H403.677C399.78 212.907 396.939 212.013 395.153 210.226C393.367 208.439 392.474 205.595 392.474 201.696V43.7745C392.474 41.6623 392.718 39.8752 393.205 38.4129C393.854 36.9507 394.747 35.7322 395.884 34.7573L427.301 8.19336C428.112 7.54347 429.168 7.05606 430.467 6.73111C431.928 6.2437 433.47 6 435.094 6H460.422C463.994 6 466.998 6.56865 469.433 7.70594C471.869 8.84324 474.304 10.7117 476.739 13.3112L493.544 32.8077L523.012 8.19336C523.824 7.54347 524.879 7.05606 526.178 6.73111C527.639 6.2437 529.182 6 530.805 6H567.336C571.233 6 574.074 6.89359 575.86 8.68076C577.646 10.4679 578.539 13.3112 578.539 17.2105V175.132C578.539 177.244 578.215 179.031 577.565 180.494C577.078 181.956 576.266 183.174 575.13 184.149L543.469 210.469C542.82 211.119 541.765 211.688 540.303 212.175C539.005 212.663 537.543 212.907 535.92 212.907H499.389C495.492 212.907 492.651 212.013 490.865 210.226C489.079 208.439 488.186 205.595 488.186 201.696V172.695L482.828 166.115V175.132C482.828 177.244 482.503 179.031 481.854 180.494C481.367 181.956 480.555 183.174 479.418 184.149Z" fill="#32D95C"/>
<path d="M156.021 491.084C150.988 495.308 144.575 498.476 136.781 500.588C128.988 502.863 119.815 504 109.261 504H27.188C23.2914 504 20.4501 503.106 18.6641 501.319C16.8781 499.532 15.9852 496.689 15.9852 492.79V334.868C15.9852 332.756 16.2287 330.969 16.7158 329.506C17.3652 328.044 18.2582 326.826 19.3947 325.851L50.8115 299.287C51.6233 298.637 52.6786 298.15 53.9775 297.825C55.4387 297.337 56.9812 297.093 58.6048 297.093H140.678C161.947 297.093 177.615 301.399 187.681 310.01C197.91 318.621 203.024 331.7 203.024 349.247V425.283C203.024 434.056 201.725 441.774 199.128 448.435C196.53 454.934 192.714 460.377 187.681 464.763L156.021 491.084ZM140.678 474.999C160.973 474.999 175.991 470.937 185.733 462.814C195.637 454.69 200.589 442.18 200.589 425.283V349.247C200.589 332.35 195.637 319.839 185.733 311.716C175.991 303.592 160.973 299.531 140.678 299.531H58.6048C55.5199 299.531 53.2469 300.262 51.7856 301.724C50.4868 303.024 49.8373 305.217 49.8373 308.304V466.226C49.8373 469.313 50.4868 471.587 51.7856 473.049C53.2469 474.349 55.5199 474.999 58.6048 474.999H140.678ZM76.3832 453.065V321.464H135.32C143.6 321.464 150.257 322.358 155.29 324.145C160.486 325.932 164.464 328.369 167.224 331.456C169.984 334.381 171.851 337.955 172.825 342.179C173.8 346.241 174.287 350.628 174.287 355.339V419.921C174.287 424.633 173.8 429.02 172.825 433.082C172.014 437.143 170.228 440.636 167.467 443.561C164.707 446.485 160.729 448.841 155.534 450.628C150.338 452.253 143.6 453.065 135.32 453.065H76.3832ZM135.32 323.901H78.8186V450.628H135.32C143.113 450.628 149.364 449.897 154.073 448.435C158.944 446.81 162.678 444.698 165.276 442.099C167.873 439.337 169.578 436.087 170.39 432.35C171.364 428.451 171.851 424.308 171.851 419.921V355.339C171.851 350.953 171.364 346.81 170.39 342.91C169.416 339.011 167.63 335.68 165.032 332.918C162.434 330.156 158.7 327.963 153.829 326.338C149.121 324.714 142.951 323.901 135.32 323.901ZM105.121 346.078H134.102C137.999 346.078 140.84 347.053 142.626 349.003C144.575 350.79 145.549 353.715 145.549 357.776V416.997C145.549 421.059 144.575 424.064 142.626 426.014C140.84 427.964 137.999 428.939 134.102 428.939H105.121V346.078ZM111.697 384.34C111.697 382.228 111.372 380.441 110.722 378.979C110.073 377.517 109.018 376.46 107.556 375.811V426.501H111.697V384.34Z" fill="#32D95C"/>
<path d="M346.154 504H233.151C229.254 504 226.413 503.106 224.627 501.319C222.841 499.532 221.948 496.689 221.948 492.79V334.868C221.948 332.756 222.192 330.969 222.679 329.506C223.328 328.044 224.221 326.826 225.358 325.851L256.775 299.287C257.586 298.637 258.642 298.15 259.941 297.825C261.402 297.337 262.944 297.093 264.568 297.093H377.571C381.467 297.093 384.309 297.987 386.095 299.774C387.881 301.561 388.774 304.405 388.774 308.304V336.818C388.774 338.93 388.449 340.717 387.799 342.179C387.312 343.641 386.501 344.86 385.364 345.835L364.42 363.138C366.043 363.95 367.18 365.169 367.829 366.793C368.641 368.418 369.047 370.53 369.047 373.13V399.206C369.047 401.319 368.722 403.106 368.073 404.568C367.586 406.03 366.774 407.249 365.637 408.224L343.962 426.501H377.571C381.467 426.501 384.309 427.395 386.095 429.182C387.881 430.969 388.774 433.813 388.774 437.712V466.226C388.774 468.338 388.449 470.125 387.799 471.587C387.312 473.049 386.501 474.268 385.364 475.243L353.704 501.563C353.054 502.213 351.999 502.782 350.538 503.269C349.239 503.756 347.778 504 346.154 504ZM377.571 474.999C380.656 474.999 382.847 474.349 384.146 473.049C385.608 471.587 386.338 469.313 386.338 466.226V437.712C386.338 434.625 385.608 432.432 384.146 431.132C382.847 429.67 380.656 428.939 377.571 428.939H310.353V407.98H357.844C360.929 407.98 363.121 407.33 364.42 406.03C365.881 404.568 366.611 402.293 366.611 399.206V373.13C366.611 370.043 365.881 367.85 364.42 366.55C363.121 365.088 360.929 364.356 357.844 364.356H310.353V345.591H377.571C380.656 345.591 382.847 344.941 384.146 343.641C385.608 342.179 386.338 339.905 386.338 336.818V308.304C386.338 305.217 385.608 303.024 384.146 301.724C382.847 300.262 380.656 299.531 377.571 299.531H264.568C261.483 299.531 259.21 300.262 257.749 301.724C256.45 303.024 255.8 305.217 255.8 308.304V466.226C255.8 469.313 256.45 471.587 257.749 473.049C259.21 474.349 261.483 474.999 264.568 474.999H377.571ZM364.42 450.628V453.065H282.346V321.464H364.42V323.901H284.782V385.071H344.693V387.508H284.782V450.628H364.42Z" fill="#32D95C"/>
<path d="M525.133 381.172C528.056 381.172 530.167 380.522 531.466 379.223C532.764 377.923 534.794 375.161 537.554 370.936L567.266 325.607C568.24 323.982 569.296 322.926 570.432 322.439C571.731 321.789 573.03 321.464 574.329 321.464H578.469C580.742 321.464 582.366 322.114 583.34 323.414C584.476 324.551 585.045 326.419 585.045 329.019V453.065H582.609V329.019C582.609 327.719 582.284 326.582 581.635 325.607C581.148 324.47 580.093 323.901 578.469 323.901H574.816C573.679 323.901 572.705 324.064 571.893 324.389C571.082 324.714 570.189 325.688 569.214 327.313L539.502 372.155C536.58 376.542 534.307 379.547 532.683 381.172C531.222 382.797 528.705 383.609 525.133 383.609C521.562 383.609 518.964 382.797 517.34 381.172C515.879 379.547 513.687 376.542 510.765 372.155L481.053 327.313C480.078 325.688 479.104 324.714 478.13 324.389C477.318 324.064 476.344 323.901 475.208 323.901H471.555C469.931 323.901 468.876 324.47 468.389 325.607C467.901 326.582 467.658 327.719 467.658 329.019V453.065H465.223V329.019C465.223 326.419 465.71 324.551 466.684 323.414C467.82 322.114 469.444 321.464 471.555 321.464H475.695C476.994 321.464 478.293 321.789 479.591 322.439C480.89 322.926 482.027 323.982 483.001 325.607L512.713 370.936C515.473 375.161 517.503 377.923 518.801 379.223C520.1 380.522 522.211 381.172 525.133 381.172ZM484.462 474.999C487.547 474.999 489.739 474.349 491.038 473.049C492.499 471.587 493.23 469.313 493.23 466.226V380.441L507.599 407.005C509.06 409.767 510.765 411.798 512.713 413.098C514.824 414.235 517.421 414.804 520.506 414.804H530.248C533.333 414.804 535.849 414.235 537.798 413.098C539.908 411.798 541.694 409.767 543.156 407.005L557.524 380.441V466.226C557.524 469.313 558.174 471.587 559.473 473.049C560.934 474.349 563.207 474.999 566.292 474.999H603.797C606.882 474.999 609.074 474.349 610.373 473.049C611.834 471.587 612.565 469.313 612.565 466.226V308.304C612.565 305.217 611.834 303.024 610.373 301.724C609.074 300.262 606.882 299.531 603.797 299.531H564.344C561.746 299.531 559.554 300.099 557.768 301.236C556.144 302.374 554.602 304.242 553.141 306.842L531.466 346.566C530.654 348.028 529.923 349.084 529.274 349.734C528.787 350.384 528.056 350.709 527.082 350.709H524.89C523.916 350.709 523.104 350.384 522.455 349.734C521.967 349.084 521.318 348.028 520.506 346.566L498.588 306.842C497.126 304.242 495.503 302.374 493.717 301.236C492.093 300.099 489.983 299.531 487.385 299.531H448.175C445.09 299.531 442.817 300.262 441.356 301.724C440.057 303.024 439.407 305.217 439.407 308.304V466.226C439.407 469.313 440.057 471.587 441.356 473.049C442.817 474.349 445.09 474.999 448.175 474.999H484.462ZM492.256 475.243L460.595 501.563C459.946 502.213 458.89 502.782 457.429 503.269C456.13 503.756 454.669 504 453.045 504H416.758C412.861 504 410.02 503.106 408.234 501.319C406.448 499.532 405.555 496.689 405.555 492.79V334.868C405.555 332.756 405.799 330.969 406.286 329.506C406.935 328.044 407.828 326.826 408.965 325.851L440.381 299.287C441.193 298.637 442.249 298.15 443.547 297.825C445.009 297.337 446.551 297.093 448.175 297.093H487.385C490.47 297.093 492.986 297.743 494.934 299.043C497.045 300.343 498.993 302.536 500.779 305.623L517.34 336.086L519.532 332.187C520.182 331.05 520.831 329.994 521.48 329.019C522.292 327.882 523.104 326.988 523.916 326.338L555.333 300.018C556.631 299.043 557.93 298.312 559.229 297.825C560.69 297.337 562.395 297.093 564.344 297.093H603.797C607.694 297.093 610.535 297.987 612.321 299.774C614.107 301.561 615 304.405 615 308.304V466.226C615 468.338 614.675 470.125 614.026 471.587C613.539 473.049 612.727 474.268 611.59 475.243L579.93 501.563C579.281 502.213 578.225 502.782 576.764 503.269C575.465 503.756 574.004 504 572.38 504H534.875C530.816 504 527.894 503.106 526.108 501.319C524.484 499.532 523.672 496.689 523.672 492.79V428.451L509.303 440.393C508.004 441.53 506.462 442.424 504.676 443.073C503.053 443.561 501.104 443.805 498.831 443.805H495.665V466.226C495.665 468.338 495.34 470.125 494.691 471.587C494.204 473.049 493.392 474.268 492.256 475.243Z" fill="#32D95C"/>
<path d="M101.224 212.907H61.7708C57.8742 212.907 55.0328 212.013 53.2469 210.226C51.4609 208.439 50.5679 205.595 50.5679 201.696V84.4734H17.2029C13.3062 84.4734 10.4649 83.5798 8.67895 81.7926C6.89298 80.0054 6 77.1622 6 73.2629V43.7745C6 41.6623 6.24354 39.8752 6.73062 38.4129C7.38006 36.9507 8.27305 35.7322 9.40957 34.7573L40.8263 8.19336C41.6381 7.54347 42.6935 7.05606 43.9923 6.73111C45.4536 6.2437 46.996 6 48.6196 6H177.209C181.106 6 183.947 6.89359 185.733 8.68076C187.519 10.4679 188.412 13.3112 188.412 17.2105V46.6989C188.412 48.8111 188.087 50.5982 187.438 52.0605C186.951 53.5227 186.139 54.7412 185.002 55.7161L153.342 82.0363C152.693 82.6862 151.637 83.2549 150.176 83.7423C148.877 84.2297 147.416 84.4734 145.792 84.4734H143.844V175.132C143.844 177.244 143.519 179.031 142.87 180.494C142.383 181.956 141.571 183.174 140.434 184.149L108.774 210.469C108.125 211.119 107.069 211.688 105.608 212.175C104.309 212.663 102.848 212.907 101.224 212.907ZM132.641 183.906C135.726 183.906 137.918 183.256 139.217 181.956C140.678 180.494 141.409 178.219 141.409 175.132V55.4724H177.209C180.294 55.4724 182.486 54.8225 183.785 53.5227C185.246 52.0605 185.977 49.7859 185.977 46.6989V17.2105C185.977 14.1235 185.246 11.9302 183.785 10.6304C182.486 9.16818 180.294 8.43706 177.209 8.43706H48.6196C45.5348 8.43706 43.2617 9.16818 41.8005 10.6304C40.5016 11.9302 39.8521 14.1235 39.8521 17.2105V46.6989C39.8521 49.7859 40.5016 52.0605 41.8005 53.5227C43.2617 54.8225 45.5348 55.4724 48.6196 55.4724H84.4201V175.132C84.4201 178.219 85.0695 180.494 86.3684 181.956C87.8297 183.256 90.1027 183.906 93.1875 183.906H132.641ZM111.697 161.972V32.8077H61.7708V30.3706H164.058V32.8077H114.132V161.972H111.697Z" stroke="black" stroke-width="12" mask="url(#path-1-outside-1)"/>
<path d="M248.766 110.063V117.617H343.747V110.063C343.747 105.676 343.341 101.614 342.529 97.8772C341.88 94.1404 340.987 90.6473 339.85 87.3979L323.046 47.6738C321.26 43.4495 319.393 39.9564 317.445 37.1944C315.496 34.2699 312.249 32.8077 307.703 32.8077H283.836C278.965 32.8077 275.556 34.2699 273.607 37.1944C271.659 39.9564 269.873 43.3683 268.249 47.4301L252.663 87.3979C251.526 90.6473 250.552 94.1404 249.74 97.8772C249.091 101.614 248.766 105.676 248.766 110.063ZM287.733 59.6154C288.382 58.1531 289.032 57.0971 289.681 56.4472C290.493 55.7973 291.386 55.4724 292.36 55.4724H298.449C299.423 55.4724 300.235 55.7973 300.884 56.4472C301.696 57.0971 302.426 58.1531 303.076 59.6154L314.522 96.6587H276.286L287.733 59.6154ZM343.747 161.972V120.054H248.766V161.972H246.331V110.063C246.331 105.513 246.656 101.37 247.305 97.6335C248.117 93.7342 249.172 89.9974 250.471 86.423L266.058 46.4552C267.844 41.906 269.873 38.088 272.146 35.001C274.419 31.9141 278.316 30.3706 283.836 30.3706H307.703C313.061 30.3706 316.795 31.9141 318.906 35.001C321.179 38.088 323.29 41.9873 325.238 46.6989L342.042 86.423C343.341 89.9974 344.315 93.7342 344.965 97.6335C345.777 101.37 346.183 105.513 346.183 110.063V161.972H343.747ZM273.851 175.132V141.013H316.958V175.132C316.958 178.219 317.688 180.494 319.149 181.956C320.773 183.256 323.208 183.906 326.456 183.906H363.23C366.315 183.906 368.507 183.256 369.806 181.956C371.267 180.494 371.998 178.219 371.998 175.132V110.794C371.998 105.92 371.186 100.314 369.562 93.9779C368.101 87.6416 365.747 80.2492 362.5 71.8007L341.312 16.4794C340.338 13.7174 338.795 11.6865 336.684 10.3867C334.736 9.08695 332.219 8.43706 329.135 8.43706H263.622C260.375 8.43706 257.696 9.08695 255.585 10.3867C253.637 11.6865 252.176 13.7174 251.202 16.4794L230.014 71.8007C226.766 80.2492 224.331 87.6416 222.707 93.9779C221.246 100.314 220.516 105.92 220.516 110.794V175.132C220.516 178.219 221.165 180.494 222.464 181.956C223.925 183.256 226.198 183.906 229.283 183.906H265.083C268.168 183.906 270.36 183.256 271.659 181.956C273.12 180.494 273.851 178.219 273.851 175.132ZM241.216 210.469C240.567 211.119 239.512 211.688 238.05 212.175C236.752 212.663 235.29 212.907 233.667 212.907H197.866C193.97 212.907 191.128 212.013 189.342 210.226C187.556 208.439 186.663 205.595 186.663 201.696V137.358C186.663 132.321 187.394 126.635 188.855 120.298C190.479 113.799 192.995 106.163 196.405 97.3898L217.35 42.3122C217.837 40.85 218.405 39.6315 219.054 38.6566C219.866 37.5193 220.678 36.5445 221.49 35.7321L221.733 35.4884L252.906 9.41188C254.205 8.27458 255.748 7.46223 257.534 6.97483C259.32 6.32494 261.349 6 263.622 6H329.135C332.869 6 335.873 6.81235 338.146 8.43706C340.581 9.8993 342.367 12.2551 343.504 15.5045L364.692 70.8258C368.101 79.5993 370.537 87.2354 371.998 93.7342C373.621 100.071 374.433 105.757 374.433 110.794V175.132C374.433 177.244 374.108 179.031 373.459 180.494C372.972 181.956 372.16 183.174 371.024 184.149L339.363 210.469C338.714 211.119 337.659 211.688 336.197 212.175C334.898 212.663 333.437 212.907 331.814 212.907H295.039C290.98 212.907 287.976 211.932 286.028 209.982C284.08 208.195 283.105 205.433 283.105 201.696V170.014H276.286V175.132C276.286 177.244 275.962 179.031 275.312 180.494C274.825 181.956 274.013 183.174 272.877 184.149L241.216 210.469Z" stroke="black" stroke-width="12" mask="url(#path-1-outside-1)"/>
<path d="M458.474 32.3203L548.097 133.215V30.3706H550.532V161.972H548.097V136.87L456.038 33.5388C455.876 33.3763 455.632 33.2139 455.308 33.0514C455.145 32.8889 454.983 32.8077 454.821 32.8077C454.658 32.8077 454.496 32.8889 454.334 33.0514C454.334 33.2139 454.334 33.3763 454.334 33.5388V161.972H451.898V33.0514C451.898 32.0766 452.223 31.3454 452.872 30.858C453.522 30.3706 454.171 30.1269 454.821 30.1269C455.47 30.1269 456.038 30.2894 456.525 30.6143C457.013 30.9393 457.662 31.5079 458.474 32.3203ZM471.625 183.906C474.71 183.906 476.902 183.256 478.201 181.956C479.662 180.494 480.392 178.219 480.392 175.132V94.7091L522.038 145.156V175.132C522.038 178.219 522.687 180.494 523.986 181.956C525.447 183.256 527.721 183.906 530.805 183.906H567.336C570.421 183.906 572.613 183.256 573.912 181.956C575.373 180.494 576.104 178.219 576.104 175.132V17.2105C576.104 14.1235 575.373 11.9302 573.912 10.6304C572.613 9.16818 570.421 8.43706 567.336 8.43706H530.805C527.721 8.43706 525.447 9.16818 523.986 10.6304C522.687 11.9302 522.038 14.1235 522.038 17.2105V69.1199L474.791 15.0171C472.68 12.5801 470.488 10.8741 468.215 9.89929C466.105 8.92447 463.507 8.43706 460.422 8.43706H435.094C432.009 8.43706 429.736 9.16818 428.275 10.6304C426.976 11.9302 426.326 14.1235 426.326 17.2105V175.132C426.326 178.219 426.976 180.494 428.275 181.956C429.736 183.256 432.009 183.906 435.094 183.906H471.625ZM479.418 184.149L447.758 210.469C447.109 211.119 446.053 211.688 444.592 212.175C443.293 212.663 441.832 212.907 440.208 212.907H403.677C399.78 212.907 396.939 212.013 395.153 210.226C393.367 208.439 392.474 205.595 392.474 201.696V43.7745C392.474 41.6623 392.718 39.8752 393.205 38.4129C393.854 36.9507 394.747 35.7322 395.884 34.7573L427.301 8.19336C428.112 7.54347 429.168 7.05606 430.467 6.73111C431.928 6.2437 433.47 6 435.094 6H460.422C463.994 6 466.998 6.56865 469.433 7.70594C471.869 8.84324 474.304 10.7117 476.739 13.3112L493.544 32.8077L523.012 8.19336C523.824 7.54347 524.879 7.05606 526.178 6.73111C527.639 6.2437 529.182 6 530.805 6H567.336C571.233 6 574.074 6.89359 575.86 8.68076C577.646 10.4679 578.539 13.3112 578.539 17.2105V175.132C578.539 177.244 578.215 179.031 577.565 180.494C577.078 181.956 576.266 183.174 575.13 184.149L543.469 210.469C542.82 211.119 541.765 211.688 540.303 212.175C539.005 212.663 537.543 212.907 535.92 212.907H499.389C495.492 212.907 492.651 212.013 490.865 210.226C489.079 208.439 488.186 205.595 488.186 201.696V172.695L482.828 166.115V175.132C482.828 177.244 482.503 179.031 481.854 180.494C481.367 181.956 480.555 183.174 479.418 184.149Z" stroke="black" stroke-width="12" mask="url(#path-1-outside-1)"/>
<path d="M156.021 491.084C150.988 495.308 144.575 498.476 136.781 500.588C128.988 502.863 119.815 504 109.261 504H27.188C23.2914 504 20.4501 503.106 18.6641 501.319C16.8781 499.532 15.9852 496.689 15.9852 492.79V334.868C15.9852 332.756 16.2287 330.969 16.7158 329.506C17.3652 328.044 18.2582 326.826 19.3947 325.851L50.8115 299.287C51.6233 298.637 52.6786 298.15 53.9775 297.825C55.4387 297.337 56.9812 297.093 58.6048 297.093H140.678C161.947 297.093 177.615 301.399 187.681 310.01C197.91 318.621 203.024 331.7 203.024 349.247V425.283C203.024 434.056 201.725 441.774 199.128 448.435C196.53 454.934 192.714 460.377 187.681 464.763L156.021 491.084ZM140.678 474.999C160.973 474.999 175.991 470.937 185.733 462.814C195.637 454.69 200.589 442.18 200.589 425.283V349.247C200.589 332.35 195.637 319.839 185.733 311.716C175.991 303.592 160.973 299.531 140.678 299.531H58.6048C55.5199 299.531 53.2469 300.262 51.7856 301.724C50.4868 303.024 49.8373 305.217 49.8373 308.304V466.226C49.8373 469.313 50.4868 471.587 51.7856 473.049C53.2469 474.349 55.5199 474.999 58.6048 474.999H140.678ZM76.3832 453.065V321.464H135.32C143.6 321.464 150.257 322.358 155.29 324.145C160.486 325.932 164.464 328.369 167.224 331.456C169.984 334.381 171.851 337.955 172.825 342.179C173.8 346.241 174.287 350.628 174.287 355.339V419.921C174.287 424.633 173.8 429.02 172.825 433.082C172.014 437.143 170.228 440.636 167.467 443.561C164.707 446.485 160.729 448.841 155.534 450.628C150.338 452.253 143.6 453.065 135.32 453.065H76.3832ZM135.32 323.901H78.8186V450.628H135.32C143.113 450.628 149.364 449.897 154.073 448.435C158.944 446.81 162.678 444.698 165.276 442.099C167.873 439.337 169.578 436.087 170.39 432.35C171.364 428.451 171.851 424.308 171.851 419.921V355.339C171.851 350.953 171.364 346.81 170.39 342.91C169.416 339.011 167.63 335.68 165.032 332.918C162.434 330.156 158.7 327.963 153.829 326.338C149.121 324.714 142.951 323.901 135.32 323.901ZM105.121 346.078H134.102C137.999 346.078 140.84 347.053 142.626 349.003C144.575 350.79 145.549 353.715 145.549 357.776V416.997C145.549 421.059 144.575 424.064 142.626 426.014C140.84 427.964 137.999 428.939 134.102 428.939H105.121V346.078ZM111.697 384.34C111.697 382.228 111.372 380.441 110.722 378.979C110.073 377.517 109.018 376.46 107.556 375.811V426.501H111.697V384.34Z" stroke="black" stroke-width="12" mask="url(#path-1-outside-1)"/>
<path d="M346.154 504H233.151C229.254 504 226.413 503.106 224.627 501.319C222.841 499.532 221.948 496.689 221.948 492.79V334.868C221.948 332.756 222.192 330.969 222.679 329.506C223.328 328.044 224.221 326.826 225.358 325.851L256.775 299.287C257.586 298.637 258.642 298.15 259.941 297.825C261.402 297.337 262.944 297.093 264.568 297.093H377.571C381.467 297.093 384.309 297.987 386.095 299.774C387.881 301.561 388.774 304.405 388.774 308.304V336.818C388.774 338.93 388.449 340.717 387.799 342.179C387.312 343.641 386.501 344.86 385.364 345.835L364.42 363.138C366.043 363.95 367.18 365.169 367.829 366.793C368.641 368.418 369.047 370.53 369.047 373.13V399.206C369.047 401.319 368.722 403.106 368.073 404.568C367.586 406.03 366.774 407.249 365.637 408.224L343.962 426.501H377.571C381.467 426.501 384.309 427.395 386.095 429.182C387.881 430.969 388.774 433.813 388.774 437.712V466.226C388.774 468.338 388.449 470.125 387.799 471.587C387.312 473.049 386.501 474.268 385.364 475.243L353.704 501.563C353.054 502.213 351.999 502.782 350.538 503.269C349.239 503.756 347.778 504 346.154 504ZM377.571 474.999C380.656 474.999 382.847 474.349 384.146 473.049C385.608 471.587 386.338 469.313 386.338 466.226V437.712C386.338 434.625 385.608 432.432 384.146 431.132C382.847 429.67 380.656 428.939 377.571 428.939H310.353V407.98H357.844C360.929 407.98 363.121 407.33 364.42 406.03C365.881 404.568 366.611 402.293 366.611 399.206V373.13C366.611 370.043 365.881 367.85 364.42 366.55C363.121 365.088 360.929 364.356 357.844 364.356H310.353V345.591H377.571C380.656 345.591 382.847 344.941 384.146 343.641C385.608 342.179 386.338 339.905 386.338 336.818V308.304C386.338 305.217 385.608 303.024 384.146 301.724C382.847 300.262 380.656 299.531 377.571 299.531H264.568C261.483 299.531 259.21 300.262 257.749 301.724C256.45 303.024 255.8 305.217 255.8 308.304V466.226C255.8 469.313 256.45 471.587 257.749 473.049C259.21 474.349 261.483 474.999 264.568 474.999H377.571ZM364.42 450.628V453.065H282.346V321.464H364.42V323.901H284.782V385.071H344.693V387.508H284.782V450.628H364.42Z" stroke="black" stroke-width="12" mask="url(#path-1-outside-1)"/>
<path d="M525.133 381.172C528.056 381.172 530.167 380.522 531.466 379.223C532.764 377.923 534.794 375.161 537.554 370.936L567.266 325.607C568.24 323.982 569.296 322.926 570.432 322.439C571.731 321.789 573.03 321.464 574.329 321.464H578.469C580.742 321.464 582.366 322.114 583.34 323.414C584.476 324.551 585.045 326.419 585.045 329.019V453.065H582.609V329.019C582.609 327.719 582.284 326.582 581.635 325.607C581.148 324.47 580.093 323.901 578.469 323.901H574.816C573.679 323.901 572.705 324.064 571.893 324.389C571.082 324.714 570.189 325.688 569.214 327.313L539.502 372.155C536.58 376.542 534.307 379.547 532.683 381.172C531.222 382.797 528.705 383.609 525.133 383.609C521.562 383.609 518.964 382.797 517.34 381.172C515.879 379.547 513.687 376.542 510.765 372.155L481.053 327.313C480.078 325.688 479.104 324.714 478.13 324.389C477.318 324.064 476.344 323.901 475.208 323.901H471.555C469.931 323.901 468.876 324.47 468.389 325.607C467.901 326.582 467.658 327.719 467.658 329.019V453.065H465.223V329.019C465.223 326.419 465.71 324.551 466.684 323.414C467.82 322.114 469.444 321.464 471.555 321.464H475.695C476.994 321.464 478.293 321.789 479.591 322.439C480.89 322.926 482.027 323.982 483.001 325.607L512.713 370.936C515.473 375.161 517.503 377.923 518.801 379.223C520.1 380.522 522.211 381.172 525.133 381.172ZM484.462 474.999C487.547 474.999 489.739 474.349 491.038 473.049C492.499 471.587 493.23 469.313 493.23 466.226V380.441L507.599 407.005C509.06 409.767 510.765 411.798 512.713 413.098C514.824 414.235 517.421 414.804 520.506 414.804H530.248C533.333 414.804 535.849 414.235 537.798 413.098C539.908 411.798 541.694 409.767 543.156 407.005L557.524 380.441V466.226C557.524 469.313 558.174 471.587 559.473 473.049C560.934 474.349 563.207 474.999 566.292 474.999H603.797C606.882 474.999 609.074 474.349 610.373 473.049C611.834 471.587 612.565 469.313 612.565 466.226V308.304C612.565 305.217 611.834 303.024 610.373 301.724C609.074 300.262 606.882 299.531 603.797 299.531H564.344C561.746 299.531 559.554 300.099 557.768 301.236C556.144 302.374 554.602 304.242 553.141 306.842L531.466 346.566C530.654 348.028 529.923 349.084 529.274 349.734C528.787 350.384 528.056 350.709 527.082 350.709H524.89C523.916 350.709 523.104 350.384 522.455 349.734C521.967 349.084 521.318 348.028 520.506 346.566L498.588 306.842C497.126 304.242 495.503 302.374 493.717 301.236C492.093 300.099 489.983 299.531 487.385 299.531H448.175C445.09 299.531 442.817 300.262 441.356 301.724C440.057 303.024 439.407 305.217 439.407 308.304V466.226C439.407 469.313 440.057 471.587 441.356 473.049C442.817 474.349 445.09 474.999 448.175 474.999H484.462ZM492.256 475.243L460.595 501.563C459.946 502.213 458.89 502.782 457.429 503.269C456.13 503.756 454.669 504 453.045 504H416.758C412.861 504 410.02 503.106 408.234 501.319C406.448 499.532 405.555 496.689 405.555 492.79V334.868C405.555 332.756 405.799 330.969 406.286 329.506C406.935 328.044 407.828 326.826 408.965 325.851L440.381 299.287C441.193 298.637 442.249 298.15 443.547 297.825C445.009 297.337 446.551 297.093 448.175 297.093H487.385C490.47 297.093 492.986 297.743 494.934 299.043C497.045 300.343 498.993 302.536 500.779 305.623L517.34 336.086L519.532 332.187C520.182 331.05 520.831 329.994 521.48 329.019C522.292 327.882 523.104 326.988 523.916 326.338L555.333 300.018C556.631 299.043 557.93 298.312 559.229 297.825C560.69 297.337 562.395 297.093 564.344 297.093H603.797C607.694 297.093 610.535 297.987 612.321 299.774C614.107 301.561 615 304.405 615 308.304V466.226C615 468.338 614.675 470.125 614.026 471.587C613.539 473.049 612.727 474.268 611.59 475.243L579.93 501.563C579.281 502.213 578.225 502.782 576.764 503.269C575.465 503.756 574.004 504 572.38 504H534.875C530.816 504 527.894 503.106 526.108 501.319C524.484 499.532 523.672 496.689 523.672 492.79V428.451L509.303 440.393C508.004 441.53 506.462 442.424 504.676 443.073C503.053 443.561 501.104 443.805 498.831 443.805H495.665V466.226C495.665 468.338 495.34 470.125 494.691 471.587C494.204 473.049 493.392 474.268 492.256 475.243Z" stroke="black" stroke-width="12" mask="url(#path-1-outside-1)"/>
</svg>
