<svg width="172" height="141" viewBox="0 0 172 141" fill="none" xmlns="http://www.w3.org/2000/svg">
<mask id="path-1-outside-1" maskUnits="userSpaceOnUse" x="0" y="0" width="172" height="141" fill="black">
<rect fill="white" width="172" height="141"/>
<path d="M28.2688 58.9201H17.385C16.3101 58.9201 15.5263 58.6742 15.0336 58.1826C14.5409 57.6909 14.2946 56.9088 14.2946 55.8361V23.5881H5.09045C4.01551 23.5881 3.2317 23.3422 2.73902 22.8506C2.24634 22.3589 2 21.5767 2 20.5041V12.3918C2 11.8107 2.06718 11.3191 2.20155 10.9168C2.38071 10.5145 2.62705 10.1793 2.94057 9.91115L11.6073 2.60339C11.8312 2.42461 12.1223 2.29052 12.4806 2.20113C12.8837 2.06704 13.3092 2 13.7571 2H49.2301C50.305 2 51.0888 2.24583 51.5815 2.73748C52.0742 3.22913 52.3205 4.01131 52.3205 5.08401V13.1963C52.3205 13.7773 52.231 14.269 52.0518 14.6713C51.9174 15.0735 51.6935 15.4087 51.38 15.6769L42.6461 22.9176C42.4669 23.0964 42.1758 23.2528 41.7727 23.3869C41.4144 23.521 41.0113 23.5881 40.5634 23.5881H40.0259V48.5283C40.0259 49.1093 39.9364 49.601 39.7572 50.0033C39.6228 50.4055 39.3989 50.7407 39.0854 51.0089L30.3515 58.2496C30.1723 58.4284 29.8812 58.5849 29.4781 58.7189C29.1198 58.853 28.7167 58.9201 28.2688 58.9201ZM36.9355 50.9419C37.7865 50.9419 38.3911 50.7631 38.7494 50.4055C39.1525 50.0033 39.3541 49.3775 39.3541 48.5283V15.6099H49.2301C50.0811 15.6099 50.6857 15.4311 51.044 15.0735C51.4471 14.6713 51.6487 14.0455 51.6487 13.1963V5.08401C51.6487 4.23479 51.4471 3.6314 51.044 3.27383C50.6857 2.87157 50.0811 2.67044 49.2301 2.67044H13.7571C12.9061 2.67044 12.2791 2.87157 11.876 3.27383C11.5177 3.6314 11.3385 4.23479 11.3385 5.08401V13.1963C11.3385 14.0455 11.5177 14.6713 11.876 15.0735C12.2791 15.4311 12.9061 15.6099 13.7571 15.6099H23.6331V48.5283C23.6331 49.3775 23.8123 50.0033 24.1706 50.4055C24.5737 50.7631 25.2007 50.9419 26.0517 50.9419H36.9355ZM31.1577 44.9079V9.37481H17.385V8.70436H45.6022V9.37481H31.8295V44.9079H31.1577Z"/>
<path d="M68.97 30.6276V32.706H95.1716V30.6276C95.1716 29.4209 95.0596 28.3035 94.8357 27.2755C94.6565 26.2475 94.4102 25.2865 94.0967 24.3926L89.461 13.4645C88.9683 12.3024 88.4533 11.3414 87.9158 10.5816C87.3783 9.77707 86.4825 9.37481 85.2284 9.37481H78.6444C77.3008 9.37481 76.3602 9.77707 75.8227 10.5816C75.2853 11.3414 74.7926 12.28 74.3447 13.3974L70.0449 24.3926C69.7314 25.2865 69.4627 26.2475 69.2387 27.2755C69.0596 28.3035 68.97 29.4209 68.97 30.6276ZM79.7194 16.7496C79.8985 16.3473 80.0777 16.0568 80.2568 15.878C80.4808 15.6993 80.7271 15.6099 80.9959 15.6099H82.6755C82.9442 15.6099 83.1681 15.6993 83.3473 15.878C83.5712 16.0568 83.7728 16.3473 83.9519 16.7496L87.1096 26.9402H76.5617L79.7194 16.7496ZM95.1716 44.9079V33.3764H68.97V44.9079H68.2982V30.6276C68.2982 29.3762 68.3877 28.2364 68.5669 27.2084C68.7908 26.1357 69.082 25.1077 69.4403 24.1244L73.74 13.1292C74.2327 11.8778 74.7926 10.8274 75.4196 9.9782C76.0467 9.12898 77.1216 8.70436 78.6444 8.70436H85.2284C86.7065 8.70436 87.7366 9.12898 88.3189 9.9782C88.9459 10.8274 89.5282 11.9001 90.0657 13.1963L94.7013 24.1244C95.0596 25.1077 95.3284 26.1357 95.5075 27.2084C95.7315 28.2364 95.8434 29.3762 95.8434 30.6276V44.9079H95.1716ZM75.8899 48.5283V39.1422H87.7814V48.5283C87.7814 49.3775 87.983 50.0033 88.3861 50.4055C88.834 50.7631 89.5058 50.9419 90.4016 50.9419H100.546C101.397 50.9419 102.002 50.7631 102.36 50.4055C102.763 50.0033 102.965 49.3775 102.965 48.5283V30.8288C102.965 29.4879 102.741 27.9459 102.293 26.2028C101.89 24.4596 101.241 22.426 100.345 20.1018L94.4998 4.88288C94.231 4.12305 93.8055 3.56435 93.2233 3.20679C92.6858 2.84922 91.9916 2.67044 91.1406 2.67044H73.0682C72.1724 2.67044 71.4334 2.84922 70.8511 3.20679C70.3137 3.56435 69.9106 4.12305 69.6418 4.88288L63.7969 20.1018C62.9011 22.426 62.2292 24.4596 61.7813 26.2028C61.3782 27.9459 61.1767 29.4879 61.1767 30.8288V48.5283C61.1767 49.3775 61.3559 50.0033 61.7142 50.4055C62.1173 50.7631 62.7443 50.9419 63.5953 50.9419H73.4713C74.3223 50.9419 74.9269 50.7631 75.2853 50.4055C75.6884 50.0033 75.8899 49.3775 75.8899 48.5283ZM66.8873 58.2496C66.7081 58.4284 66.417 58.5849 66.0139 58.7189C65.6556 58.853 65.2525 58.9201 64.8046 58.9201H54.9286C53.8537 58.9201 53.0699 58.6742 52.5772 58.1826C52.0845 57.6909 51.8382 56.9088 51.8382 55.8361V38.1365C51.8382 36.751 52.0397 35.1866 52.4428 33.4435C52.8907 31.6556 53.585 29.5549 54.5255 27.1414L60.3033 11.9895C60.4377 11.5872 60.5944 11.252 60.7736 10.9839C60.9975 10.671 61.2215 10.4028 61.4454 10.1793L61.5126 10.1123L70.1121 2.93861C70.4704 2.62574 70.8959 2.40226 71.3886 2.26817C71.8813 2.08939 72.4412 2 73.0682 2H91.1406C92.1707 2 92.9993 2.22348 93.6264 2.67044C94.2982 3.0727 94.7909 3.72079 95.1044 4.6147L100.949 19.8336C101.89 22.2472 102.562 24.3479 102.965 26.1357C103.413 27.8789 103.637 29.4432 103.637 30.8288V48.5283C103.637 49.1093 103.547 49.601 103.368 50.0033C103.234 50.4055 103.01 50.7407 102.696 51.0089L93.9623 58.2496C93.7831 58.4284 93.492 58.5849 93.0889 58.7189C92.7306 58.853 92.3275 58.9201 91.8796 58.9201H81.7349C80.6152 58.9201 79.7866 58.6519 79.2491 58.1156C78.7116 57.6239 78.4429 56.8641 78.4429 55.8361V47.1204H76.5617V48.5283C76.5617 49.1093 76.4722 49.601 76.293 50.0033C76.1586 50.4055 75.9347 50.7407 75.6212 51.0089L66.8873 58.2496Z"/>
<path d="M126.82 9.24072L151.544 36.9968V8.70436H152.216V44.9079H151.544V38.0025L126.149 9.57593C126.104 9.53124 126.037 9.48654 125.947 9.44185C125.902 9.39715 125.857 9.37481 125.813 9.37481C125.768 9.37481 125.723 9.39715 125.678 9.44185C125.678 9.48654 125.678 9.53124 125.678 9.57593V44.9079H125.006V9.44185C125.006 9.17367 125.096 8.97254 125.275 8.83845C125.454 8.70437 125.633 8.63732 125.813 8.63732C125.992 8.63732 126.149 8.68202 126.283 8.77141C126.417 8.8608 126.596 9.01724 126.82 9.24072ZM130.448 50.9419C131.299 50.9419 131.904 50.7631 132.262 50.4055C132.665 50.0033 132.867 49.3775 132.867 48.5283V26.4039L144.355 40.2819V48.5283C144.355 49.3775 144.534 50.0033 144.893 50.4055C145.296 50.7631 145.923 50.9419 146.774 50.9419H156.851C157.702 50.9419 158.307 50.7631 158.665 50.4055C159.068 50.0033 159.27 49.3775 159.27 48.5283V5.08401C159.27 4.23479 159.068 3.6314 158.665 3.27383C158.307 2.87157 157.702 2.67044 156.851 2.67044H146.774C145.923 2.67044 145.296 2.87157 144.893 3.27383C144.534 3.6314 144.355 4.23479 144.355 5.08401V19.3643L131.322 4.48062C130.739 3.81018 130.135 3.34087 129.508 3.0727C128.925 2.80452 128.209 2.67044 127.358 2.67044H120.371C119.52 2.67044 118.893 2.87157 118.49 3.27383C118.131 3.6314 117.952 4.23479 117.952 5.08401V48.5283C117.952 49.3775 118.131 50.0033 118.49 50.4055C118.893 50.7631 119.52 50.9419 120.371 50.9419H130.448ZM132.598 51.0089L123.864 58.2496C123.685 58.4284 123.394 58.5849 122.991 58.7189C122.633 58.853 122.229 58.9201 121.782 58.9201H111.704C110.629 58.9201 109.845 58.6742 109.353 58.1826C108.86 57.6909 108.614 56.9088 108.614 55.8361V12.3918C108.614 11.8107 108.681 11.3191 108.815 10.9168C108.994 10.5145 109.241 10.1793 109.554 9.91115L118.221 2.60339C118.445 2.42461 118.736 2.29052 119.094 2.20113C119.497 2.06704 119.923 2 120.371 2H127.358C128.343 2 129.172 2.15643 129.844 2.4693C130.515 2.78218 131.187 3.29618 131.859 4.01131L136.495 9.37481L144.624 2.60339C144.848 2.42461 145.139 2.29052 145.497 2.20113C145.901 2.06704 146.326 2 146.774 2H156.851C157.926 2 158.71 2.24583 159.203 2.73748C159.696 3.22913 159.942 4.01131 159.942 5.08401V48.5283C159.942 49.1093 159.852 49.601 159.673 50.0033C159.539 50.4055 159.315 50.7407 159.001 51.0089L150.267 58.2496C150.088 58.4284 149.797 58.5849 149.394 58.7189C149.036 58.853 148.633 58.9201 148.185 58.9201H138.107C137.032 58.9201 136.248 58.6742 135.756 58.1826C135.263 57.6909 135.017 56.9088 135.017 55.8361V47.8579L133.539 46.0477V48.5283C133.539 49.1093 133.449 49.601 133.27 50.0033C133.136 50.4055 132.912 50.7407 132.598 51.0089Z"/>
<path d="M43.3851 135.447C41.9967 136.609 40.2275 137.48 38.0776 138.061C35.9277 138.687 33.3971 139 30.4859 139H7.84498C6.77004 139 5.98623 138.754 5.49355 138.263C5.00087 137.771 4.75453 136.989 4.75453 135.916V92.4717C4.75453 91.8907 4.82171 91.399 4.95608 90.9967C5.13524 90.5945 5.38158 90.2593 5.6951 89.9911L14.3618 82.6833C14.5857 82.5045 14.8769 82.3705 15.2352 82.2811C15.6383 82.147 16.0638 82.0799 16.5117 82.0799H39.1525C45.0199 82.0799 49.3421 83.2644 52.119 85.6332C54.9407 88.0021 56.3516 91.6001 56.3516 96.4273V117.345C56.3516 119.758 55.9932 121.882 55.2766 123.714C54.56 125.502 53.5074 126.999 52.119 128.206L43.3851 135.447ZM39.1525 131.022C44.7512 131.022 48.8942 129.904 51.5815 127.67C54.3136 125.435 55.6797 121.993 55.6797 117.345V96.4273C55.6797 91.7789 54.3136 88.3374 51.5815 86.1026C48.8942 83.8678 44.7512 82.7504 39.1525 82.7504H16.5117C15.6607 82.7504 15.0336 82.9515 14.6305 83.3538C14.2722 83.7113 14.0931 84.3147 14.0931 85.1639V128.608C14.0931 129.457 14.2722 130.083 14.6305 130.485C15.0336 130.843 15.6607 131.022 16.5117 131.022H39.1525ZM21.4161 124.988V88.7843H37.6745C39.9587 88.7843 41.7951 89.0301 43.1836 89.5218C44.6168 90.0134 45.7141 90.6839 46.4756 91.5331C47.237 92.3376 47.752 93.3209 48.0208 94.483C48.2895 95.6004 48.4239 96.8072 48.4239 98.1034V115.87C48.4239 117.166 48.2895 118.373 48.0208 119.49C47.7968 120.608 47.3042 121.569 46.5427 122.373C45.7813 123.178 44.684 123.826 43.2507 124.317C41.8175 124.764 39.9587 124.988 37.6745 124.988H21.4161ZM37.6745 89.4547H22.0879V124.317H37.6745C39.8244 124.317 41.5488 124.116 42.8476 123.714C44.1913 123.267 45.2215 122.686 45.9381 121.971C46.6547 121.211 47.125 120.317 47.3489 119.289C47.6177 118.216 47.752 117.077 47.752 115.87V98.1034C47.752 96.8966 47.6177 95.7568 47.3489 94.6841C47.0802 93.6114 46.5875 92.6952 45.8709 91.9354C45.1543 91.1755 44.1241 90.5721 42.7805 90.1252C41.4816 89.6782 39.7796 89.4547 37.6745 89.4547ZM29.3437 95.5557H37.3386C38.4135 95.5557 39.1973 95.8239 39.69 96.3602C40.2275 96.8519 40.4962 97.6564 40.4962 98.7738V115.065C40.4962 116.183 40.2275 117.01 39.69 117.546C39.1973 118.082 38.4135 118.351 37.3386 118.351H29.3437V95.5557ZM31.1577 106.082C31.1577 105.501 31.0681 105.009 30.889 104.607C30.7098 104.204 30.4187 103.914 30.0156 103.735V117.68H31.1577V106.082Z"/>
<path d="M95.8356 139H64.6624C63.5874 139 62.8036 138.754 62.3109 138.263C61.8183 137.771 61.5719 136.989 61.5719 135.916V92.4717C61.5719 91.8907 61.6391 91.399 61.7735 90.9967C61.9526 90.5945 62.199 90.2593 62.5125 89.9911L71.1792 82.6833C71.4031 82.5045 71.6943 82.3705 72.0526 82.2811C72.4557 82.147 72.8812 82.0799 73.3291 82.0799H104.502C105.577 82.0799 106.361 82.3258 106.854 82.8174C107.346 83.3091 107.593 84.0912 107.593 85.1639V93.008C107.593 93.5891 107.503 94.0808 107.324 94.483C107.19 94.8853 106.966 95.2205 106.652 95.4887L100.874 100.249C101.322 100.472 101.636 100.807 101.815 101.254C102.039 101.701 102.151 102.282 102.151 102.998V110.171C102.151 110.752 102.061 111.244 101.882 111.646C101.748 112.048 101.524 112.384 101.21 112.652L95.2309 117.68H104.502C105.577 117.68 106.361 117.926 106.854 118.418C107.346 118.909 107.593 119.691 107.593 120.764V128.608C107.593 129.189 107.503 129.681 107.324 130.083C107.19 130.485 106.966 130.821 106.652 131.089L97.9183 138.33C97.7391 138.508 97.448 138.665 97.0449 138.799C96.6866 138.933 96.2835 139 95.8356 139ZM104.502 131.022C105.353 131.022 105.958 130.843 106.316 130.485C106.719 130.083 106.921 129.457 106.921 128.608V120.764C106.921 119.915 106.719 119.312 106.316 118.954C105.958 118.552 105.353 118.351 104.502 118.351H85.9596V112.585H99.0604C99.9114 112.585 100.516 112.406 100.874 112.048C101.277 111.646 101.479 111.02 101.479 110.171V102.998C101.479 102.148 101.277 101.545 100.874 101.187C100.516 100.785 99.9114 100.584 99.0604 100.584H85.9596V95.4216H104.502C105.353 95.4216 105.958 95.2428 106.316 94.8853C106.719 94.483 106.921 93.8573 106.921 93.008V85.1639C106.921 84.3147 106.719 83.7113 106.316 83.3538C105.958 82.9515 105.353 82.7504 104.502 82.7504H73.3291C72.4781 82.7504 71.851 82.9515 71.4479 83.3538C71.0896 83.7113 70.9104 84.3147 70.9104 85.1639V128.608C70.9104 129.457 71.0896 130.083 71.4479 130.485C71.851 130.843 72.4781 131.022 73.3291 131.022H104.502ZM100.874 124.317V124.988H78.2335V88.7843H100.874V89.4547H78.9053V106.283H95.4325V106.953H78.9053V124.317H100.874Z"/>
<path d="M145.209 105.21C146.015 105.21 146.598 105.031 146.956 104.674C147.314 104.316 147.874 103.556 148.636 102.394L156.832 89.924C157.101 89.4771 157.392 89.1866 157.705 89.0525C158.064 88.8737 158.422 88.7843 158.78 88.7843H159.922C160.549 88.7843 160.997 88.9631 161.266 89.3207C161.58 89.6335 161.736 90.1475 161.736 90.8626V124.988H161.065V90.8626C161.065 90.5051 160.975 90.1922 160.796 89.924C160.661 89.6112 160.37 89.4547 159.922 89.4547H158.915C158.601 89.4547 158.332 89.4994 158.108 89.5888C157.885 89.6782 157.638 89.9464 157.369 90.3933L149.173 102.729C148.367 103.936 147.74 104.763 147.292 105.21C146.889 105.657 146.195 105.88 145.209 105.88C144.224 105.88 143.507 105.657 143.059 105.21C142.656 104.763 142.052 103.936 141.245 102.729L133.049 90.3933C132.78 89.9464 132.512 89.6782 132.243 89.5888C132.019 89.4994 131.75 89.4547 131.437 89.4547H130.429C129.981 89.4547 129.69 89.6112 129.555 89.924C129.421 90.1922 129.354 90.5051 129.354 90.8626V124.988H128.682V90.8626C128.682 90.1475 128.816 89.6335 129.085 89.3207C129.399 88.9631 129.847 88.7843 130.429 88.7843H131.571C131.929 88.7843 132.288 88.8737 132.646 89.0525C133.004 89.1866 133.318 89.4771 133.586 89.924L141.783 102.394C142.544 103.556 143.104 104.316 143.462 104.674C143.821 105.031 144.403 105.21 145.209 105.21ZM133.99 131.022C134.841 131.022 135.445 130.843 135.804 130.485C136.207 130.083 136.408 129.457 136.408 128.608V105.009L140.372 112.317C140.775 113.076 141.245 113.635 141.783 113.993C142.365 114.306 143.082 114.462 143.933 114.462H146.62C147.471 114.462 148.165 114.306 148.703 113.993C149.285 113.635 149.778 113.076 150.181 112.317L154.145 105.009V128.608C154.145 129.457 154.324 130.083 154.682 130.485C155.085 130.843 155.712 131.022 156.563 131.022H166.91C167.761 131.022 168.365 130.843 168.724 130.485C169.127 130.083 169.328 129.457 169.328 128.608V85.1639C169.328 84.3147 169.127 83.7113 168.724 83.3538C168.365 82.9515 167.761 82.7504 166.91 82.7504H156.026C155.309 82.7504 154.705 82.9068 154.212 83.2197C153.764 83.5326 153.338 84.0465 152.935 84.7617L146.956 95.6898C146.732 96.0921 146.531 96.3826 146.351 96.5614C146.217 96.7402 146.015 96.8295 145.747 96.8295H145.142C144.873 96.8295 144.649 96.7402 144.47 96.5614C144.336 96.3826 144.157 96.0921 143.933 95.6898L137.886 84.7617C137.483 84.0465 137.035 83.5326 136.543 83.2197C136.095 82.9068 135.512 82.7504 134.796 82.7504H123.979C123.128 82.7504 122.501 82.9515 122.098 83.3538C121.74 83.7113 121.561 84.3147 121.561 85.1639V128.608C121.561 129.457 121.74 130.083 122.098 130.485C122.501 130.843 123.128 131.022 123.979 131.022H133.99ZM136.139 131.089L127.406 138.33C127.226 138.508 126.935 138.665 126.532 138.799C126.174 138.933 125.771 139 125.323 139H115.313C114.238 139 113.454 138.754 112.961 138.263C112.468 137.771 112.222 136.989 112.222 135.916V92.4717C112.222 91.8907 112.289 91.399 112.424 90.9967C112.603 90.5945 112.849 90.2593 113.163 89.9911L121.829 82.6833C122.053 82.5045 122.344 82.3705 122.703 82.2811C123.106 82.147 123.531 82.0799 123.979 82.0799H134.796C135.647 82.0799 136.341 82.2587 136.878 82.6163C137.461 82.9739 137.998 83.5772 138.491 84.4265L143.059 92.8069L143.664 91.7342C143.843 91.4214 144.022 91.1308 144.201 90.8626C144.425 90.5498 144.649 90.304 144.873 90.1252L153.54 82.8845C153.898 82.6163 154.257 82.4152 154.615 82.2811C155.018 82.147 155.488 82.0799 156.026 82.0799H166.91C167.984 82.0799 168.768 82.3258 169.261 82.8174C169.754 83.3091 170 84.0912 170 85.1639V128.608C170 129.189 169.91 129.681 169.731 130.083C169.597 130.485 169.373 130.821 169.059 131.089L160.326 138.33C160.146 138.508 159.855 138.665 159.452 138.799C159.094 138.933 158.691 139 158.243 139H147.897C146.777 139 145.971 138.754 145.478 138.263C145.03 137.771 144.806 136.989 144.806 135.916V118.216L140.842 121.502C140.484 121.814 140.059 122.06 139.566 122.239C139.118 122.373 138.58 122.44 137.953 122.44H137.08V128.608C137.08 129.189 136.99 129.681 136.811 130.083C136.677 130.485 136.453 130.821 136.139 131.089Z"/>
</mask>
<path d="M28.2688 58.9201H17.385C16.3101 58.9201 15.5263 58.6742 15.0336 58.1826C14.5409 57.6909 14.2946 56.9088 14.2946 55.8361V23.5881H5.09045C4.01551 23.5881 3.2317 23.3422 2.73902 22.8506C2.24634 22.3589 2 21.5767 2 20.5041V12.3918C2 11.8107 2.06718 11.3191 2.20155 10.9168C2.38071 10.5145 2.62705 10.1793 2.94057 9.91115L11.6073 2.60339C11.8312 2.42461 12.1223 2.29052 12.4806 2.20113C12.8837 2.06704 13.3092 2 13.7571 2H49.2301C50.305 2 51.0888 2.24583 51.5815 2.73748C52.0742 3.22913 52.3205 4.01131 52.3205 5.08401V13.1963C52.3205 13.7773 52.231 14.269 52.0518 14.6713C51.9174 15.0735 51.6935 15.4087 51.38 15.6769L42.6461 22.9176C42.4669 23.0964 42.1758 23.2528 41.7727 23.3869C41.4144 23.521 41.0113 23.5881 40.5634 23.5881H40.0259V48.5283C40.0259 49.1093 39.9364 49.601 39.7572 50.0033C39.6228 50.4055 39.3989 50.7407 39.0854 51.0089L30.3515 58.2496C30.1723 58.4284 29.8812 58.5849 29.4781 58.7189C29.1198 58.853 28.7167 58.9201 28.2688 58.9201ZM36.9355 50.9419C37.7865 50.9419 38.3911 50.7631 38.7494 50.4055C39.1525 50.0033 39.3541 49.3775 39.3541 48.5283V15.6099H49.2301C50.0811 15.6099 50.6857 15.4311 51.044 15.0735C51.4471 14.6713 51.6487 14.0455 51.6487 13.1963V5.08401C51.6487 4.23479 51.4471 3.6314 51.044 3.27383C50.6857 2.87157 50.0811 2.67044 49.2301 2.67044H13.7571C12.9061 2.67044 12.2791 2.87157 11.876 3.27383C11.5177 3.6314 11.3385 4.23479 11.3385 5.08401V13.1963C11.3385 14.0455 11.5177 14.6713 11.876 15.0735C12.2791 15.4311 12.9061 15.6099 13.7571 15.6099H23.6331V48.5283C23.6331 49.3775 23.8123 50.0033 24.1706 50.4055C24.5737 50.7631 25.2007 50.9419 26.0517 50.9419H36.9355ZM31.1577 44.9079V9.37481H17.385V8.70436H45.6022V9.37481H31.8295V44.9079H31.1577Z" fill="#441459"/>
<path d="M68.97 30.6276V32.706H95.1716V30.6276C95.1716 29.4209 95.0596 28.3035 94.8357 27.2755C94.6565 26.2475 94.4102 25.2865 94.0967 24.3926L89.461 13.4645C88.9683 12.3024 88.4533 11.3414 87.9158 10.5816C87.3783 9.77707 86.4825 9.37481 85.2284 9.37481H78.6444C77.3008 9.37481 76.3602 9.77707 75.8227 10.5816C75.2853 11.3414 74.7926 12.28 74.3447 13.3974L70.0449 24.3926C69.7314 25.2865 69.4627 26.2475 69.2387 27.2755C69.0596 28.3035 68.97 29.4209 68.97 30.6276ZM79.7194 16.7496C79.8985 16.3473 80.0777 16.0568 80.2568 15.878C80.4808 15.6993 80.7271 15.6099 80.9959 15.6099H82.6755C82.9442 15.6099 83.1681 15.6993 83.3473 15.878C83.5712 16.0568 83.7728 16.3473 83.9519 16.7496L87.1096 26.9402H76.5617L79.7194 16.7496ZM95.1716 44.9079V33.3764H68.97V44.9079H68.2982V30.6276C68.2982 29.3762 68.3877 28.2364 68.5669 27.2084C68.7908 26.1357 69.082 25.1077 69.4403 24.1244L73.74 13.1292C74.2327 11.8778 74.7926 10.8274 75.4196 9.9782C76.0467 9.12898 77.1216 8.70436 78.6444 8.70436H85.2284C86.7065 8.70436 87.7366 9.12898 88.3189 9.9782C88.9459 10.8274 89.5282 11.9001 90.0657 13.1963L94.7013 24.1244C95.0596 25.1077 95.3284 26.1357 95.5075 27.2084C95.7315 28.2364 95.8434 29.3762 95.8434 30.6276V44.9079H95.1716ZM75.8899 48.5283V39.1422H87.7814V48.5283C87.7814 49.3775 87.983 50.0033 88.3861 50.4055C88.834 50.7631 89.5058 50.9419 90.4016 50.9419H100.546C101.397 50.9419 102.002 50.7631 102.36 50.4055C102.763 50.0033 102.965 49.3775 102.965 48.5283V30.8288C102.965 29.4879 102.741 27.9459 102.293 26.2028C101.89 24.4596 101.241 22.426 100.345 20.1018L94.4998 4.88288C94.231 4.12305 93.8055 3.56435 93.2233 3.20679C92.6858 2.84922 91.9916 2.67044 91.1406 2.67044H73.0682C72.1724 2.67044 71.4334 2.84922 70.8511 3.20679C70.3137 3.56435 69.9106 4.12305 69.6418 4.88288L63.7969 20.1018C62.9011 22.426 62.2292 24.4596 61.7813 26.2028C61.3782 27.9459 61.1767 29.4879 61.1767 30.8288V48.5283C61.1767 49.3775 61.3559 50.0033 61.7142 50.4055C62.1173 50.7631 62.7443 50.9419 63.5953 50.9419H73.4713C74.3223 50.9419 74.9269 50.7631 75.2853 50.4055C75.6884 50.0033 75.8899 49.3775 75.8899 48.5283ZM66.8873 58.2496C66.7081 58.4284 66.417 58.5849 66.0139 58.7189C65.6556 58.853 65.2525 58.9201 64.8046 58.9201H54.9286C53.8537 58.9201 53.0699 58.6742 52.5772 58.1826C52.0845 57.6909 51.8382 56.9088 51.8382 55.8361V38.1365C51.8382 36.751 52.0397 35.1866 52.4428 33.4435C52.8907 31.6556 53.585 29.5549 54.5255 27.1414L60.3033 11.9895C60.4377 11.5872 60.5944 11.252 60.7736 10.9839C60.9975 10.671 61.2215 10.4028 61.4454 10.1793L61.5126 10.1123L70.1121 2.93861C70.4704 2.62574 70.8959 2.40226 71.3886 2.26817C71.8813 2.08939 72.4412 2 73.0682 2H91.1406C92.1707 2 92.9993 2.22348 93.6264 2.67044C94.2982 3.0727 94.7909 3.72079 95.1044 4.6147L100.949 19.8336C101.89 22.2472 102.562 24.3479 102.965 26.1357C103.413 27.8789 103.637 29.4432 103.637 30.8288V48.5283C103.637 49.1093 103.547 49.601 103.368 50.0033C103.234 50.4055 103.01 50.7407 102.696 51.0089L93.9623 58.2496C93.7831 58.4284 93.492 58.5849 93.0889 58.7189C92.7306 58.853 92.3275 58.9201 91.8796 58.9201H81.7349C80.6152 58.9201 79.7866 58.6519 79.2491 58.1156C78.7116 57.6239 78.4429 56.8641 78.4429 55.8361V47.1204H76.5617V48.5283C76.5617 49.1093 76.4722 49.601 76.293 50.0033C76.1586 50.4055 75.9347 50.7407 75.6212 51.0089L66.8873 58.2496Z" fill="#441459"/>
<path d="M126.82 9.24072L151.544 36.9968V8.70436H152.216V44.9079H151.544V38.0025L126.149 9.57593C126.104 9.53124 126.037 9.48654 125.947 9.44185C125.902 9.39715 125.857 9.37481 125.813 9.37481C125.768 9.37481 125.723 9.39715 125.678 9.44185C125.678 9.48654 125.678 9.53124 125.678 9.57593V44.9079H125.006V9.44185C125.006 9.17367 125.096 8.97254 125.275 8.83845C125.454 8.70437 125.633 8.63732 125.813 8.63732C125.992 8.63732 126.149 8.68202 126.283 8.77141C126.417 8.8608 126.596 9.01724 126.82 9.24072ZM130.448 50.9419C131.299 50.9419 131.904 50.7631 132.262 50.4055C132.665 50.0033 132.867 49.3775 132.867 48.5283V26.4039L144.355 40.2819V48.5283C144.355 49.3775 144.534 50.0033 144.893 50.4055C145.296 50.7631 145.923 50.9419 146.774 50.9419H156.851C157.702 50.9419 158.307 50.7631 158.665 50.4055C159.068 50.0033 159.27 49.3775 159.27 48.5283V5.08401C159.27 4.23479 159.068 3.6314 158.665 3.27383C158.307 2.87157 157.702 2.67044 156.851 2.67044H146.774C145.923 2.67044 145.296 2.87157 144.893 3.27383C144.534 3.6314 144.355 4.23479 144.355 5.08401V19.3643L131.322 4.48062C130.739 3.81018 130.135 3.34087 129.508 3.0727C128.925 2.80452 128.209 2.67044 127.358 2.67044H120.371C119.52 2.67044 118.893 2.87157 118.49 3.27383C118.131 3.6314 117.952 4.23479 117.952 5.08401V48.5283C117.952 49.3775 118.131 50.0033 118.49 50.4055C118.893 50.7631 119.52 50.9419 120.371 50.9419H130.448ZM132.598 51.0089L123.864 58.2496C123.685 58.4284 123.394 58.5849 122.991 58.7189C122.633 58.853 122.229 58.9201 121.782 58.9201H111.704C110.629 58.9201 109.845 58.6742 109.353 58.1826C108.86 57.6909 108.614 56.9088 108.614 55.8361V12.3918C108.614 11.8107 108.681 11.3191 108.815 10.9168C108.994 10.5145 109.241 10.1793 109.554 9.91115L118.221 2.60339C118.445 2.42461 118.736 2.29052 119.094 2.20113C119.497 2.06704 119.923 2 120.371 2H127.358C128.343 2 129.172 2.15643 129.844 2.4693C130.515 2.78218 131.187 3.29618 131.859 4.01131L136.495 9.37481L144.624 2.60339C144.848 2.42461 145.139 2.29052 145.497 2.20113C145.901 2.06704 146.326 2 146.774 2H156.851C157.926 2 158.71 2.24583 159.203 2.73748C159.696 3.22913 159.942 4.01131 159.942 5.08401V48.5283C159.942 49.1093 159.852 49.601 159.673 50.0033C159.539 50.4055 159.315 50.7407 159.001 51.0089L150.267 58.2496C150.088 58.4284 149.797 58.5849 149.394 58.7189C149.036 58.853 148.633 58.9201 148.185 58.9201H138.107C137.032 58.9201 136.248 58.6742 135.756 58.1826C135.263 57.6909 135.017 56.9088 135.017 55.8361V47.8579L133.539 46.0477V48.5283C133.539 49.1093 133.449 49.601 133.27 50.0033C133.136 50.4055 132.912 50.7407 132.598 51.0089Z" fill="#441459"/>
<path d="M43.3851 135.447C41.9967 136.609 40.2275 137.48 38.0776 138.061C35.9277 138.687 33.3971 139 30.4859 139H7.84498C6.77004 139 5.98623 138.754 5.49355 138.263C5.00087 137.771 4.75453 136.989 4.75453 135.916V92.4717C4.75453 91.8907 4.82171 91.399 4.95608 90.9967C5.13524 90.5945 5.38158 90.2593 5.6951 89.9911L14.3618 82.6833C14.5857 82.5045 14.8769 82.3705 15.2352 82.2811C15.6383 82.147 16.0638 82.0799 16.5117 82.0799H39.1525C45.0199 82.0799 49.3421 83.2644 52.119 85.6332C54.9407 88.0021 56.3516 91.6001 56.3516 96.4273V117.345C56.3516 119.758 55.9932 121.882 55.2766 123.714C54.56 125.502 53.5074 126.999 52.119 128.206L43.3851 135.447ZM39.1525 131.022C44.7512 131.022 48.8942 129.904 51.5815 127.67C54.3136 125.435 55.6797 121.993 55.6797 117.345V96.4273C55.6797 91.7789 54.3136 88.3374 51.5815 86.1026C48.8942 83.8678 44.7512 82.7504 39.1525 82.7504H16.5117C15.6607 82.7504 15.0336 82.9515 14.6305 83.3538C14.2722 83.7113 14.0931 84.3147 14.0931 85.1639V128.608C14.0931 129.457 14.2722 130.083 14.6305 130.485C15.0336 130.843 15.6607 131.022 16.5117 131.022H39.1525ZM21.4161 124.988V88.7843H37.6745C39.9587 88.7843 41.7951 89.0301 43.1836 89.5218C44.6168 90.0134 45.7141 90.6839 46.4756 91.5331C47.237 92.3376 47.752 93.3209 48.0208 94.483C48.2895 95.6004 48.4239 96.8072 48.4239 98.1034V115.87C48.4239 117.166 48.2895 118.373 48.0208 119.49C47.7968 120.608 47.3042 121.569 46.5427 122.373C45.7813 123.178 44.684 123.826 43.2507 124.317C41.8175 124.764 39.9587 124.988 37.6745 124.988H21.4161ZM37.6745 89.4547H22.0879V124.317H37.6745C39.8244 124.317 41.5488 124.116 42.8476 123.714C44.1913 123.267 45.2215 122.686 45.9381 121.971C46.6547 121.211 47.125 120.317 47.3489 119.289C47.6177 118.216 47.752 117.077 47.752 115.87V98.1034C47.752 96.8966 47.6177 95.7568 47.3489 94.6841C47.0802 93.6114 46.5875 92.6952 45.8709 91.9354C45.1543 91.1755 44.1241 90.5721 42.7805 90.1252C41.4816 89.6782 39.7796 89.4547 37.6745 89.4547ZM29.3437 95.5557H37.3386C38.4135 95.5557 39.1973 95.8239 39.69 96.3602C40.2275 96.8519 40.4962 97.6564 40.4962 98.7738V115.065C40.4962 116.183 40.2275 117.01 39.69 117.546C39.1973 118.082 38.4135 118.351 37.3386 118.351H29.3437V95.5557ZM31.1577 106.082C31.1577 105.501 31.0681 105.009 30.889 104.607C30.7098 104.204 30.4187 103.914 30.0156 103.735V117.68H31.1577V106.082Z" fill="#441459"/>
<path d="M95.8356 139H64.6624C63.5874 139 62.8036 138.754 62.3109 138.263C61.8183 137.771 61.5719 136.989 61.5719 135.916V92.4717C61.5719 91.8907 61.6391 91.399 61.7735 90.9967C61.9526 90.5945 62.199 90.2593 62.5125 89.9911L71.1792 82.6833C71.4031 82.5045 71.6943 82.3705 72.0526 82.2811C72.4557 82.147 72.8812 82.0799 73.3291 82.0799H104.502C105.577 82.0799 106.361 82.3258 106.854 82.8174C107.346 83.3091 107.593 84.0912 107.593 85.1639V93.008C107.593 93.5891 107.503 94.0808 107.324 94.483C107.19 94.8853 106.966 95.2205 106.652 95.4887L100.874 100.249C101.322 100.472 101.636 100.807 101.815 101.254C102.039 101.701 102.151 102.282 102.151 102.998V110.171C102.151 110.752 102.061 111.244 101.882 111.646C101.748 112.048 101.524 112.384 101.21 112.652L95.2309 117.68H104.502C105.577 117.68 106.361 117.926 106.854 118.418C107.346 118.909 107.593 119.691 107.593 120.764V128.608C107.593 129.189 107.503 129.681 107.324 130.083C107.19 130.485 106.966 130.821 106.652 131.089L97.9183 138.33C97.7391 138.508 97.448 138.665 97.0449 138.799C96.6866 138.933 96.2835 139 95.8356 139ZM104.502 131.022C105.353 131.022 105.958 130.843 106.316 130.485C106.719 130.083 106.921 129.457 106.921 128.608V120.764C106.921 119.915 106.719 119.312 106.316 118.954C105.958 118.552 105.353 118.351 104.502 118.351H85.9596V112.585H99.0604C99.9114 112.585 100.516 112.406 100.874 112.048C101.277 111.646 101.479 111.02 101.479 110.171V102.998C101.479 102.148 101.277 101.545 100.874 101.187C100.516 100.785 99.9114 100.584 99.0604 100.584H85.9596V95.4216H104.502C105.353 95.4216 105.958 95.2428 106.316 94.8853C106.719 94.483 106.921 93.8573 106.921 93.008V85.1639C106.921 84.3147 106.719 83.7113 106.316 83.3538C105.958 82.9515 105.353 82.7504 104.502 82.7504H73.3291C72.4781 82.7504 71.851 82.9515 71.4479 83.3538C71.0896 83.7113 70.9104 84.3147 70.9104 85.1639V128.608C70.9104 129.457 71.0896 130.083 71.4479 130.485C71.851 130.843 72.4781 131.022 73.3291 131.022H104.502ZM100.874 124.317V124.988H78.2335V88.7843H100.874V89.4547H78.9053V106.283H95.4325V106.953H78.9053V124.317H100.874Z" fill="#441459"/>
<path d="M145.209 105.21C146.015 105.21 146.598 105.031 146.956 104.674C147.314 104.316 147.874 103.556 148.636 102.394L156.832 89.924C157.101 89.4771 157.392 89.1866 157.705 89.0525C158.064 88.8737 158.422 88.7843 158.78 88.7843H159.922C160.549 88.7843 160.997 88.9631 161.266 89.3207C161.58 89.6335 161.736 90.1475 161.736 90.8626V124.988H161.065V90.8626C161.065 90.5051 160.975 90.1922 160.796 89.924C160.661 89.6112 160.37 89.4547 159.922 89.4547H158.915C158.601 89.4547 158.332 89.4994 158.108 89.5888C157.885 89.6782 157.638 89.9464 157.369 90.3933L149.173 102.729C148.367 103.936 147.74 104.763 147.292 105.21C146.889 105.657 146.195 105.88 145.209 105.88C144.224 105.88 143.507 105.657 143.059 105.21C142.656 104.763 142.052 103.936 141.245 102.729L133.049 90.3933C132.78 89.9464 132.512 89.6782 132.243 89.5888C132.019 89.4994 131.75 89.4547 131.437 89.4547H130.429C129.981 89.4547 129.69 89.6112 129.555 89.924C129.421 90.1922 129.354 90.5051 129.354 90.8626V124.988H128.682V90.8626C128.682 90.1475 128.816 89.6335 129.085 89.3207C129.399 88.9631 129.847 88.7843 130.429 88.7843H131.571C131.929 88.7843 132.288 88.8737 132.646 89.0525C133.004 89.1866 133.318 89.4771 133.586 89.924L141.783 102.394C142.544 103.556 143.104 104.316 143.462 104.674C143.821 105.031 144.403 105.21 145.209 105.21ZM133.99 131.022C134.841 131.022 135.445 130.843 135.804 130.485C136.207 130.083 136.408 129.457 136.408 128.608V105.009L140.372 112.317C140.775 113.076 141.245 113.635 141.783 113.993C142.365 114.306 143.082 114.462 143.933 114.462H146.62C147.471 114.462 148.165 114.306 148.703 113.993C149.285 113.635 149.778 113.076 150.181 112.317L154.145 105.009V128.608C154.145 129.457 154.324 130.083 154.682 130.485C155.085 130.843 155.712 131.022 156.563 131.022H166.91C167.761 131.022 168.365 130.843 168.724 130.485C169.127 130.083 169.328 129.457 169.328 128.608V85.1639C169.328 84.3147 169.127 83.7113 168.724 83.3538C168.365 82.9515 167.761 82.7504 166.91 82.7504H156.026C155.309 82.7504 154.705 82.9068 154.212 83.2197C153.764 83.5326 153.338 84.0465 152.935 84.7617L146.956 95.6898C146.732 96.0921 146.531 96.3826 146.351 96.5614C146.217 96.7402 146.015 96.8295 145.747 96.8295H145.142C144.873 96.8295 144.649 96.7402 144.47 96.5614C144.336 96.3826 144.157 96.0921 143.933 95.6898L137.886 84.7617C137.483 84.0465 137.035 83.5326 136.543 83.2197C136.095 82.9068 135.512 82.7504 134.796 82.7504H123.979C123.128 82.7504 122.501 82.9515 122.098 83.3538C121.74 83.7113 121.561 84.3147 121.561 85.1639V128.608C121.561 129.457 121.74 130.083 122.098 130.485C122.501 130.843 123.128 131.022 123.979 131.022H133.99ZM136.139 131.089L127.406 138.33C127.226 138.508 126.935 138.665 126.532 138.799C126.174 138.933 125.771 139 125.323 139H115.313C114.238 139 113.454 138.754 112.961 138.263C112.468 137.771 112.222 136.989 112.222 135.916V92.4717C112.222 91.8907 112.289 91.399 112.424 90.9967C112.603 90.5945 112.849 90.2593 113.163 89.9911L121.829 82.6833C122.053 82.5045 122.344 82.3705 122.703 82.2811C123.106 82.147 123.531 82.0799 123.979 82.0799H134.796C135.647 82.0799 136.341 82.2587 136.878 82.6163C137.461 82.9739 137.998 83.5772 138.491 84.4265L143.059 92.8069L143.664 91.7342C143.843 91.4214 144.022 91.1308 144.201 90.8626C144.425 90.5498 144.649 90.304 144.873 90.1252L153.54 82.8845C153.898 82.6163 154.257 82.4152 154.615 82.2811C155.018 82.147 155.488 82.0799 156.026 82.0799H166.91C167.984 82.0799 168.768 82.3258 169.261 82.8174C169.754 83.3091 170 84.0912 170 85.1639V128.608C170 129.189 169.91 129.681 169.731 130.083C169.597 130.485 169.373 130.821 169.059 131.089L160.326 138.33C160.146 138.508 159.855 138.665 159.452 138.799C159.094 138.933 158.691 139 158.243 139H147.897C146.777 139 145.971 138.754 145.478 138.263C145.03 137.771 144.806 136.989 144.806 135.916V118.216L140.842 121.502C140.484 121.814 140.059 122.06 139.566 122.239C139.118 122.373 138.58 122.44 137.953 122.44H137.08V128.608C137.08 129.189 136.99 129.681 136.811 130.083C136.677 130.485 136.453 130.821 136.139 131.089Z" fill="#441459"/>
<path d="M28.2688 58.9201H17.385C16.3101 58.9201 15.5263 58.6742 15.0336 58.1826C14.5409 57.6909 14.2946 56.9088 14.2946 55.8361V23.5881H5.09045C4.01551 23.5881 3.2317 23.3422 2.73902 22.8506C2.24634 22.3589 2 21.5767 2 20.5041V12.3918C2 11.8107 2.06718 11.3191 2.20155 10.9168C2.38071 10.5145 2.62705 10.1793 2.94057 9.91115L11.6073 2.60339C11.8312 2.42461 12.1223 2.29052 12.4806 2.20113C12.8837 2.06704 13.3092 2 13.7571 2H49.2301C50.305 2 51.0888 2.24583 51.5815 2.73748C52.0742 3.22913 52.3205 4.01131 52.3205 5.08401V13.1963C52.3205 13.7773 52.231 14.269 52.0518 14.6713C51.9174 15.0735 51.6935 15.4087 51.38 15.6769L42.6461 22.9176C42.4669 23.0964 42.1758 23.2528 41.7727 23.3869C41.4144 23.521 41.0113 23.5881 40.5634 23.5881H40.0259V48.5283C40.0259 49.1093 39.9364 49.601 39.7572 50.0033C39.6228 50.4055 39.3989 50.7407 39.0854 51.0089L30.3515 58.2496C30.1723 58.4284 29.8812 58.5849 29.4781 58.7189C29.1198 58.853 28.7167 58.9201 28.2688 58.9201ZM36.9355 50.9419C37.7865 50.9419 38.3911 50.7631 38.7494 50.4055C39.1525 50.0033 39.3541 49.3775 39.3541 48.5283V15.6099H49.2301C50.0811 15.6099 50.6857 15.4311 51.044 15.0735C51.4471 14.6713 51.6487 14.0455 51.6487 13.1963V5.08401C51.6487 4.23479 51.4471 3.6314 51.044 3.27383C50.6857 2.87157 50.0811 2.67044 49.2301 2.67044H13.7571C12.9061 2.67044 12.2791 2.87157 11.876 3.27383C11.5177 3.6314 11.3385 4.23479 11.3385 5.08401V13.1963C11.3385 14.0455 11.5177 14.6713 11.876 15.0735C12.2791 15.4311 12.9061 15.6099 13.7571 15.6099H23.6331V48.5283C23.6331 49.3775 23.8123 50.0033 24.1706 50.4055C24.5737 50.7631 25.2007 50.9419 26.0517 50.9419H36.9355ZM31.1577 44.9079V9.37481H17.385V8.70436H45.6022V9.37481H31.8295V44.9079H31.1577Z" stroke="#F23869" stroke-width="3" mask="url(#path-1-outside-1)"/>
<path d="M68.97 30.6276V32.706H95.1716V30.6276C95.1716 29.4209 95.0596 28.3035 94.8357 27.2755C94.6565 26.2475 94.4102 25.2865 94.0967 24.3926L89.461 13.4645C88.9683 12.3024 88.4533 11.3414 87.9158 10.5816C87.3783 9.77707 86.4825 9.37481 85.2284 9.37481H78.6444C77.3008 9.37481 76.3602 9.77707 75.8227 10.5816C75.2853 11.3414 74.7926 12.28 74.3447 13.3974L70.0449 24.3926C69.7314 25.2865 69.4627 26.2475 69.2387 27.2755C69.0596 28.3035 68.97 29.4209 68.97 30.6276ZM79.7194 16.7496C79.8985 16.3473 80.0777 16.0568 80.2568 15.878C80.4808 15.6993 80.7271 15.6099 80.9959 15.6099H82.6755C82.9442 15.6099 83.1681 15.6993 83.3473 15.878C83.5712 16.0568 83.7728 16.3473 83.9519 16.7496L87.1096 26.9402H76.5617L79.7194 16.7496ZM95.1716 44.9079V33.3764H68.97V44.9079H68.2982V30.6276C68.2982 29.3762 68.3877 28.2364 68.5669 27.2084C68.7908 26.1357 69.082 25.1077 69.4403 24.1244L73.74 13.1292C74.2327 11.8778 74.7926 10.8274 75.4196 9.9782C76.0467 9.12898 77.1216 8.70436 78.6444 8.70436H85.2284C86.7065 8.70436 87.7366 9.12898 88.3189 9.9782C88.9459 10.8274 89.5282 11.9001 90.0657 13.1963L94.7013 24.1244C95.0596 25.1077 95.3284 26.1357 95.5075 27.2084C95.7315 28.2364 95.8434 29.3762 95.8434 30.6276V44.9079H95.1716ZM75.8899 48.5283V39.1422H87.7814V48.5283C87.7814 49.3775 87.983 50.0033 88.3861 50.4055C88.834 50.7631 89.5058 50.9419 90.4016 50.9419H100.546C101.397 50.9419 102.002 50.7631 102.36 50.4055C102.763 50.0033 102.965 49.3775 102.965 48.5283V30.8288C102.965 29.4879 102.741 27.9459 102.293 26.2028C101.89 24.4596 101.241 22.426 100.345 20.1018L94.4998 4.88288C94.231 4.12305 93.8055 3.56435 93.2233 3.20679C92.6858 2.84922 91.9916 2.67044 91.1406 2.67044H73.0682C72.1724 2.67044 71.4334 2.84922 70.8511 3.20679C70.3137 3.56435 69.9106 4.12305 69.6418 4.88288L63.7969 20.1018C62.9011 22.426 62.2292 24.4596 61.7813 26.2028C61.3782 27.9459 61.1767 29.4879 61.1767 30.8288V48.5283C61.1767 49.3775 61.3559 50.0033 61.7142 50.4055C62.1173 50.7631 62.7443 50.9419 63.5953 50.9419H73.4713C74.3223 50.9419 74.9269 50.7631 75.2853 50.4055C75.6884 50.0033 75.8899 49.3775 75.8899 48.5283ZM66.8873 58.2496C66.7081 58.4284 66.417 58.5849 66.0139 58.7189C65.6556 58.853 65.2525 58.9201 64.8046 58.9201H54.9286C53.8537 58.9201 53.0699 58.6742 52.5772 58.1826C52.0845 57.6909 51.8382 56.9088 51.8382 55.8361V38.1365C51.8382 36.751 52.0397 35.1866 52.4428 33.4435C52.8907 31.6556 53.585 29.5549 54.5255 27.1414L60.3033 11.9895C60.4377 11.5872 60.5944 11.252 60.7736 10.9839C60.9975 10.671 61.2215 10.4028 61.4454 10.1793L61.5126 10.1123L70.1121 2.93861C70.4704 2.62574 70.8959 2.40226 71.3886 2.26817C71.8813 2.08939 72.4412 2 73.0682 2H91.1406C92.1707 2 92.9993 2.22348 93.6264 2.67044C94.2982 3.0727 94.7909 3.72079 95.1044 4.6147L100.949 19.8336C101.89 22.2472 102.562 24.3479 102.965 26.1357C103.413 27.8789 103.637 29.4432 103.637 30.8288V48.5283C103.637 49.1093 103.547 49.601 103.368 50.0033C103.234 50.4055 103.01 50.7407 102.696 51.0089L93.9623 58.2496C93.7831 58.4284 93.492 58.5849 93.0889 58.7189C92.7306 58.853 92.3275 58.9201 91.8796 58.9201H81.7349C80.6152 58.9201 79.7866 58.6519 79.2491 58.1156C78.7116 57.6239 78.4429 56.8641 78.4429 55.8361V47.1204H76.5617V48.5283C76.5617 49.1093 76.4722 49.601 76.293 50.0033C76.1586 50.4055 75.9347 50.7407 75.6212 51.0089L66.8873 58.2496Z" stroke="#F23869" stroke-width="3" mask="url(#path-1-outside-1)"/>
<path d="M126.82 9.24072L151.544 36.9968V8.70436H152.216V44.9079H151.544V38.0025L126.149 9.57593C126.104 9.53124 126.037 9.48654 125.947 9.44185C125.902 9.39715 125.857 9.37481 125.813 9.37481C125.768 9.37481 125.723 9.39715 125.678 9.44185C125.678 9.48654 125.678 9.53124 125.678 9.57593V44.9079H125.006V9.44185C125.006 9.17367 125.096 8.97254 125.275 8.83845C125.454 8.70437 125.633 8.63732 125.813 8.63732C125.992 8.63732 126.149 8.68202 126.283 8.77141C126.417 8.8608 126.596 9.01724 126.82 9.24072ZM130.448 50.9419C131.299 50.9419 131.904 50.7631 132.262 50.4055C132.665 50.0033 132.867 49.3775 132.867 48.5283V26.4039L144.355 40.2819V48.5283C144.355 49.3775 144.534 50.0033 144.893 50.4055C145.296 50.7631 145.923 50.9419 146.774 50.9419H156.851C157.702 50.9419 158.307 50.7631 158.665 50.4055C159.068 50.0033 159.27 49.3775 159.27 48.5283V5.08401C159.27 4.23479 159.068 3.6314 158.665 3.27383C158.307 2.87157 157.702 2.67044 156.851 2.67044H146.774C145.923 2.67044 145.296 2.87157 144.893 3.27383C144.534 3.6314 144.355 4.23479 144.355 5.08401V19.3643L131.322 4.48062C130.739 3.81018 130.135 3.34087 129.508 3.0727C128.925 2.80452 128.209 2.67044 127.358 2.67044H120.371C119.52 2.67044 118.893 2.87157 118.49 3.27383C118.131 3.6314 117.952 4.23479 117.952 5.08401V48.5283C117.952 49.3775 118.131 50.0033 118.49 50.4055C118.893 50.7631 119.52 50.9419 120.371 50.9419H130.448ZM132.598 51.0089L123.864 58.2496C123.685 58.4284 123.394 58.5849 122.991 58.7189C122.633 58.853 122.229 58.9201 121.782 58.9201H111.704C110.629 58.9201 109.845 58.6742 109.353 58.1826C108.86 57.6909 108.614 56.9088 108.614 55.8361V12.3918C108.614 11.8107 108.681 11.3191 108.815 10.9168C108.994 10.5145 109.241 10.1793 109.554 9.91115L118.221 2.60339C118.445 2.42461 118.736 2.29052 119.094 2.20113C119.497 2.06704 119.923 2 120.371 2H127.358C128.343 2 129.172 2.15643 129.844 2.4693C130.515 2.78218 131.187 3.29618 131.859 4.01131L136.495 9.37481L144.624 2.60339C144.848 2.42461 145.139 2.29052 145.497 2.20113C145.901 2.06704 146.326 2 146.774 2H156.851C157.926 2 158.71 2.24583 159.203 2.73748C159.696 3.22913 159.942 4.01131 159.942 5.08401V48.5283C159.942 49.1093 159.852 49.601 159.673 50.0033C159.539 50.4055 159.315 50.7407 159.001 51.0089L150.267 58.2496C150.088 58.4284 149.797 58.5849 149.394 58.7189C149.036 58.853 148.633 58.9201 148.185 58.9201H138.107C137.032 58.9201 136.248 58.6742 135.756 58.1826C135.263 57.6909 135.017 56.9088 135.017 55.8361V47.8579L133.539 46.0477V48.5283C133.539 49.1093 133.449 49.601 133.27 50.0033C133.136 50.4055 132.912 50.7407 132.598 51.0089Z" stroke="#F23869" stroke-width="3" mask="url(#path-1-outside-1)"/>
<path d="M43.3851 135.447C41.9967 136.609 40.2275 137.48 38.0776 138.061C35.9277 138.687 33.3971 139 30.4859 139H7.84498C6.77004 139 5.98623 138.754 5.49355 138.263C5.00087 137.771 4.75453 136.989 4.75453 135.916V92.4717C4.75453 91.8907 4.82171 91.399 4.95608 90.9967C5.13524 90.5945 5.38158 90.2593 5.6951 89.9911L14.3618 82.6833C14.5857 82.5045 14.8769 82.3705 15.2352 82.2811C15.6383 82.147 16.0638 82.0799 16.5117 82.0799H39.1525C45.0199 82.0799 49.3421 83.2644 52.119 85.6332C54.9407 88.0021 56.3516 91.6001 56.3516 96.4273V117.345C56.3516 119.758 55.9932 121.882 55.2766 123.714C54.56 125.502 53.5074 126.999 52.119 128.206L43.3851 135.447ZM39.1525 131.022C44.7512 131.022 48.8942 129.904 51.5815 127.67C54.3136 125.435 55.6797 121.993 55.6797 117.345V96.4273C55.6797 91.7789 54.3136 88.3374 51.5815 86.1026C48.8942 83.8678 44.7512 82.7504 39.1525 82.7504H16.5117C15.6607 82.7504 15.0336 82.9515 14.6305 83.3538C14.2722 83.7113 14.0931 84.3147 14.0931 85.1639V128.608C14.0931 129.457 14.2722 130.083 14.6305 130.485C15.0336 130.843 15.6607 131.022 16.5117 131.022H39.1525ZM21.4161 124.988V88.7843H37.6745C39.9587 88.7843 41.7951 89.0301 43.1836 89.5218C44.6168 90.0134 45.7141 90.6839 46.4756 91.5331C47.237 92.3376 47.752 93.3209 48.0208 94.483C48.2895 95.6004 48.4239 96.8072 48.4239 98.1034V115.87C48.4239 117.166 48.2895 118.373 48.0208 119.49C47.7968 120.608 47.3042 121.569 46.5427 122.373C45.7813 123.178 44.684 123.826 43.2507 124.317C41.8175 124.764 39.9587 124.988 37.6745 124.988H21.4161ZM37.6745 89.4547H22.0879V124.317H37.6745C39.8244 124.317 41.5488 124.116 42.8476 123.714C44.1913 123.267 45.2215 122.686 45.9381 121.971C46.6547 121.211 47.125 120.317 47.3489 119.289C47.6177 118.216 47.752 117.077 47.752 115.87V98.1034C47.752 96.8966 47.6177 95.7568 47.3489 94.6841C47.0802 93.6114 46.5875 92.6952 45.8709 91.9354C45.1543 91.1755 44.1241 90.5721 42.7805 90.1252C41.4816 89.6782 39.7796 89.4547 37.6745 89.4547ZM29.3437 95.5557H37.3386C38.4135 95.5557 39.1973 95.8239 39.69 96.3602C40.2275 96.8519 40.4962 97.6564 40.4962 98.7738V115.065C40.4962 116.183 40.2275 117.01 39.69 117.546C39.1973 118.082 38.4135 118.351 37.3386 118.351H29.3437V95.5557ZM31.1577 106.082C31.1577 105.501 31.0681 105.009 30.889 104.607C30.7098 104.204 30.4187 103.914 30.0156 103.735V117.68H31.1577V106.082Z" stroke="#F23869" stroke-width="3" mask="url(#path-1-outside-1)"/>
<path d="M95.8356 139H64.6624C63.5874 139 62.8036 138.754 62.3109 138.263C61.8183 137.771 61.5719 136.989 61.5719 135.916V92.4717C61.5719 91.8907 61.6391 91.399 61.7735 90.9967C61.9526 90.5945 62.199 90.2593 62.5125 89.9911L71.1792 82.6833C71.4031 82.5045 71.6943 82.3705 72.0526 82.2811C72.4557 82.147 72.8812 82.0799 73.3291 82.0799H104.502C105.577 82.0799 106.361 82.3258 106.854 82.8174C107.346 83.3091 107.593 84.0912 107.593 85.1639V93.008C107.593 93.5891 107.503 94.0808 107.324 94.483C107.19 94.8853 106.966 95.2205 106.652 95.4887L100.874 100.249C101.322 100.472 101.636 100.807 101.815 101.254C102.039 101.701 102.151 102.282 102.151 102.998V110.171C102.151 110.752 102.061 111.244 101.882 111.646C101.748 112.048 101.524 112.384 101.21 112.652L95.2309 117.68H104.502C105.577 117.68 106.361 117.926 106.854 118.418C107.346 118.909 107.593 119.691 107.593 120.764V128.608C107.593 129.189 107.503 129.681 107.324 130.083C107.19 130.485 106.966 130.821 106.652 131.089L97.9183 138.33C97.7391 138.508 97.448 138.665 97.0449 138.799C96.6866 138.933 96.2835 139 95.8356 139ZM104.502 131.022C105.353 131.022 105.958 130.843 106.316 130.485C106.719 130.083 106.921 129.457 106.921 128.608V120.764C106.921 119.915 106.719 119.312 106.316 118.954C105.958 118.552 105.353 118.351 104.502 118.351H85.9596V112.585H99.0604C99.9114 112.585 100.516 112.406 100.874 112.048C101.277 111.646 101.479 111.02 101.479 110.171V102.998C101.479 102.148 101.277 101.545 100.874 101.187C100.516 100.785 99.9114 100.584 99.0604 100.584H85.9596V95.4216H104.502C105.353 95.4216 105.958 95.2428 106.316 94.8853C106.719 94.483 106.921 93.8573 106.921 93.008V85.1639C106.921 84.3147 106.719 83.7113 106.316 83.3538C105.958 82.9515 105.353 82.7504 104.502 82.7504H73.3291C72.4781 82.7504 71.851 82.9515 71.4479 83.3538C71.0896 83.7113 70.9104 84.3147 70.9104 85.1639V128.608C70.9104 129.457 71.0896 130.083 71.4479 130.485C71.851 130.843 72.4781 131.022 73.3291 131.022H104.502ZM100.874 124.317V124.988H78.2335V88.7843H100.874V89.4547H78.9053V106.283H95.4325V106.953H78.9053V124.317H100.874Z" stroke="#F23869" stroke-width="3" mask="url(#path-1-outside-1)"/>
<path d="M145.209 105.21C146.015 105.21 146.598 105.031 146.956 104.674C147.314 104.316 147.874 103.556 148.636 102.394L156.832 89.924C157.101 89.4771 157.392 89.1866 157.705 89.0525C158.064 88.8737 158.422 88.7843 158.78 88.7843H159.922C160.549 88.7843 160.997 88.9631 161.266 89.3207C161.58 89.6335 161.736 90.1475 161.736 90.8626V124.988H161.065V90.8626C161.065 90.5051 160.975 90.1922 160.796 89.924C160.661 89.6112 160.37 89.4547 159.922 89.4547H158.915C158.601 89.4547 158.332 89.4994 158.108 89.5888C157.885 89.6782 157.638 89.9464 157.369 90.3933L149.173 102.729C148.367 103.936 147.74 104.763 147.292 105.21C146.889 105.657 146.195 105.88 145.209 105.88C144.224 105.88 143.507 105.657 143.059 105.21C142.656 104.763 142.052 103.936 141.245 102.729L133.049 90.3933C132.78 89.9464 132.512 89.6782 132.243 89.5888C132.019 89.4994 131.75 89.4547 131.437 89.4547H130.429C129.981 89.4547 129.69 89.6112 129.555 89.924C129.421 90.1922 129.354 90.5051 129.354 90.8626V124.988H128.682V90.8626C128.682 90.1475 128.816 89.6335 129.085 89.3207C129.399 88.9631 129.847 88.7843 130.429 88.7843H131.571C131.929 88.7843 132.288 88.8737 132.646 89.0525C133.004 89.1866 133.318 89.4771 133.586 89.924L141.783 102.394C142.544 103.556 143.104 104.316 143.462 104.674C143.821 105.031 144.403 105.21 145.209 105.21ZM133.99 131.022C134.841 131.022 135.445 130.843 135.804 130.485C136.207 130.083 136.408 129.457 136.408 128.608V105.009L140.372 112.317C140.775 113.076 141.245 113.635 141.783 113.993C142.365 114.306 143.082 114.462 143.933 114.462H146.62C147.471 114.462 148.165 114.306 148.703 113.993C149.285 113.635 149.778 113.076 150.181 112.317L154.145 105.009V128.608C154.145 129.457 154.324 130.083 154.682 130.485C155.085 130.843 155.712 131.022 156.563 131.022H166.91C167.761 131.022 168.365 130.843 168.724 130.485C169.127 130.083 169.328 129.457 169.328 128.608V85.1639C169.328 84.3147 169.127 83.7113 168.724 83.3538C168.365 82.9515 167.761 82.7504 166.91 82.7504H156.026C155.309 82.7504 154.705 82.9068 154.212 83.2197C153.764 83.5326 153.338 84.0465 152.935 84.7617L146.956 95.6898C146.732 96.0921 146.531 96.3826 146.351 96.5614C146.217 96.7402 146.015 96.8295 145.747 96.8295H145.142C144.873 96.8295 144.649 96.7402 144.47 96.5614C144.336 96.3826 144.157 96.0921 143.933 95.6898L137.886 84.7617C137.483 84.0465 137.035 83.5326 136.543 83.2197C136.095 82.9068 135.512 82.7504 134.796 82.7504H123.979C123.128 82.7504 122.501 82.9515 122.098 83.3538C121.74 83.7113 121.561 84.3147 121.561 85.1639V128.608C121.561 129.457 121.74 130.083 122.098 130.485C122.501 130.843 123.128 131.022 123.979 131.022H133.99ZM136.139 131.089L127.406 138.33C127.226 138.508 126.935 138.665 126.532 138.799C126.174 138.933 125.771 139 125.323 139H115.313C114.238 139 113.454 138.754 112.961 138.263C112.468 137.771 112.222 136.989 112.222 135.916V92.4717C112.222 91.8907 112.289 91.399 112.424 90.9967C112.603 90.5945 112.849 90.2593 113.163 89.9911L121.829 82.6833C122.053 82.5045 122.344 82.3705 122.703 82.2811C123.106 82.147 123.531 82.0799 123.979 82.0799H134.796C135.647 82.0799 136.341 82.2587 136.878 82.6163C137.461 82.9739 137.998 83.5772 138.491 84.4265L143.059 92.8069L143.664 91.7342C143.843 91.4214 144.022 91.1308 144.201 90.8626C144.425 90.5498 144.649 90.304 144.873 90.1252L153.54 82.8845C153.898 82.6163 154.257 82.4152 154.615 82.2811C155.018 82.147 155.488 82.0799 156.026 82.0799H166.91C167.984 82.0799 168.768 82.3258 169.261 82.8174C169.754 83.3091 170 84.0912 170 85.1639V128.608C170 129.189 169.91 129.681 169.731 130.083C169.597 130.485 169.373 130.821 169.059 131.089L160.326 138.33C160.146 138.508 159.855 138.665 159.452 138.799C159.094 138.933 158.691 139 158.243 139H147.897C146.777 139 145.971 138.754 145.478 138.263C145.03 137.771 144.806 136.989 144.806 135.916V118.216L140.842 121.502C140.484 121.814 140.059 122.06 139.566 122.239C139.118 122.373 138.58 122.44 137.953 122.44H137.08V128.608C137.08 129.189 136.99 129.681 136.811 130.083C136.677 130.485 136.453 130.821 136.139 131.089Z" stroke="#F23869" stroke-width="3" mask="url(#path-1-outside-1)"/>
</svg>
